<svg xmlns="http://www.w3.org/2000/svg" width="494" height="502" fill="none" viewBox="0 0 494 502">
    <mask id="prefix__a" width="466" height="476" x="14" y="6" maskUnits="userSpaceOnUse">
        <rect width="466" height="476" x="14" y="6" fill="#fff" rx="4"/>
        <rect width="466" height="476" x="14" y="6" fill="url(#prefix__paint0_linear)" rx="4"/>
    </mask>
    <g mask="url(#prefix__a)">
        <path fill="#ABE7EF" d="M448.727 65.727l-6.434 6.293c-3.476-3.553-3.413-9.251.141-12.727 3.553-3.475 9.251-3.413 12.727.14l-6.434 6.294z" opacity=".974"/>
        <path fill="#FF8AE7" d="M35.91 10.2l3.709 8.2c-4.53 2.049-9.861.038-11.91-4.49C25.661 9.38 27.671 4.048 32.2 2l3.71 8.2z" opacity=".956"/>
        <path fill="#FF8AE7" d="M30.315 91.315l-2.743 8.572c-4.735-1.515-7.344-6.581-5.83-11.315 1.516-4.734 6.582-7.344 11.316-5.829l-2.743 8.572z" opacity=".449"/>
        <path fill="#FF8AE7" d="M164.72 6.663L169.44-1c4.232 2.607 5.55 8.15 2.943 12.383-2.607 4.232-8.151 5.55-12.383 2.943l4.72-7.663z" opacity=".849"/>
        <path fill="#FF8AE7" d="M212.242 316.786l-8.772 2.014c-1.112-4.845 1.914-9.674 6.758-10.786 4.845-1.112 9.674 1.913 10.786 6.758l-8.772 2.014z" opacity=".017"/>
        <path fill="#FFBD3A" d="M418.548 39.767L423.095 32c4.289 2.512 5.731 8.025 3.219 12.314-2.511 4.29-8.025 5.73-12.314 3.22l4.548-7.767z" opacity=".3"/>
        <path fill="#FFBD3A" d="M46.406 60.321l5.48-7.139c3.943 3.027 4.685 8.677 1.658 12.62-3.027 3.943-8.677 4.685-12.62 1.658l5.482-7.139z" opacity=".145"/>
        <path fill="#FFBD3A" d="M491.694 132.071l6.811 5.883c-3.249 3.762-8.932 4.177-12.694.929-3.761-3.249-4.177-8.933-.928-12.694l6.811 5.882z" opacity=".925"/>
        <path fill="#FFBD3A" d="M271.714 24.714l-6.653 6.062c-3.347-3.674-3.083-9.367.592-12.714 3.674-3.348 9.366-3.084 12.714.59l-6.653 6.062z" opacity=".446"/>
        <path fill="#6BCE7A" d="M466.181 257.181l-7.936 4.245c-2.345-4.383-.692-9.837 3.691-12.181 4.383-2.345 9.837-.692 12.181 3.691l-7.936 4.245z" opacity=".283"/>
        <path fill="#6BCE7A" d="M382.283 236.465l-6.091-6.626c3.66-3.363 9.353-3.124 12.717.535 3.364 3.66 3.125 9.353-.535 12.717l-6.091-6.626z" opacity=".039"/>
        <path fill="#6BCE7A" d="M359.922 25.774l-8.926-1.151c.636-4.93 5.148-8.41 10.078-7.775 4.93.636 8.41 5.148 7.774 10.078l-8.926-1.152z" opacity=".388"/>
        <path fill="#6BCE7A" d="M55.807 94.185l2.764 8.566c-4.731 1.526-9.803-1.072-11.329-5.803-1.526-4.73 1.072-9.802 5.802-11.328l2.764 8.565z" opacity=".206"/>
        <path fill="#6BCE7A" d="M238.312 187.745l-.716-8.972c4.955-.395 9.292 3.301 9.688 8.256.395 4.954-3.301 9.292-8.255 9.687l-.717-8.971z" opacity=".057"/>
        <path fill="#6BCE7A" d="M36.184 445.29l-2.052-8.763c4.84-1.134 9.682 1.871 10.815 6.71 1.134 4.84-1.87 9.682-6.71 10.816l-2.053-8.763z" opacity=".392"/>
        <path fill="#6BCE7A" d="M467.973 159.174l7.973-4.174c2.306 4.404.605 9.842-3.798 12.148-4.404 2.305-9.843.604-12.148-3.799l7.973-4.175z" opacity=".842"/>
        <path fill="#9F91FF" d="M286.392 80.78l-3.195-8.414c4.647-1.764 9.844.573 11.609 5.22 1.764 4.647-.573 9.844-5.22 11.608l-3.194-8.414z" opacity=".011"/>
        <path fill="#9F91FF" d="M310.195 18.093l5.51 7.116c-3.93 3.043-9.583 2.324-12.626-1.607-3.043-3.93-2.324-9.583 1.607-12.626l5.509 7.117z" opacity=".528"/>
        <path fill="#9F91FF" d="M396.379 10.873l1.506 8.873c-4.9.832-9.547-2.466-10.379-7.367-.832-4.9 2.467-9.547 7.367-10.38l1.506 8.874z" opacity=".14"/>
        <path fill="#ABE7EF" d="M205.708 20.708l6.001 6.708c-3.705 3.314-9.395 2.997-12.709-.708-3.314-3.704-2.997-9.394.708-12.708l6 6.708z" opacity=".944"/>
        <path fill="#6BE56C" d="M18.236 359.629l8.608 2.629c-1.452 4.754-6.483 7.43-11.237 5.978-4.753-1.452-7.43-6.482-5.978-11.236l8.607 2.629z" opacity=".753"/>
        <path fill="#FF8AE7" d="M14.322 283.728L8 277.322c3.538-3.492 9.236-3.454 12.728.084 3.491 3.538 3.453 9.236-.085 12.728l-6.321-6.406z" opacity=".296"/>
        <path fill="#55910B" d="M33.763 416.803l4.847 7.583c-4.188 2.677-9.753 1.452-12.43-2.736-2.677-4.188-1.452-9.753 2.736-12.43l4.847 7.583z" opacity=".6"/>
        <path fill="#6BE56C" d="M36.275 252.444l-1.584 8.859c-4.893-.875-8.15-5.551-7.275-10.444.875-4.893 5.55-8.15 10.443-7.275l-1.584 8.86z" opacity=".42"/>
        <path fill="#9F91FF" d="M113.724 2.756l8.968.755c-.417 4.953-4.771 8.63-9.724 8.213-4.953-.417-8.63-4.771-8.212-9.724l8.968.756z" opacity=".8"/>
        <path fill="#259FE7" d="M22.28 457.527L30.56 454c1.948 4.573-.18 9.859-4.753 11.807-4.573 1.948-9.86-.18-11.807-4.753l8.28-3.527z" opacity=".121"/>
        <path fill="#259FE7" d="M177.871 148.176l-8.653-2.476c1.368-4.779 6.351-7.544 11.129-6.176 4.779 1.367 7.544 6.35 6.177 11.129l-8.653-2.477z" opacity=".06"/>
        <path fill="#259FE7" d="M481.807 304.527l8.28 3.526c-1.948 4.573-7.234 6.702-11.807 4.754-4.573-1.948-6.701-7.234-4.753-11.807l8.28 3.527z" opacity=".348"/>
        <path fill="#259FE7" d="M62.04 37.04l-9 .04c-.022-4.97 3.99-9.018 8.96-9.04 4.97-.022 9.018 3.99 9.04 8.96l-9 .04z" opacity=".373"/>
        <path fill="#259FE7" d="M477.658 404.728l7.658-4.728c2.611 4.229 1.299 9.775-2.93 12.386-4.229 2.611-9.775 1.3-12.386-2.93l7.658-4.728z" opacity=".877"/>
        <path fill="#259FE7" d="M59.275 163.444l-1.584 8.859c-4.893-.875-8.15-5.551-7.275-10.444.875-4.893 5.55-8.15 10.443-7.275l-1.584 8.86z" opacity=".018"/>
        <path fill="#259FE7" d="M475.483 81.617l-7.445-5.058c2.794-4.111 8.392-5.18 12.503-2.386 4.111 2.794 5.179 8.391 2.386 12.502l-7.444-5.058z" opacity=".175"/>
        <path fill="#259FE7" d="M139.717 33.717l-6.091 6.626c-3.659-3.364-3.899-9.058-.535-12.717 3.364-3.66 9.057-3.9 12.717-.535l-6.091 6.626z" opacity=".352"/>
        <path fill="#259FE7" d="M337.15 40.968L329 37.15c2.108-4.5 7.467-6.44 11.968-4.333 4.501 2.109 6.441 7.467 4.333 11.968l-8.151-3.817z" opacity=".415"/>
        <path fill="#F96861" d="M42.743 141.326l3.417 8.326c-4.599 1.887-9.856-.311-11.743-4.909-1.887-4.598.31-9.856 4.91-11.743l3.416 8.326z" opacity=".428"/>
        <path fill="#F96861" d="M442.441 99.423l8.509 2.932c-1.619 4.699-6.742 7.196-11.441 5.577-4.699-1.619-7.196-6.742-5.577-11.441l8.509 2.932z" opacity=".686"/>
        <path fill="#F96861" d="M238.214 12.534l-5.161 7.374c-4.072-2.85-5.063-8.462-2.213-12.534 2.85-4.073 8.461-5.064 12.534-2.214l-5.16 7.374z" opacity=".487"/>
        <path fill="#F96861" d="M390.868 42.914l8.953.914c-.505 4.945-4.923 8.545-9.868 8.04-4.944-.505-8.544-4.923-8.039-9.868l8.954.914z" opacity=".322"/>
        <path fill="#F96861" d="M20.849 326.849l-8.249 3.6c-1.988-4.556.093-9.861 4.649-11.849 4.555-1.988 9.86.093 11.848 4.649l-8.248 3.6z" opacity=".98"/>
        <path fill="#F96861" d="M469.354 453.234l5.355-7.234c3.995 2.957 4.837 8.593 1.88 12.588-2.958 3.996-8.593 4.837-12.589 1.88l5.354-7.234z" opacity=".326"/>
        <path fill="#F29A38" d="M24.634 37.814l1.819 8.814c-4.868 1.005-9.629-2.127-10.634-6.995-1.005-4.867 2.127-9.628 6.995-10.633l1.82 8.814z" opacity=".302"/>
        <path fill="#F29A38" d="M474.29 380.571L469 373.29c4.021-2.921 9.649-2.03 12.571 1.991 2.922 4.021 2.03 9.65-1.991 12.571l-5.29-7.281z" opacity=".452"/>
        <path fill="#A2D161" d="M471.53 346.841l-5.302 7.273c-4.016-2.928-4.899-8.558-1.971-12.575 2.928-4.016 8.558-4.899 12.575-1.971l-5.302 7.273z" opacity=".603"/>
        <path fill="#F29A38" d="M467.762 121.637l4.762-7.637c4.217 2.63 5.505 8.181 2.875 12.399s-8.181 5.505-12.399 2.875l4.762-7.637z" opacity=".365"/>
        <path fill="#F29A38" d="M74.853 12.987L71 4.854c4.492-2.129 9.858-.213 11.987 4.28 2.128 4.491.212 9.858-4.28 11.986l-3.853-8.133z" opacity=".401"/>
        <path fill="#F29A38" d="M6.386 68.07c4.23 2.61 7.658 4.728 7.658 4.728-2.611 4.23-8.156 5.541-12.386 2.93-4.23-2.611-5.541-8.157-2.93-12.386l7.658 4.728z" opacity=".258"/>
        <path fill="#F29A38" d="M473.361 216.046L471 207.362c4.796-1.305 9.742 1.526 11.046 6.323 1.304 4.796-1.527 9.741-6.323 11.046l-2.362-8.685z" opacity=".118"/>
        <path fill="#F29A38" d="M14.28 173.197L10 165.28c4.373-2.364 9.833-.735 12.197 3.637 2.364 4.373.735 9.834-3.637 12.197l-4.28-7.917z" opacity=".662"/>
        <g style="mix-blend-mode:color-dodge" filter="url(#prefix__filter0_d)">
            <rect width="466" height="474" x="480" y="480" fill="url(#prefix__paint1_linear)" rx="4" transform="rotate(-180 480 480)"/>
        </g>
    </g>
    <defs>
        <linearGradient id="prefix__paint0_linear" x1="247" x2="247" y1="6" y2="482" gradientUnits="userSpaceOnUse">
            <stop stop-color="#fff"/>
            <stop offset="1" stop-color="#fff" stop-opacity="0"/>
        </linearGradient>
        <linearGradient id="prefix__paint1_linear" x1="713" x2="713" y1="480" y2="954" gradientUnits="userSpaceOnUse">
            <stop stop-color="#fff"/>
            <stop offset="1" stop-color="#fff" stop-opacity="0"/>
            <stop offset="1" stop-color="#fff" stop-opacity=".6"/>
        </linearGradient>
        <filter id="prefix__filter0_d" width="494" height="502" x="0" y="0" color-interpolation-filters="sRGB" filterUnits="userSpaceOnUse">
            <feFlood flood-opacity="0" result="BackgroundImageFix"/>
            <feColorMatrix in="SourceAlpha" values="0 0 0 0 0 0 0 0 0 0 0 0 0 0 0 0 0 0 127 0"/>
            <feOffset dy="8"/>
            <feGaussianBlur stdDeviation="7"/>
            <feColorMatrix values="0 0 0 0 0 0 0 0 0 0 0 0 0 0 0 0 0 0 0.1 0"/>
            <feBlend in2="BackgroundImageFix" result="effect1_dropShadow"/>
            <feBlend in="SourceGraphic" in2="effect1_dropShadow" result="shape"/>
        </filter>
    </defs>
</svg>
