<svg width="466" height="476" viewBox="0 0 466 476" fill="none" xmlns="http://www.w3.org/2000/svg">
<rect width="466" height="475" rx="4" fill="white"/>
<rect y="1" width="466" height="475" rx="4" fill="white"/>
<mask id="mask0" mask-type="alpha" maskUnits="userSpaceOnUse" x="0" y="0" width="466" height="476">
<rect width="466" height="476" rx="4" fill="white"/>
<rect width="466" height="476" rx="4" fill="url(#paint0_linear)"/>
</mask>
<g mask="url(#mask0)">
<path opacity="0.973697" d="M434.727 59.7271C431.174 63.2028 428.293 66.0204 428.293 66.0204C424.817 62.4671 424.88 56.7689 428.434 53.2933C431.987 49.8176 437.685 49.8805 441.161 53.4339C441.161 53.4339 438.28 56.2515 434.727 59.7271Z" fill="#ABE7EF"/>
<path opacity="0.95567" d="M21.9094 4.20006C23.958 8.72883 25.6187 12.4001 25.6187 12.4001C21.0899 14.4487 15.7579 12.4381 13.7093 7.90937C11.6607 3.38061 13.6713 -1.9514 18.2001 -4C18.2001 -4 19.8608 -0.328708 21.9094 4.20006Z" fill="#FF8AE7"/>
<path opacity="0.448698" d="M16.3146 85.3148C14.7997 90.0489 13.5716 93.8866 13.5716 93.8866C8.83749 92.3717 6.22786 87.3059 7.7428 82.5718C9.25774 77.8377 14.3236 75.2281 19.0576 76.743C19.0576 76.743 17.8295 80.5808 16.3146 85.3148Z" fill="#FF8AE7"/>
<path opacity="0.849404" d="M150.72 0.662933C153.327 -3.56919 155.44 -7 155.44 -7C159.672 -4.39316 160.99 1.15092 158.383 5.38304C155.776 9.61517 150.232 10.9327 146 8.32587C146 8.32587 148.113 4.89505 150.72 0.662933Z" fill="#FF8AE7"/>
<path opacity="0.0169605" d="M198.242 310.786C193.398 311.898 189.47 312.8 189.47 312.8C188.358 307.955 191.384 303.126 196.228 302.014C201.073 300.902 205.902 303.927 207.014 308.772C207.014 308.772 203.087 309.673 198.242 310.786Z" fill="#FF8AE7"/>
<path opacity="0.3" d="M404.548 33.7666C407.059 29.4772 409.095 26 409.095 26C413.384 28.5115 414.826 34.0248 412.314 38.3141C409.803 42.6035 404.289 44.0447 400 41.5332C400 41.5332 402.036 38.056 404.548 33.7666Z" fill="#FFBD3A"/>
<path opacity="0.145488" d="M32.4056 54.3211C35.4326 50.3785 37.8864 47.1824 37.8864 47.1824C41.829 50.2094 42.5712 55.8593 39.5443 59.8019C36.5173 63.7445 30.8674 64.4868 26.9248 61.4598C26.9248 61.4598 29.3786 58.2637 32.4056 54.3211Z" fill="#FFBD3A"/>
<path opacity="0.925288" d="M477.694 126.071C481.456 129.32 484.505 131.954 484.505 131.954C481.257 135.716 475.573 136.131 471.811 132.883C468.05 129.634 467.634 123.95 470.883 120.189C470.883 120.189 473.932 122.822 477.694 126.071Z" fill="#FFBD3A"/>
<path opacity="0.446145" d="M257.714 18.7142C254.04 22.0619 251.061 24.7758 251.061 24.7758C247.714 21.1016 247.978 15.4093 251.653 12.0616C255.327 8.71386 261.019 8.97848 264.367 12.6526C264.367 12.6526 261.388 15.3665 257.714 18.7142Z" fill="#FFBD3A"/>
<path opacity="0.283355" d="M452.181 251.181C447.798 253.525 444.245 255.426 444.245 255.426C441.9 251.043 443.553 245.589 447.936 243.245C452.319 240.9 457.773 242.553 460.117 246.936C460.117 246.936 456.564 248.837 452.181 251.181Z" fill="#6BCE7A"/>
<path opacity="0.0385669" d="M368.283 230.465C364.919 226.806 362.192 223.839 362.192 223.839C365.852 220.476 371.545 220.715 374.909 224.374C378.273 228.034 378.034 233.727 374.374 237.091C374.374 237.091 371.647 234.125 368.283 230.465Z" fill="#6BCE7A"/>
<path opacity="0.387639" d="M345.922 19.7743C340.993 19.1383 336.996 18.6227 336.996 18.6227C337.632 13.693 342.144 10.2123 347.074 10.8483C352.004 11.4844 355.484 15.9963 354.848 20.926C354.848 20.926 350.852 20.4104 345.922 19.7743Z" fill="#6BCE7A"/>
<path opacity="0.20559" d="M41.8075 88.1854C43.3335 92.9159 44.5706 96.7507 44.5706 96.7507C39.84 98.2767 34.7681 95.679 33.2421 90.9485C31.7161 86.2179 34.3138 81.146 39.0444 79.62C39.0444 79.62 40.2814 83.4548 41.8075 88.1854Z" fill="#6BCE7A"/>
<path opacity="0.0569679" d="M224.312 181.745C223.917 176.79 223.596 172.773 223.596 172.773C228.551 172.378 232.888 176.074 233.284 181.029C233.679 185.983 229.983 190.321 225.029 190.716C225.029 190.716 224.708 186.7 224.312 181.745Z" fill="#6BCE7A"/>
<path opacity="0.392318" d="M8.05265 208.816C6.91896 203.976 5.99992 200.053 5.99992 200.053C10.8395 198.919 15.6817 201.923 16.8154 206.763C17.9491 211.602 14.9449 216.445 10.1054 217.578C10.1054 217.578 9.18634 213.655 8.05265 208.816Z" fill="#6BCE7A"/>
<path opacity="0.842153" d="M453.973 153.174C458.377 150.869 461.947 149 461.947 149C464.252 153.404 462.551 158.842 458.148 161.148C453.744 163.453 448.305 161.752 446 157.349C446 157.349 449.57 155.48 453.973 153.174Z" fill="#6BCE7A"/>
<path opacity="0.0109676" d="M272.392 74.7804C270.627 70.1335 269.197 66.3664 269.197 66.3664C273.844 64.6022 279.041 66.9391 280.806 71.586C282.57 76.2329 280.233 81.4302 275.586 83.1944C275.586 83.1944 274.156 79.4274 272.392 74.7804Z" fill="#9F91FF"/>
<path opacity="0.52821" d="M296.195 12.0926C299.238 16.0228 301.705 19.2089 301.705 19.2089C297.775 22.2519 292.122 21.5327 289.079 17.6024C286.036 13.6722 286.755 8.01931 290.686 4.9763C290.686 4.9763 293.152 8.16238 296.195 12.0926Z" fill="#9F91FF"/>
<path opacity="0.139641" d="M382.379 4.87307C383.211 9.77353 383.885 13.7461 383.885 13.7461C378.985 14.578 374.338 11.2797 373.506 6.37927C372.674 1.47881 375.973 -3.16815 380.873 -4C380.873 -4 381.547 -0.0273914 382.379 4.87307Z" fill="#9F91FF"/>
<path opacity="0.944323" d="M191.708 14.7078C195.022 18.4125 197.709 21.4157 197.709 21.4157C194.004 24.7296 188.314 24.4129 185 20.7082C181.686 17.0036 182.003 11.3139 185.708 8C185.708 8 188.394 11.0032 191.708 14.7078Z" fill="#ABE7EF"/>
<path opacity="0.753172" d="M4.23645 353.629C8.99022 355.081 12.8439 356.258 12.8439 356.258C11.392 361.012 6.36123 363.688 1.60746 362.236C-3.14631 360.784 -5.82296 355.754 -4.37101 351C-4.37101 351 -0.517317 352.177 4.23645 353.629Z" fill="#6BE56C"/>
<path opacity="0.296373" d="M0.321673 277.728C-3.16969 274.19 -6 271.322 -6 271.322C-2.46208 267.83 3.23628 267.868 6.72765 271.406C10.219 274.944 10.1813 280.642 6.64334 284.134C6.64334 284.134 3.81303 281.266 0.321673 277.728Z" fill="#FF8AE7"/>
<path opacity="0.6" d="M19.7629 410.803C22.44 414.991 24.6103 418.386 24.6103 418.386C20.4222 421.063 14.8569 419.838 12.1798 415.65C9.50274 411.462 10.7276 405.897 14.9156 403.219C14.9156 403.219 17.0858 406.615 19.7629 410.803Z" fill="#55910B"/>
<path opacity="0.42" d="M22.275 246.444C21.4 251.337 20.6906 255.303 20.6906 255.303C15.7977 254.428 12.5405 249.752 13.4156 244.859C14.2906 239.967 18.9665 236.709 23.8594 237.584C23.8594 237.584 23.1501 241.551 22.275 246.444Z" fill="#6BE56C"/>
<path opacity="0.800472" d="M99.7239 -3.24433C104.677 -2.827 108.692 -2.48869 108.692 -2.48869C108.275 2.46432 103.921 6.14122 98.9682 5.7239C94.0152 5.30657 90.3383 0.953051 90.7556 -3.99996C90.7556 -3.99996 94.7708 -3.66165 99.7239 -3.24433Z" fill="#9F91FF"/>
<path opacity="0.120717" d="M8.28002 451.527C12.853 449.579 16.5601 448 16.5601 448C18.508 452.573 16.38 457.859 11.807 459.807C7.234 461.755 1.94778 459.627 -0.000109515 455.054C-0.000109515 455.054 3.70703 453.475 8.28002 451.527Z" fill="#259FE7"/>
<path opacity="0.0604643" d="M163.871 142.176C159.092 140.808 155.218 139.7 155.218 139.7C156.586 134.921 161.569 132.156 166.347 133.524C171.126 134.891 173.891 139.874 172.524 144.653C172.524 144.653 168.65 143.544 163.871 142.176Z" fill="#259FE7"/>
<path opacity="0.348176" d="M467.807 298.527C472.38 300.474 476.087 302.053 476.087 302.053C474.139 306.626 468.853 308.755 464.28 306.807C459.707 304.859 457.579 299.573 459.527 295C459.527 295 463.234 296.579 467.807 298.527Z" fill="#259FE7"/>
<path opacity="0.372542" d="M48.0399 31.0397C43.0694 31.0617 39.04 31.0796 39.04 31.0796C39.018 26.1091 43.0296 22.0618 48.0001 22.0398C52.9706 22.0178 57.0178 26.0294 57.0398 30.9999C57.0398 30.9999 53.0104 31.0177 48.0399 31.0397Z" fill="#259FE7"/>
<path opacity="0.877318" d="M463.658 398.728C467.887 396.117 471.316 394 471.316 394C473.927 398.229 472.615 403.775 468.386 406.386C464.157 408.997 458.611 407.686 456 403.456C456 403.456 459.428 401.339 463.658 398.728Z" fill="#259FE7"/>
<path opacity="0.018475" d="M45.275 157.444C44.4 162.337 43.6906 166.303 43.6906 166.303C38.7977 165.428 35.5405 160.752 36.4156 155.859C37.2906 150.967 41.9665 147.709 46.8594 148.584C46.8594 148.584 46.1501 152.551 45.275 157.444Z" fill="#259FE7"/>
<path opacity="0.174562" d="M461.483 75.6174C457.371 72.8238 454.038 70.5592 454.038 70.5592C456.832 66.4479 462.43 65.3797 466.541 68.1733C470.652 70.9669 471.72 76.5644 468.927 80.6756C468.927 80.6756 465.594 78.411 461.483 75.6174Z" fill="#259FE7"/>
<path opacity="0.351939" d="M125.717 27.7167C122.353 31.3761 119.626 34.3426 119.626 34.3426C115.967 30.9788 115.727 25.2853 119.091 21.6259C122.455 17.9665 128.148 17.7269 131.808 21.0907C131.808 21.0907 129.081 24.0573 125.717 27.7167Z" fill="#259FE7"/>
<path opacity="0.414905" d="M323.15 34.9677C318.649 32.8594 315 31.1503 315 31.1503C317.108 26.649 322.467 24.7091 326.968 26.8174C331.469 28.9256 333.409 34.2838 331.301 38.7851C331.301 38.7851 327.652 37.076 323.15 34.9677Z" fill="#259FE7"/>
<path opacity="0.428229" d="M28.7429 135.326C30.6299 139.925 32.1597 143.652 32.1597 143.652C27.5612 145.539 22.3037 143.341 20.4167 138.743C18.5297 134.144 20.7278 128.887 25.3262 127C25.3262 127 26.8559 130.728 28.7429 135.326Z" fill="#F96861"/>
<path opacity="0.68556" d="M428.441 93.423C433.14 95.0423 436.95 96.3551 436.95 96.3551C435.331 101.054 430.208 103.551 425.509 101.932C420.81 100.313 418.313 95.1904 419.932 90.491C419.932 90.491 423.742 91.8037 428.441 93.423Z" fill="#F96861"/>
<path opacity="0.487473" d="M224.214 6.53396C221.364 10.6064 219.053 13.9077 219.053 13.9077C214.981 11.0578 213.99 5.44616 216.84 1.37375C219.69 -2.69866 225.301 -3.68969 229.374 -0.839785C229.374 -0.839785 227.063 2.46156 224.214 6.53396Z" fill="#F96861"/>
<path opacity="0.32218" d="M376.868 36.9143C381.813 37.4192 385.821 37.8285 385.821 37.8285C385.316 42.7734 380.898 46.3727 375.953 45.8677C371.009 45.3628 367.409 40.9448 367.914 36C367.914 36 371.923 36.4093 376.868 36.9143Z" fill="#F96861"/>
<path opacity="0.98031" d="M6.8486 320.849C2.29303 322.837 -1.39998 324.449 -1.39998 324.449C-3.38827 319.893 -1.30708 314.588 3.24848 312.6C7.80405 310.612 13.1089 312.693 15.0972 317.249C15.0972 317.249 11.4042 318.86 6.8486 320.849Z" fill="#F96861"/>
<path opacity="0.325725" d="M455.354 447.234C458.311 443.239 460.709 440 460.709 440C464.704 442.957 465.546 448.593 462.589 452.588C459.632 456.584 453.996 457.425 450 454.468C450 454.468 452.397 451.229 455.354 447.234Z" fill="#F96861"/>
<path opacity="0.301892" d="M10.6335 31.8142C11.6383 36.6821 12.4529 40.6284 12.4529 40.6284C7.58495 41.6332 2.82415 38.5015 1.81935 33.6335C0.81455 28.7656 3.94625 24.0048 8.81419 23C8.81419 23 9.62874 26.9462 10.6335 31.8142Z" fill="#F29A38"/>
<path opacity="0.452003" d="M460.29 374.571C457.368 370.55 455 367.29 455 367.29C459.021 364.368 464.65 365.26 467.571 369.281C470.493 373.302 469.601 378.931 465.58 381.852C465.58 381.852 463.212 378.592 460.29 374.571Z" fill="#F29A38"/>
<path opacity="0.603092" d="M457.53 340.841C454.602 344.858 452.228 348.114 452.228 348.114C448.212 345.186 447.329 339.556 450.257 335.539C453.185 331.523 458.815 330.64 462.832 333.568C462.832 333.568 460.458 336.824 457.53 340.841Z" fill="#A2D161"/>
<path opacity="0.365186" d="M453.762 115.637C456.392 111.419 458.524 108 458.524 108C462.741 110.63 464.029 116.181 461.399 120.399C458.769 124.617 453.218 125.904 449 123.274C449 123.274 451.132 119.855 453.762 115.637Z" fill="#F29A38"/>
<path opacity="0.40082" d="M60.8535 6.98687C58.7251 2.49502 56.9998 -1.14636 56.9998 -1.14636C61.4917 -3.27467 66.8584 -1.35863 68.9867 3.13323C71.115 7.62509 69.199 12.9918 64.7071 15.1201C64.7071 15.1201 62.9818 11.4787 60.8535 6.98687Z" fill="#F29A38"/>
<path opacity="0.258083" d="M-7.61397 62.0698C-3.3845 64.6809 0.0441616 66.7977 0.0441616 66.7977C-2.56698 71.0271 -8.1124 72.339 -12.3419 69.7279C-16.5713 67.1168 -17.8832 61.5713 -15.2721 57.3419C-15.2721 57.3419 -11.8434 59.4586 -7.61397 62.0698Z" fill="#F29A38"/>
<path opacity="0.11791" d="M459.361 210.046C458.057 205.25 457 201.362 457 201.362C461.796 200.057 466.742 202.888 468.046 207.685C469.35 212.481 466.519 217.427 461.723 218.731C461.723 218.731 460.666 214.843 459.361 210.046Z" fill="#F29A38"/>
<path opacity="0.662299" d="M0.279901 167.197C-2.08385 162.825 -4.00005 159.28 -4.00005 159.28C0.372497 156.916 5.83335 158.545 8.1971 162.917C10.5609 167.29 8.9324 172.751 4.55985 175.114C4.55985 175.114 2.64365 171.57 0.279901 167.197Z" fill="#F29A38"/>
</g>
<defs>
<linearGradient id="paint0_linear" x1="233" y1="0" x2="233" y2="476" gradientUnits="userSpaceOnUse">
<stop stop-color="white"/>
<stop offset="1" stop-color="white" stop-opacity="0"/>
</linearGradient>
</defs>
</svg>
