<svg clip-rule="evenodd" fill-rule="evenodd" height=".791661in" image-rendering="optimizeQuality" shape-rendering="geometricPrecision" text-rendering="geometricPrecision" viewBox="0 0 2583 792" width="2.58333in" xmlns="http://www.w3.org/2000/svg"><g fill-rule="nonzero"><path d="m591 684c192-100 266-336 166-527-17-32-38-61-62-87-36-33-77-60-123-78 72 33 133 89 173 165 47 91 53 192 25 283-16 50-43 97-78 136-63 84-163 139-276 139s-213-55-276-139c-20-23-39-48-53-76-47-91-53-192-25-283 29-91 92-170 183-218 5-3 11-5 16-7-80 33-148 89-194 162-59 110-64 246-2 365 100 192 336 266 527 166z" fill="#e69131"/><path d="m316 670c88 28 182 20 265-23 16-8 31-18 46-29 70-60 114-148 114-247 0-179-145-325-325-325-179 0-325 145-325 325 0 62 18 120 48 170 43 61 105 106 177 129z" fill="#e69131"/><path d="m830 363c-6 144-86 282-223 353-203 106-454 26-560-177-30-57-44-118-46-178 0 5-1 9-1 14 0 229 186 415 415 415s415-186 415-415c0-4-1-9-1-13z" fill="#e69131"/><path d="m728 178c-43-82-115-143-203-171s-182-20-265 23c-82 43-143 115-171 203-10 31-15 64-16 96 20-171 165-303 342-303 190 0 344 154 344 344 0 22-2 43-6 64 25-86 16-177-25-256z" fill="#e69131"/><g fill="#373435"><path d="m1291 313v172c0 42 18 63 54 63 16 0 30-5 43-14s22-20 26-32v-190h48v270h-48v-37c-5 11-16 20-32 29s-32 13-48 13c-30 0-52-9-68-26s-24-41-24-72v-177h48z"/><path d="m1827 583v-171c0-43-18-64-55-64-12 0-22 4-33 11-10 7-17 15-21 24v200h-48v-192c0-13-5-24-15-31-10-8-23-11-40-11-10 0-20 4-31 11s-19 16-23 24v199h-48v-270h31l16 31c19-24 42-36 69-36 39 0 66 12 81 36 5-10 15-19 30-26s30-10 45-10c28 0 50 8 65 25s23 40 23 70v181h-48z"/><path d="m1975 211c8 0 15 3 21 9s9 13 9 21-3 15-9 21-13 9-21 9-15-3-21-9-9-13-9-21 3-15 9-21 13-9 21-9zm-26 372v-230h-37v-40h85v270z"/><path d="m2223 583v-157c0-29-4-49-13-60-9-12-23-17-44-17-11 0-22 3-34 10s-21 15-27 24v201h-48v-270h33l15 35c16-27 42-40 77-40 59 0 89 36 89 108v167h-48z"/><path d="m2465 451c-15-3-26-5-32-5-24 0-44 6-59 19-15 12-23 27-23 44 0 28 17 42 50 42 24 0 46-12 64-35zm5 102c-19 24-49 36-88 36-21 0-40-8-55-23-16-15-23-35-23-57 0-27 12-51 36-70s55-28 92-28c10 0 22 2 34 7 0-44-20-66-59-66-30 0-53 8-69 24l-20-40c9-7 22-14 38-19s31-8 46-8c39 0 68 9 85 27 18 18 27 46 27 85v97c0 24 7 40 21 47v24c-20 0-34-3-44-8-10-6-17-15-21-28z"/><path d="m1111 584c-29 0-52-7-70-25-29-30-28-72-28-77v-261h49v262c0 1-1 26 14 41 8 8 21 13 38 12 3 0 111 1 111 1v46s-111 0-112 0-2 0-3 0z"/><path d="m1073 665v-7h-46v113h7v-59h37v-7h-37v-41h38zm76-8c-32 0-59 26-59 58s27 58 59 58 59-26 59-58-27-58-59-58zm0 7c28 0 51 23 51 51s-23 51-51 51-51-23-51-51 23-51 51-51zm90-5h-7v73c0 15 1 20 6 27 7 10 19 15 33 15 13 0 26-6 32-15 5-6 6-12 6-27v-73h-7v71c0 14-1 19-4 24-5 8-16 13-27 13s-22-5-27-13c-3-5-4-10-4-24v-71zm100 113h7v-97l95 99v-116h-7v98l-95-99v114zm133 0h22c18 0 31-5 41-16 11-11 17-25 17-41s-6-31-17-41c-11-11-24-16-41-16h-22v113zm7-7v-100h15c30 0 51 21 51 50s-21 50-51 50zm152-30 15 37h8l-47-117-48 117h8l15-37h48zm-3-7h-43l22-54zm59-62h30v-7h-66v7h29v106h7zm54-7h-7v113h7zm83-2c-32 0-59 26-59 58s27 58 59 58 59-26 59-58-27-58-59-58zm0 7c28 0 51 23 51 51s-23 51-51 51-51-23-51-51 23-51 51-51zm83 108h7v-97l95 99v-116h-7v98l-95-99v114z"/><path d="m2525 311h29v3h-13v37h-4v-37h-12z"/><path d="m2559 351v-40h6l13 35 13-35h6v40h-4v-36l-13 36h-4l-13-36v36z"/></g></g></svg>