<svg width="164" height="40" fill="none" xmlns="http://www.w3.org/2000/svg">
  <path d="M.1.6v18.8c2.4-4.6 7-14.5 8.1-14.5 1.4 0 1.2.8 1.2.8-.1.8-7.6 14.2-7.6 14.2s9.3-10.6 11.5-9.7c2.2.9-2.8 9.7-2.8 9.7s10.3-10.8 11.8-9.7c1.4 1-4 11.2-3.1 11.6.6.3 3.3-1 3.3-1s-.1-.5.1-1.2c1.2-3.2 5.9-11.9 8.4-11.3 2.2.6-9.7 11.8-6.1 13.6 2.5 1.2 8.1-4.8 11.3-8.7.6-.7 1.6-.1 1.4.8-2 6.6-6.9 19.5-14.5 19.8-11.1.5-2.1-5.1-2.1-5.1s-1.5 3 .5 3c1.9.1 8 .2 13.5-12.8.6-1.4 1-3.4 1-3.4s-6.3 8.1-10.7 7.4c-2.6-.4-2.8-1.4-2.8-1.4-.3.3-2.5 2.2-4.6 2.2-2.2 0 2.2-10.1 2.2-10.1S8.9 24.2 7.6 24.1c-1.1 0 2.4-8.2 4-11-2.2 2.4-9 8.6-11.5 9.8v15.7h39.2V.6H.1zM44 26.8V10.6h4.3l3.4 5.9c1 1.7 1.9 3.7 2.6 5.5h.1a71 71 0 0 1-.3-6.8v-4.7h3.4v16.2h-3.8l-3.5-6.2c-1-1.7-2-3.8-2.8-5.7h-.1l.2 7.1v4.9H44zM64 22.1c.1 1.5 1.6 2.2 3.3 2.2 1.2 0 2.2-.2 3.2-.5l.5 2.5c-1.2.5-2.7.7-4.3.7-4 0-6.3-2.3-6.3-6 0-3 1.9-6.3 5.9-6.3 3.8 0 5.2 3 5.2 5.9l-.1 1.4H64v.1zm4.3-2.5c0-.9-.4-2.4-2-2.4-1.5 0-2.2 1.4-2.3 2.4h4.3zM77 15l.9 4.8.7 3.9h.1c.2-1.3.6-2.7.9-3.8l1.2-4.8h2.9l1.2 4.7.9 4h.1l.7-4 1-4.7h3.6l-3.6 11.7H84l-1.1-4.1-.8-3.7c-.2 1.5-.5 2.6-.8 3.6l-1.2 4.1h-3.4L73.3 15H77zM96.8 10.6h3.7v10.2c0 4.6-2.2 6.2-5.8 6.2-.9 0-2-.1-2.7-.4l.4-2.9c.5.2 1.2.3 1.9.3 1.5 0 2.5-.7 2.5-3.2V10.6zM106.9 22.1c.1 1.5 1.6 2.2 3.3 2.2 1.2 0 2.2-.2 3.2-.5l.5 2.5c-1.2.5-2.7.7-4.3.7-4 0-6.3-2.3-6.3-6 0-3 1.9-6.3 5.9-6.3 3.8 0 5.2 3 5.2 5.9l-.1 1.4h-7.4v.1zm4.3-2.5c0-.9-.4-2.4-2-2.4-1.5 0-2.2 1.4-2.3 2.4h4.3zM117.6 18.9l-.1-3.9h3.1l.1 2.2h.1a3.4 3.4 0 0 1 4-2.3v3.4l-1-.1c-1.3 0-2.3.7-2.5 1.9l-.1.8v5.9h-3.7v-7.9h.1zM127.5 23.6c.7.4 2.1.9 3.1.9 1.1 0 1.6-.4 1.6-1s-.4-.9-1.7-1.4c-2.4-.8-3.4-2.1-3.3-3.5 0-2.2 1.9-3.9 4.8-3.9a7 7 0 0 1 3.3.7l-.6 2.5c-.5-.3-1.6-.7-2.5-.7-.9 0-1.4.4-1.4.9 0 .6.5.9 1.9 1.4 2.2.8 3.2 1.9 3.2 3.6 0 2.2-1.7 3.8-5.1 3.8-1.5 0-2.9-.3-3.8-.8l.5-2.5zM141.5 22.1c.1 1.5 1.6 2.2 3.3 2.2 1.2 0 2.2-.2 3.2-.5l.5 2.5c-1.2.5-2.7.7-4.3.7-4 0-6.3-2.3-6.3-6 0-3 1.9-6.3 5.9-6.3 3.8 0 5.2 3 5.2 5.9l-.1 1.4h-7.4v.1zm4.3-2.5c0-.9-.4-2.4-2-2.4-1.5 0-2.2 1.4-2.3 2.4h4.3zM154.7 15l1.8 5.8.6 2.2h.1l.5-2.2 1.4-5.8h3.9l-2.7 7.7c-1.7 4.7-2.8 6.5-4.1 7.7a6.6 6.6 0 0 1-3.5 1.6l-.8-3.1 1.6-.6a3.6 3.6 0 0 0 1.7-2l-.2-.6-4.3-10.7h4zM90 39.3l.8-4 .2-1.5h1l-.1.6c.3-.4.8-.7 1.3-.7.8 0 1.3.7 1.3 1.5 0 1.4-.9 2.6-2.3 2.6l-.7-.2-.3 1.7H90zm1.7-2.6l.5.2c.6 0 1.1-.9 1.1-1.6 0-.3-.1-.6-.5-.6s-.8.5-1 1.2l-.1.8zM99.3 35.3c0 1.4-1 2.5-2.3 2.5-1 0-1.7-.6-1.7-1.6 0-1.4.9-2.5 2.3-2.5 1.1 0 1.7.7 1.7 1.6zm-2.8.8c0 .5.2.8.6.8.6 0 1-.9 1-1.6 0-.4-.2-.7-.6-.7-.7-.1-1 .9-1 1.5zM101.3 33.8v2.9l.5-1.2.8-1.7h.9l.1 1.6v1.3l.4-1.3.7-1.6h1.2l-1.9 3.9h-1.1l-.1-1.4v-1.2l-.5 1.2-.7 1.4h-1.1l-.4-3.9h1.2zM109.1 37.4a4 4 0 0 1-1.5.3c-1.1 0-1.7-.6-1.7-1.7 0-1.2.9-2.4 2.3-2.4.8 0 1.4.4 1.4 1.2 0 1-1 1.4-2.5 1.3l.1.4c.2.2.4.3.7.3l1.1-.2.1.8zm-1-2.9c-.5 0-.8.4-.9.8.9 0 1.3-.1 1.3-.5 0-.2-.1-.3-.4-.3zM110.1 37.7l.4-2.3.2-1.6h1l-.1.8c.3-.5.7-.9 1.2-.9h.2l-.2 1.1h-.2c-.7 0-1.1.7-1.2 1.4l-.3 1.5h-1zM116.6 37.4a4 4 0 0 1-1.5.3c-1.1 0-1.7-.6-1.7-1.7 0-1.2.9-2.4 2.3-2.4.8 0 1.4.4 1.4 1.2 0 1-1 1.4-2.5 1.3l.1.4c.2.2.4.3.7.3l1.1-.2.1.8zm-1-2.9c-.5 0-.8.4-.9.8.9 0 1.3-.1 1.3-.5 0-.2-.2-.3-.4-.3zM122.2 32l-.8 4.2-.2 1.5h-1.1l.1-.6c-.3.5-.8.7-1.3.7-.7 0-1.2-.5-1.2-1.5 0-1.4 1-2.6 2.5-2.6l.5.1.3-1.8h1.2zm-1.6 2.7l-.5-.1c-.7 0-1.2.8-1.2 1.5 0 .5.2.7.5.7s.7-.4.9-1.1l.3-1zM126.3 32l-.5 2.2c.3-.3.7-.6 1.2-.6.8 0 1.2.7 1.2 1.4 0 1.3-.8 2.7-2.6 2.7-.9 0-1.4-.4-1.4-1.1l.1-.7.8-4h1.2v.1zm-.8 4c0 .1-.1.3 0 .4 0 .3.2.4.4.4.7 0 1.1-.9 1.1-1.6 0-.4-.2-.7-.5-.7-.4 0-.8.4-1 1.1v.4zM130.2 33.8l.2 1.7.1.9.3-.9.7-1.7h1.2l-1.4 2.8c-.5 1-1 1.7-1.5 2.2-.5.4-1 .6-1.3.7l-.3-1 .7-.3c.3-.2.5-.4.6-.7v-.2l-.8-3.5h1.5zM135.4 34.5v-1.3h.7v.8c.2-.4.8-.9 1.5-.9.6 0 1.6.4 1.6 2v2.8h-.8v-2.7c0-.8-.3-1.4-1.1-1.4a1 1 0 0 0-1.1.9l-.1.4v2.8h-.8v-3.4h.1zM139.1 39.3c.4 0 .7-.1.9-.4.2-.3.3-.6.3-1.8v-3.9h.8v4.2c0 .9-.1 1.5-.6 1.9a2 2 0 0 1-1.4.5v-.5zm2.2-7.4c0 .3-.2.5-.5.5s-.5-.2-.5-.5.2-.5.5-.5.5.2.5.5zM146.2 35.5c0 1.7-1.2 2.5-2.3 2.5-1.3 0-2.2-.9-2.2-2.4 0-1.6 1-2.5 2.3-2.5 1.3 0 2.2 1 2.2 2.4zm-3.7.1c0 1 .6 1.8 1.4 1.8.8 0 1.4-.8 1.4-1.8 0-.8-.4-1.8-1.4-1.8-.9 0-1.4.9-1.4 1.8zM147.7 31.9c0 .3-.2.5-.5.5s-.5-.2-.5-.5.2-.5.5-.5.5.2.5.5zm-1 6v-4.7h.8v4.7h-.8zM149.5 31.9v1.3h1.2v.6h-1.2v2.5c0 .6.2.9.6.9l.5-.1v.6l-.8.1c-.4 0-.7-.1-.9-.4-.2-.3-.3-.7-.3-1.2v-2.5h-.7v-.6h.7V32l.9-.1z" fill="#fff"/>
</svg>
