<svg xmlns="http://www.w3.org/2000/svg" width="260" height="122" viewBox="0 0 260 122" fill="none">
<style>
  .a{
    fill:#B28B67;
  }
  .b{
    fill:#191847;
  }
  .c{
    fill:#997659;
  }
  .d{
    fill:#E4E4E4;
  }
  .e{
    fill:#DB2721;
  }
  .f{
    fill:#FF4133;
  }
</style>
  <path d="M23.4 26.8C44.7 8.3 95.8-17.5 128.7 16.9 161.5 51.2 188.2-13.9 218.4 18.8 248.7 51.5 251.7 97 218.4 113.9 185.1 130.7 152 116.5 113.6 101.5 75.2 86.5 62.7 136.7 27.6 104.4 -7.5 72 2.1 45.3 23.4 26.8Z" fill="#EDF5FA"/>
  <path d="M92.3 33.4C93.8 34 95.2 34.3 95.8 34 97.3 33.4 96.6 27.4 95.1 25.2 93.5 23 87.1 22.9 87.4 27.6 87.5 29.2 88.4 30.6 89.5 31.6L89 40.2 94 39.5 92.3 33.4Z" class="a"/>
  <path d="M92.7 22.9C92 22.8 91 22.9 90.6 23 90.7 22.4 90.7 21.7 90.5 21.1 90.4 20.4 90 20 89.7 19.4 89.6 19.2 89.4 19 89.2 18.8 88.9 18.6 88.7 18.5 88.4 18.5 88.1 18.5 87.8 18.5 87.6 18.6 87.5 18.6 87.4 18.7 87.2 18.8 87.1 18.8 87.1 18.7 87 18.7 86.7 18.5 86.4 18.5 86.1 18.5 85.8 18.5 85.5 18.6 85.2 18.7 85 18.9 84.7 19 84.6 19.3 84.5 19.4 84.4 19.6 84.4 19.7 84.4 19.7 84.4 19.8 84.3 19.8 84.3 19.8 84.2 19.8 84.2 19.9 83.7 20.1 83.4 20.5 83.2 21.1 83.1 21.4 83.1 21.9 83.2 22.4 83.3 23 84 24.4 84.6 24.9 85 25.3 85.7 25.5 86.3 25.6 86 26.1 85.8 26.7 85.7 27.3 85.6 28 85.5 28.6 85.6 29.3 85.6 29.9 85.7 30.6 85.9 31.2 86.2 31.8 86.5 32.2 87 32.4 87.3 32.5 87.5 32.6 87.8 32.7 88 32.7 88.3 32.8 88.5 32.8 89 32.8 89.6 32.8 89.9 32.3 90 32.2 90.1 32 90.2 31.8 90.2 31.7 90.2 31.7 90.2 31.6 90.1 31.6 90 31.5 89.9 31.5 89.5 31.2 89.2 30.8 89.1 30.3 89 29.8 89 29.1 89.5 28.9 90 28.5 90.7 28.7 91.3 28.9 91.4 28.1 91.8 27.3 92.4 26.8 93.2 26.3 94.1 26.1 94.9 25.7 95.1 25.5 95.3 25.4 95.4 25.2 95.5 25.1 95.5 25 95.5 24.9 95.5 24.7 95.4 24.6 95.4 24.5 94.9 24 93.4 23.1 92.7 22.9Z" class="b"/>
  <path d="M90.7 57.5L106.6 84.8 118.5 107.9H121L101.1 57.5 90.7 57.5Z" class="c"/>
  <path d="M118.8 106.9C117.8 106.9 116.7 107.1 116.6 108.1 116.6 108.2 116.5 108.2 116.5 108.3 116.5 108.9 116.7 110 116.7 110 117.4 110 128.8 110 128.8 110 128.8 110 129.2 108.4 128.2 108.3 127.2 108.2 126.6 108 126.6 108L121.7 105.8C121.2 105.6 120.6 105.8 120.4 106.4L120.3 106.5C120.3 106.5 119.4 106.9 118.8 106.9Z" class="d"/>
  <path d="M115.2 104.2L120.1 102.6C120.1 102.6 116.9 92.7 112.2 80.7 107.4 68.7 102 57.5 102 57.5H88.1C88.1 57.5 94.1 71.6 100.8 83.2 107.6 94.7 115.2 104.2 115.2 104.2Z" class="e"/>
  <path d="M89.7 57.5C88.2 67.1 85.3 79.4 85 79.7 84.9 80 78.3 82.2 65.4 86.5L66 88.8C81.4 86.5 89.5 84.8 90.3 83.5 91.5 81.6 97.7 66.7 100.1 57.5H89.7Z" class="a"/>
  <path d="M70 84.5L70.9 88.2C82.4 89.3 89.5 88.5 92.1 86 94.7 83.4 97.6 74 100.9 57.5H87.6C85.5 71 84.4 78 84.1 78.6 83.9 79.1 79.1 81.1 70 84.5Z" class="f"/>
  <path d="M66.2 87.5C66.1 86.5 65.7 85.3 64.7 85.4 64.6 85.4 64.6 85.4 64.6 85.4 64 85.5 63 85.9 63 85.9 63.1 86.6 65.1 98.1 65.1 98.1 65.1 98.1 66.7 98.3 66.6 97.3 66.6 96.2 66.5 95.5 66.5 95.5L67.8 90.2C68 89.6 67.6 89.1 67.1 89L66.9 88.9C66.9 88.9 66.3 88.1 66.2 87.5Z" class="d"/>
  <path d="M105.7 38.2L98.9 43.4 102 46 106.7 40.2C109.4 39.1 110.6 38.3 110.3 38 110 37.7 109.7 37.7 109.4 37.8 109.2 37.8 108.9 37.9 108.8 37.7 108.4 37.4 108.9 36.2 109.3 35 109.7 33.9 109.1 34.1 108.8 34.3 107.7 35.3 106.7 36.6 105.7 38.2ZM113.9 43L110.9 45.3 111.5 48.6C111.5 48.6 113.4 46.7 115.1 46 117.3 45 118.2 44.4 119.1 42.7 119.6 41.9 119.9 40.2 119.2 39.8 119 39.6 118.2 40.2 117.5 40.8 116.9 41.2 116.3 41.7 115.9 41.8 115.4 42 115.4 41.3 115.3 40.7 115.3 40.3 115.3 40 115.1 40.1 114.2 40.3 113.9 43 113.9 43Z" class="c"/>
  <path d="M95.2 43C97.8 42.6 101.1 41.6 104.4 38.7L106.3 41.8C104.2 44.7 100.9 47.3 97.8 47.6 95.4 47.9 93.7 45 95.2 43Z" fill="#2026A2"/>
  <path d="M91.5 66.5C89 66.5 86.7 66.6 85.4 67 83.2 62.2 84 58.9 84.7 55.9 85.2 54 85.6 52.3 85.3 50.3 84.5 44.7 87.7 35.5 88.3 35.4L88.5 35.4 93.6 34.7 94.2 34.6C95 38 96.6 41.6 98.3 45.2 98.6 46.1 99 46.9 99.4 47.8 103.8 48.2 112.8 43.4 112.8 43.4 112.8 43.4 115.9 48.1 116 50.3 110.9 54.1 106.4 56 102.5 56.7 103 59 103 61.3 102.4 63.5 101.5 66.5 96.1 66.5 91.5 66.5Z" fill="#1F28CF"/>
  <path d="M155.2 33.5C153.9 34.5 152.6 35.1 151.9 35 150.3 34.7 149.4 28.8 150.4 26.3 151.3 23.8 157.5 22 158.4 26.6 158.7 28.2 158.2 29.8 157.4 31.1L160.1 39.2 155.1 39.8 155.2 33.5Z" class="a"/>
  <path d="M152.9 23.3C153.6 23.1 155.4 22.8 155.7 22.7 155.9 22.7 156.2 22.7 156.3 22.5 156.4 22.4 156.3 22.1 156.3 21.9 156.3 21.7 156.3 21.4 156.3 21.2 156.4 20.6 156.6 20 156.8 19.4 157.3 18.3 158 17.4 159 16.7 160.1 16.1 161.5 15.8 162.8 15.7 164.1 15.7 165.4 16 166.8 16.3 168 16.5 169.3 16.5 170.6 16.2 171.9 15.8 172.8 15 173.8 14.2 174.8 13.3 176 12.7 177.3 12.7 178.6 12.6 179.8 13 180.9 13.6 181.9 14.1 182.8 14.8 183.4 15.8 184 17 184.2 18.3 183.5 19.4 182.6 21.1 180.5 21.7 178.7 21.9 177.7 22 176.7 21.9 175.7 21.7 174.4 21.4 173.2 20.7 171.9 20.3 171.3 20 170.7 19.9 170 19.8 169.4 19.7 168.8 19.7 168.3 20.1 167.8 20.5 167.4 21 166.7 21.3 166.2 21.6 165.5 21.8 164.8 21.9 163.6 22 162.2 21.8 161 21.7 159.9 21.6 158.8 21.5 157.8 21.8 157.4 22 156.7 22.2 156.6 22.7 159.3 22.9 160.8 26.1 160.3 28.6 160.1 30 157.9 31.8 156.9 31.3 156.2 30.9 156.5 30.3 156.7 29.9 157 29.1 157.1 28.1 156.2 27.7 155.4 27.4 154.8 28.5 154.8 28.5 154.6 28.5 152.8 27.7 151.4 26.4 150.3 26.7 150 25.9 150.2 25.2 150.4 24.6 152 23.6 152.9 23.3Z" class="b"/>
  <path d="M166.1 57.6C165.7 62.9 141 78.8 140.8 79.2 140.7 79.5 148.5 97.9 148.5 97.9L146.4 98.8C146.4 98.8 134.4 79.3 135 77.2 135.9 74.2 154.2 57.6 154.2 57.6L166.1 57.6Z" class="a"/>
  <path d="M147.9 95.1L144.4 96.5C137 87.8 134 80.7 134.6 77.1 135.1 73.5 153.7 57.6 153.7 57.6L166.4 57.6C165.9 70 143 79.2 142.7 79.8 142.4 80.3 145.4 85.5 147.9 95.1Z" fill="#2F3676"/>
  <path d="M147.6 98.3C148.5 97.9 149.7 97.7 150.1 98.6 150.1 98.7 150.1 98.7 150.1 98.7 150.3 99.3 150.5 100.4 150.5 100.4 149.9 100.7 139.2 104.6 139.2 104.6 139.2 104.6 138.3 103.3 139.2 102.8 140.1 102.4 140.7 102 140.7 102L144.5 98.3C144.9 97.9 145.5 97.9 145.9 98.3L146 98.4C146 98.4 147 98.5 147.6 98.3Z" class="d"/>
  <path d="M163.3 57.6L174.3 84.7 185.2 107.6H182.6L154.6 57.6H163.3Z" class="c"/>
  <path d="M183.4 106.7C184.4 106.7 185.5 106.9 185.7 107.9 185.7 107.9 185.7 108 185.7 108 185.7 108.6 185.5 109.8 185.5 109.8 184.8 109.8 173.4 109.8 173.4 109.8 173.4 109.8 173 108.2 174 108 175 107.9 175.7 107.8 175.7 107.8L180.5 105.6C181 105.4 181.6 105.6 181.8 106.1L181.9 106.3C181.9 106.3 182.8 106.7 183.4 106.7Z" class="d"/>
  <path d="M184.2 102.9L178.5 104C174.1 97.3 155.7 70.2 153.7 57.6H166.3C173.1 66.7 180 96.1 184.2 102.9Z" fill="#5C63AB"/>
  <path d="M135.7 50.9L143.8 53.4 141.7 56.9 135.4 53.1C132.5 52.9 131.1 52.6 131.2 52.2 131.4 51.9 131.7 51.8 132 51.8 132.2 51.7 132.4 51.7 132.5 51.5 132.8 51.1 132 50.1 131.2 49.2 130.3 48.2 131 48.2 131.4 48.3 132.7 48.8 134.1 49.7 135.7 50.9ZM170.7 52L174.9 50.6C178.8 58.1 181.1 62.3 181.8 63 182.2 63.5 185 64.6 186.8 65.2 187.5 65.4 187.5 66 187.3 66.2 186.1 67.6 184.9 67.3 183.5 67 183.1 66.9 182.7 66.8 182.3 66.8 181.3 66.6 181 67.2 180.8 67.8 180.6 68.3 180.4 68.7 179.6 68.6 179.6 68.5 179.7 68.3 179.7 68.1 179.8 67 180 65.3 179.3 64.4 178.9 63.9 176 59.8 170.7 52Z" class="a"/>
  <path d="M156.7 35.9L154.8 35.8C151.3 40.3 150.9 50 148.4 51.6 146 53.1 142.3 52.4 137.9 51.3L137 54.5C141.3 58.2 150 60.8 153 58.4 157.9 54.4 157.7 42.6 156.7 35.9Z" class="e"/>
  <path d="M167.6 58.5C167.6 58.5 156.6 59.9 151.4 60.5 150.7 60.6 150.7 59.5 150.7 58.9 151.1 52.4 155.1 44.9 154 35.9L158.6 34.5C163.2 40.4 165.5 48.1 167.6 58.5Z" fill="#DDE3E9"/>
  <path d="M158.8 34.5L158.9 34.5C170.2 39.8 177.8 49.3 181.7 62.9L178.4 64C175.8 61.6 172.5 57.5 168.4 51.9 169.9 55.4 171.1 59.1 171.8 62.6L157.2 64.4C153.4 57.4 157 34.7 157 34.7L158.1 34.6 158.8 34.5Z" class="f"/>
</svg>
