<svg xmlns="http://www.w3.org/2000/svg" width="260" height="141" viewBox="0 0 260 141" fill="none">
<style>
  .a{
    fill:#EDF5FA;
  }
  .b{
    stroke-width:2;
    stroke:#B9DEFC;
  }
  .c{
    stroke-width:2;
    stroke:#607D8B;
  }
  .d{
    fill:#37474F;
  }
  .e{
    fill:#FFC107;
  }
</style>
  <path d="M23.4 26.8C44.7 8.3 95.8-17.5 128.7 16.9 161.5 51.2 188.2-13.9 218.4 18.8 248.7 51.5 251.7 97 218.4 113.9 185.1 130.7 152 116.5 113.6 101.5 75.2 86.5 62.7 136.7 27.6 104.4 -7.5 72 2.1 45.3 23.4 26.8Z" class="a"/>
  <g opacity="0.636486">
    <rect x="75" width="80" height="105" fill="#90CAF9"/>
    <path d="M105.5 24.3C105.5 27.7 102.7 30.5 99.3 30.5 95.8 30.5 93 27.7 93 24.3 93 20.8 95.8 18 99.3 18 102.7 18 105.5 20.8 105.5 24.3ZM110.5 38.8C110.5 38.8 107.4 33 99.3 33 91.1 33 88 38.8 88 38.8V43H110.5V38.8ZM120.5 23H143V28H120.5V23ZM143 35.5H120.5V40.5H143V35.5ZM130.5 58H143V63H130.5V58ZM143 70.5H130.5V75.5H143V70.5ZM88 63V58H123V63H88ZM143 83H130.5V88H143V83ZM88 70.5H115.5V75.5H88V70.5Z" fill="#1976D2"/>
  </g>
  <rect x="173" y="36" width="80" height="105" style="fill:#90CAF9;opacity:0.613281"/>
  <path d="M203.5 60.3C203.5 63.7 200.7 66.5 197.3 66.5 193.8 66.5 191 63.7 191 60.3 191 56.8 193.8 54 197.3 54 200.7 54 203.5 56.8 203.5 60.3ZM208.5 74.8C208.5 74.8 205.4 69 197.3 69 189.1 69 186 74.8 186 74.8V79H208.5V74.8ZM228.5 94H241V99H228.5V94ZM241 106.5H228.5V111.5H241V106.5ZM186 99V94H221V99H186ZM241 119H228.5V124H241V119ZM186 106.5H213.5V111.5H186V106.5Z" style="fill:#1976D2;opacity:0.613281"/>
  <path d="M173 36H221V55.9H207.6V64H173V36Z" class="a"/>
  <path d="M174.5 66.2V42.5" class="b"/>
  <path d="M222.6 48H199" class="b"/>
  <path d="M178.5 66.2V50" class="b"/>
  <path d="M222.6 44H206.5" class="b"/>
  <path d="M183.5 66.2V50" class="b"/>
  <path d="M222.6 39H206.5" class="b"/>
  <path d="M173 59.5H219" class="b"/>
  <path d="M216.5 55.9V36" class="b"/>
  <path d="M58 69V48H72V34" style="stroke-linejoin:bevel;stroke-width:2;stroke:#607D8B"/>
  <path d="M80 96.4C80 98.9 82 101 84.5 101 87 101 89 98.9 89 96.4 89 94.7 88.1 93.2 86.9 92.4 85.4 91.5 84.5 89.8 84.5 88V29" class="c"/>
  <path d="M86.8 88H82.3C81 88 80 86.9 80 85.5 80 84.1 81 83 82.3 83H86.8C88 83 89 84.1 89 85.5 89 86.9 88 88 86.8 88Z" class="d"/>
  <path d="M44 61.2L76.9 29H84V29.3L53.4 75" class="c"/>
  <rect x="17" y="88" width="32" height="9" fill="#FB8C00"/>
  <path d="M12.9 117.6C7.1 117.6 2.3 112.9 2.3 107 2.3 101.1 7.1 96.4 12.9 96.4H55.1C60.9 96.4 65.7 101.1 65.7 107 65.7 112.9 60.9 117.6 55.1 117.6H12.9Z" class="d"/>
  <path d="M12.9 94H55.1C62.2 94 68 99.9 68 107 68 114.2 62.2 120 55.1 120H12.9C5.8 120 0 114.2 0 107 0 99.9 5.8 94 12.9 94ZM63.3 107C63.3 102.4 59.6 98.7 55.1 98.7H12.9C8.4 98.7 4.7 102.4 4.7 107 4.7 111.6 8.4 115.3 12.9 115.3H55.1C59.6 115.3 63.3 111.6 63.3 107Z" fill="#607D8B"/>
  <path d="M12.5 103C10.6 103 9 104.6 9 106.5 9 108.4 10.6 110 12.5 110 14.4 110 16 108.4 16 106.5 16 104.6 14.4 103 12.5 103Z" class="e"/>
  <path d="M26.5 103C24.6 103 23 104.6 23 106.5 23 108.4 24.6 110 26.5 110 28.4 110 30 108.4 30 106.5 30 104.6 28.4 103 26.5 103Z" class="e"/>
  <path d="M40.5 103C38.6 103 37 104.6 37 106.5 37 108.4 38.6 110 40.5 110 42.4 110 44 108.4 44 106.5 44 104.6 42.4 103 40.5 103Z" class="e"/>
  <path d="M54.5 103C52.6 103 51 104.6 51 106.5 51 108.4 52.6 110 54.5 110 56.4 110 58 108.4 58 106.5 58 104.6 56.4 103 54.5 103Z" class="e"/>
  <path d="M6 59.7V85.3C6 87.9 8.1 90 10.7 90 10.7 90 30.6 90 40.5 90 44.8 90 53.3 90 53.3 90 55.9 90 58 87.9 58 85.3V78.6C58 76.9 57.4 75.3 56.4 74L43.5 57.6C42.2 55.9 40.2 55 38.2 55H10.7C8.1 55 6 57.1 6 59.7Z" class="e"/>
  <path d="M36.4 77.6L30.4 56.4H38.4C39.8 56.4 41 57 41.8 58.1L54.6 74.7C55.2 75.5 55.6 76.6 55.7 77.6H36.4Z" fill="#BBDEFB"/>
  <path d="M27.3 54H38.4C40.5 54 42.4 55 43.7 56.6L56.4 73.2C57.4 74.6 58 76.2 58 77.9V80H34.7L27.3 54ZM40 59.5C39.6 59 39 58.7 38.4 58.7H33.5L38.2 75.3H52.1L40 59.5Z" class="d"/>
  <path d="M112.6 84L59 100.4 61.3 108 114.9 91.7 112.6 84Z" fill="url(#paint0_linear)"/>
  <path d="M84.5 101C87 101 89 98.9 89 96.4 89 94.7 88.1 93.2 86.9 92.4 85.4 91.5 84.5 89.8 84.5 88" class="c"/>
  <defs>
    <linearGradient x1="61.3" y1="108" x2="114.9" y2="91.7" gradientUnits="userSpaceOnUse">
      <stop stop-color="#36AEEB"/>
      <stop offset="1" stop-color="#1976D2"/>
    </linearGradient>
  </defs>
</svg>
