<svg width="800" height="600" viewBox="0 0 800 600" fill="none" xmlns="http://www.w3.org/2000/svg">
<rect width="800" height="600" fill="white"/>
<path fill-rule="evenodd" clip-rule="evenodd" d="M211.566 445.161C335.715 539.705 519.389 547.543 628.682 465.678C737.974 383.812 693.727 227.771 536.5 131.842C379.273 35.9117 108.841 74.7588 117.189 179.422C129.568 334.633 205.251 231.821 220.535 268.542C235.819 305.263 89.842 352.464 211.566 445.161Z" fill="#F3F6FB"/>
<mask id="mask0" mask-type="alpha" maskUnits="userSpaceOnUse" x="117" y="77" width="572" height="445">
<path fill-rule="evenodd" clip-rule="evenodd" d="M211.566 445.161C335.715 539.705 519.389 547.543 628.682 465.678C737.974 383.812 693.727 227.771 536.5 131.842C379.273 35.9117 108.841 74.7588 117.189 179.422C129.568 334.633 205.251 231.821 220.535 268.542C235.819 305.263 89.842 352.464 211.566 445.161Z" fill="white"/>
</mask>
<g mask="url(#mask0)">
<g opacity="0.720982">
<path d="M287.262 240.149C287.262 199.004 320.617 165.649 361.762 165.649H667.535V457.5H287.262V240.149Z" fill="url(#paint0_linear)" stroke="white"/>
<rect x="276" y="332.712" width="442" height="66.8715" fill="#F3F6FB"/>
<path d="M443.576 248.546H671.744" stroke="#E7EDF7" stroke-width="10"/>
<path fill-rule="evenodd" clip-rule="evenodd" d="M364.016 318.108C407.955 318.108 443.576 282.49 443.576 238.554C443.576 194.618 407.955 159 364.016 159C320.076 159 284.456 194.618 284.456 238.554C284.456 282.49 320.076 318.108 364.016 318.108Z" fill="url(#paint1_linear)" stroke="#F3F6FB" stroke-width="10"/>
<path d="M366.706 236.632L302.904 287.363" stroke="#F3F6FB" stroke-width="12"/>
<path d="M363.631 159.769V239.223L425.127 289.668" stroke="#F3F6FB" stroke-width="12"/>
<path fill-rule="evenodd" clip-rule="evenodd" d="M363.631 268.915C380.613 268.915 394.379 255.15 394.379 238.17C394.379 221.189 380.613 207.424 363.631 207.424C346.65 207.424 332.883 221.189 332.883 238.17C332.883 255.15 346.65 268.915 363.631 268.915Z" fill="#D9E4F2" stroke="#F3F6FB" stroke-width="10"/>
<path d="M287.915 355.994V337.801" stroke="#B9DEFC" stroke-width="2"/>
<path d="M325.554 342.001H306.336" stroke="#B9DEFC" stroke-width="2"/>
<path d="M290.989 355.994V343.565" stroke="#B9DEFC" stroke-width="2"/>
<path d="M324.916 338.926H312.486" stroke="#B9DEFC" stroke-width="2"/>
<path d="M294.833 355.994V343.565" stroke="#B9DEFC" stroke-width="2"/>
<path d="M324.916 335.083H312.486" stroke="#B9DEFC" stroke-width="2"/>
<path d="M286.762 350.867H322.122" stroke="#B9DEFC" stroke-width="2"/>
<path d="M320.2 348.123V332.804" stroke="#B9DEFC" stroke-width="2"/>
</g>
<path d="M235.308 153.158V103.868H268.385V71.0082" stroke="#607D8B" stroke-width="2" stroke-linejoin="bevel"/>
<path d="M202.231 134.732L279.516 59.4918H296.077V60.1636L224.312 166.978" stroke="#607D8B" stroke-width="2"/>
<rect x="138.385" y="197.688" width="75.3846" height="359.311" fill="url(#paint2_linear)"/>
<path fill-rule="evenodd" clip-rule="evenodd" d="M113 131.098V191.342C113 197.393 117.976 202.295 124.119 202.295H224.189C230.332 202.295 235.308 197.393 235.308 191.342V175.448C235.308 171.554 233.99 167.765 231.561 164.692L201.156 126.18C198.148 122.374 193.528 120.145 188.631 120.145H124.119C117.976 120.145 113 125.046 113 131.098Z" fill="#FFC107"/>
<path fill-rule="evenodd" clip-rule="evenodd" d="M184.579 173.748L170.479 124.123H189.248C192.408 124.123 195.333 125.562 197.269 128.066L227.286 166.839C228.811 168.819 229.7 171.251 229.816 173.748H184.579Z" fill="#BBDEFB"/>
<path fill-rule="evenodd" clip-rule="evenodd" d="M163.198 118.609H189.243C194.077 118.609 198.636 120.853 201.604 124.686L231.61 163.459C234.008 166.553 235.308 170.368 235.308 174.289V179.262H180.442L163.198 118.609ZM192.941 131.457C192.047 130.299 190.697 129.637 189.243 129.637H177.743L188.716 168.234H221.405L192.941 131.457Z" fill="#37474F"/>
<path d="M407.231 391.937C407.231 397.958 411.878 402.834 417.616 402.834C423.353 402.834 428 397.958 428 391.937C428 388.019 426.032 384.587 423.078 382.669C419.692 380.462 417.616 376.604 417.616 372.42V-15" stroke="#607D8B" stroke-width="2"/>
<path fill-rule="evenodd" clip-rule="evenodd" d="M421.808 372.093H411.423C408.567 372.093 406.231 369.502 406.231 366.335C406.231 363.168 408.567 360.577 411.423 360.577H421.808C424.664 360.577 427 363.168 427 366.335C427 369.502 424.664 372.093 421.808 372.093Z" fill="#37474F"/>
</g>
<g filter="url(#filter0_d)">
<path d="M189.737 426.647L594.69 333.175L608.022 390.91L203.069 484.383L189.737 426.647Z" fill="black" fill-opacity="0.01"/>
</g>
<g style="mix-blend-mode:multiply">
<path fill-rule="evenodd" clip-rule="evenodd" d="M307.015 516.213C461.88 544.364 630.556 467.105 691.314 343.211C752.072 219.316 640.872 99.1054 455.642 84.8916C270.412 70.6778 45.1291 229.804 100.543 320.226C182.719 454.319 203.679 326.989 234.227 353.042C264.774 379.094 155.176 488.613 307.015 516.213Z" fill="#F3F6FB"/>
</g>
<path opacity="0.853539" d="M210.347 465.237L605.613 336.826L623.926 393.18L228.66 521.591L210.347 465.237Z" fill="url(#paint3_linear)"/>
<path fill-rule="evenodd" clip-rule="evenodd" d="M220.968 458.109L229.412 483.999L218.135 489.002L218.642 490.626L210.375 465.277L207 467.386L225.464 524L228.839 521.891L220.497 496.312L231.794 491.301L239.432 514.723L242.807 512.614L235.343 489.727L258 479.677L255.707 472.336L232.961 482.425L224.343 456L220.968 458.109Z" fill="url(#paint4_linear)"/>
<path d="M224.201 456.003L619.467 327.592L637.78 383.945L242.514 512.356L224.201 456.003Z" fill="url(#paint5_linear)"/>
<path d="M239 514L251.787 509.859L635.841 385.495L638 384L242.35 511.909L239 514Z" fill="url(#paint6_linear)"/>
<path d="M226 523L238.787 518.859L622.841 394.495L625 393L229.35 520.909L226 523Z" fill="url(#paint7_linear)"/>
<path d="M427.472 389C427.472 389 429.453 395.883 424 399" stroke="#607D8B" stroke-width="2"/>
<defs>
<filter id="filter0_d" x="164.737" y="310.175" width="468.285" height="201.208" filterUnits="userSpaceOnUse" color-interpolation-filters="sRGB">
<feFlood flood-opacity="0" result="BackgroundImageFix"/>
<feColorMatrix in="SourceAlpha" type="matrix" values="0 0 0 0 0 0 0 0 0 0 0 0 0 0 0 0 0 0 127 0"/>
<feOffset dy="2"/>
<feGaussianBlur stdDeviation="12.5"/>
<feColorMatrix type="matrix" values="0 0 0 0 0 0 0 0 0 0 0 0 0 0 0 0 0 0 0.251229 0"/>
<feBlend mode="normal" in2="BackgroundImageFix" result="effect1_dropShadow"/>
<feBlend mode="normal" in="SourceGraphic" in2="effect1_dropShadow" result="shape"/>
</filter>
<linearGradient id="paint0_linear" x1="286.762" y1="165.149" x2="286.762" y2="458" gradientUnits="userSpaceOnUse">
<stop stop-color="#8AC9F9"/>
<stop offset="1" stop-color="#5298F1"/>
</linearGradient>
<linearGradient id="paint1_linear" x1="284.456" y1="159" x2="284.456" y2="318.108" gradientUnits="userSpaceOnUse">
<stop stop-color="#2880F1"/>
<stop offset="1" stop-color="#D9E4F2"/>
</linearGradient>
<linearGradient id="paint2_linear" x1="138.385" y1="197.688" x2="138.385" y2="557" gradientUnits="userSpaceOnUse">
<stop stop-color="#8B8B8B"/>
<stop offset="1" stop-color="#E6E6E6"/>
</linearGradient>
<linearGradient id="paint3_linear" x1="228.663" y1="521.608" x2="623.926" y2="393.18" gradientUnits="userSpaceOnUse">
<stop stop-color="#36AEEB"/>
<stop offset="1" stop-color="#1976D2"/>
</linearGradient>
<linearGradient id="paint4_linear" x1="207" y1="524" x2="258" y2="524" gradientUnits="userSpaceOnUse">
<stop stop-color="#36AEEB"/>
<stop offset="1" stop-color="#1976D2"/>
</linearGradient>
<linearGradient id="paint5_linear" x1="242.517" y1="512.374" x2="637.78" y2="383.945" gradientUnits="userSpaceOnUse">
<stop stop-color="#36AEEB"/>
<stop offset="1" stop-color="#1976D2"/>
</linearGradient>
<linearGradient id="paint6_linear" x1="239" y1="514" x2="638" y2="514" gradientUnits="userSpaceOnUse">
<stop stop-color="#1976D2"/>
<stop offset="1" stop-color="#36AEEB"/>
</linearGradient>
<linearGradient id="paint7_linear" x1="226" y1="523" x2="625" y2="523" gradientUnits="userSpaceOnUse">
<stop stop-color="#1976D2"/>
<stop offset="1" stop-color="#36AEEB"/>
</linearGradient>
</defs>
</svg>
