<svg xmlns="http://www.w3.org/2000/svg" width="800" height="600" viewBox="0 0 800 600" fill="none">
<style>
  .a{
    fill:white;
  }
  .b{
    fill:#F3F6FB;
  }
  .c{
    mix-blend-mode:multiply;
  }
  .d{
    fill:#D9E4F2;
  }
  .e{
    stroke-dasharray:10;
    stroke:#F8C42D;
  }
  .f{
    stop-opacity:0.01;
  }
</style>
  <rect width="800" height="600" class="a"/>
  <path d="M194.6 182.8C317 89.5 498.2 81.8 606 162.5 713.8 243.3 670.1 397.2 515.1 491.8 360 586.4 93.3 548.1 101.5 444.9 113.7 291.8 188.4 393.2 203.4 357 218.5 320.8 74.5 274.2 194.6 182.8Z" class="b"/>
  <g class="c">
    <path d="M267 107.8C413.6 80.6 580.7 158.5 647.6 282.2 714.5 405.9 616.3 524.9 439.7 538 263.1 551.1 36 391.4 82.8 301.7 152.2 168.7 181.2 295.6 208.6 269.8 236.1 244 123.4 134.4 267 107.8Z" class="b"/>
  </g>
  <mask id="mask0" mask-type="alpha" maskUnits="userSpaceOnUse" x="76" y="102" width="593" height="437">
    <g class="c">
      <path d="M267 107.8C413.6 80.6 580.7 158.5 647.6 282.2 714.5 405.9 616.3 524.9 439.7 538 263.1 551.1 36 391.4 82.8 301.7 152.2 168.7 181.2 295.6 208.6 269.8 236.1 244 123.4 134.4 267 107.8Z" class="a"/>
      <path d="M267 107.8C413.6 80.6 580.7 158.5 647.6 282.2 714.5 405.9 616.3 524.9 439.7 538 263.1 551.1 36 391.4 82.8 301.7 152.2 168.7 181.2 295.6 208.6 269.8 236.1 244 123.4 134.4 267 107.8Z" stroke="white"/>
    </g>
  </mask>
  <g mask="url(#mask0)">
    <rect x="300" y="361" width="117" height="196" fill="#2B85F5"/>
    <rect x="460" y="466" width="117" height="91" fill="#A7BC33"/>
    <rect x="141" y="275" width="117" height="282" fill="#C2DC53"/>
  </g>
  <path d="M331.6 122.6L321.6 137.4 315.2 140.9 318.5 144C318.5 144 316.9 153.9 320.2 157.2 323.4 160.5 329.2 160.1 329.2 160.1L345 176.9C345 176.9 359.8 163.1 359.8 160.1 359.8 157.2 342.9 123.1 341.4 122.6 339.9 122 331.6 122.6 331.6 122.6ZM311.4 165.8C311.4 165 311.6 164.2 311.7 163.4 312.3 160.6 312.7 158.4 305 156.6 295.2 154.2 294.3 165.6 294.3 165.6L285.1 203.5C285.1 203.5 302.1 215.8 302.8 214.3 303 213.8 302.9 210.1 302.7 205.1 302.4 195.3 301.9 180.7 303.6 176.8 304.8 173.9 306.7 172.2 308.3 170.7 310 169.1 311.4 167.9 311.4 165.8ZM426.2 243L428.5 185.9H410.4C410.4 185.9 414.3 206.5 414.3 211 414.3 213.9 413.8 221.1 413.5 226.4 413.3 229.3 413.1 231.6 413.1 232.2 413.1 233.6 426.2 243 426.2 243Z" fill="#FFC4AF"/>
  <path d="M390.3 183.7C392.1 183.7 406.3 183.7 406.3 183.7 406.3 183.7 410 191.9 408.1 194.5 406.3 197 429 198.9 430.8 194.5 432.6 190 427.9 168.4 427.9 168.4 427.9 168.4 403.3 162 401.6 162 399.9 162 384.2 173.8 384.2 173.8 384.2 173.8 388.5 183.7 390.3 183.7Z" fill="#245EA5"/>
  <path d="M385.6 245C391.9 246.1 397.1 247 400 247 404.2 247 407.7 254 410.5 262.4L460.7 261.3V274.5C460.7 280 454.8 285 454.8 285 454.8 285 465.5 313.7 473.5 321.9 475.5 324.1 478.4 326.6 481.6 329.3 490.8 337.2 502.6 347.3 505.1 358 508.3 372.4 524 401 524 401L505.1 405.5C505.1 405.5 468.2 349.7 454.8 346 446.4 343.7 427.4 312.2 414.1 288.6L359.8 280 392 342.3 367.7 334.8C367.7 334.8 361.7 312.7 343.7 296.8 325.6 280.9 303 249.5 328 243 345.9 238.3 369.7 242.3 385.6 245Z" class="d"/>
  <g style="mix-blend-mode:multiply;opacity:0.234282">
    <path d="M409.2 264.6C409.2 264.6 460.6 279.9 460.6 268 460.6 256.1 462.3 261.3 462.3 261.3L409.2 264.6Z" class="d"/>
  </g>
  <path d="M349.6 172.6C325.9 190.3 303 219.5 303 219.5 303 219.5 306.7 200.4 303 204.6 298.4 206.6 273.4 179.4 285.2 221.4 288.2 230.3 289.8 235.4 293 237 303 241.9 318.3 228.7 327.7 221.4 340.5 211.5 339.4 211.2 339.4 211.2 339.4 211.2 341.4 218.1 343.9 221.7 346.4 225.2 345.8 234.3 366.2 237.8 386.5 241.2 390 261.9 396.2 265.5 402.5 269.2 403.7 262 420.9 269.2 438.1 276.4 445.4 260.1 457 262.1 468.6 264.2 475 248 475 248 475 248 424.7 236 413.7 223.6 402.7 211.2 394.5 171.9 388.9 170 383.4 168 373.4 154.9 349.6 172.6Z" fill="url(#paint0_linear)"/>
  <path d="M383.5 331.2C384.3 330.4 385.7 330.4 386.5 331.3 387.9 332.9 389.8 335.3 390.5 336.9 391.4 339.5 392.4 344.6 392.4 344.6 390.7 345.3 376.7 350.7 350.4 360.8 347 362 337.4 360.8 337.4 360.8 337.4 360.8 332.7 354.8 337 352.6 341.2 350.3 346.3 352.8 346.3 352.8L366.6 332.5C367 332.1 367.6 332.1 368 332.5L371.1 335.7C371.1 335.7 375.9 336.1 378.5 335.1 380 334.5 382.1 332.6 383.5 331.2Z" class="a"/>
  <path d="M519.5 399.2C520.3 398.4 521.7 398.4 522.5 399.3 523.9 400.9 525.8 403.3 526.5 404.9 527.4 407.5 528.4 412.6 528.4 412.6 526.7 413.3 512.7 418.7 486.4 428.8 483 430 476.8 432.9 476.8 432.9 476.8 432.9 472.1 426.9 476.3 424.6 480.5 422.4 482.3 420.8 482.3 420.8L502.6 400.5C503 400.1 503.6 400.1 504 400.5L507.1 403.7C507.1 403.7 511.9 404.1 514.5 403.1 516 402.5 518.1 400.6 519.5 399.2Z" class="a"/>
  <path d="M336.5 162C340.6 162 344 158.6 344 154.5 344 150.4 340.6 147 336.5 147 332.4 147 329 150.4 329 154.5 329 158.6 332.4 162 336.5 162Z" stroke="url(#paint1_linear)"/>
  <path d="M223 471C278.2 471 323 426.2 323 371 323 315.8 278.2 271 223 271 167.8 271 123 315.8 123 371 123 426.2 167.8 471 223 471Z" stroke="url(#paint2_linear)"/>
  <path d="M463.9 191.9C461 137.8 414.9 96.3 360.9 99.1 306.8 102 265.3 148.1 268.1 202.1 271 256.2 317.1 297.7 371.1 294.9 425.2 292 466.7 245.9 463.9 191.9Z" stroke="url(#paint3_linear)"/>
  <g style="mix-blend-mode:multiply;opacity:0.291178">
    <path d="M331 137.7C331 137.7 333.8 127.8 352.5 126.7 371.2 125.5 363.9 146.7 390.9 137.7 417.9 128.6 427 121.3 440.7 125 454.4 128.6 459.8 137.1 465.3 164.6 470.7 192.1 427.9 154.4 427.9 159.2 427.9 164.1 430.3 185.2 430.3 185.2 412.4 173.9 396.1 192.5 371.2 189.5 346.3 186.5 334.5 164.6 334.5 164.6L338.5 151.6C338.5 151.6 339.3 148.6 336 145.6 332.6 142.6 331 137.7 331 137.7Z" fill="url(#paint4_linear)"/>
  </g>
  <path d="M328 124.7C328 124.7 330.8 114.8 349.5 113.7 368.2 112.5 360.9 133.7 387.9 124.7 414.9 115.6 424 108.3 437.7 112 451.4 115.6 456.8 124.1 462.3 151.6 467.7 179.1 480.7 174.8 480.7 179.6 480.7 184.5 443.2 182.8 425.4 171.6 407.5 160.4 393.1 179.5 368.2 176.5 343.3 173.5 331.5 151.6 331.5 151.6L335.5 138.6C335.5 138.6 336.3 135.6 333 132.6 329.6 129.6 328 124.7 328 124.7Z" fill="url(#paint5_linear)"/>
  <path d="M371.6 377C371.6 377 365.5 397.3 382.3 406.2 399.1 415 443.3 400.7 454.7 420.8 466.2 441 466 460.1 466 460.1" class="e"/>
  <path d="M513.7 424C513.7 424 511.1 432.8 518.4 436.7 525.8 440.5 545.1 434.3 550.1 443.1 555.1 451.8 555.1 460.1 555.1 460.1" class="e"/>
  <path d="M339.7 211L350.8 201.5C350.8 201.5 349.4 209.1 353.6 219.3 357.7 229.4 365.4 237 365.4 237 365.4 237 351 234 348.4 229.8 345.8 225.7 339.7 212.3 339.7 212.3" fill="#2A74AF"/>
  <path d="M327.9 222.1L353.7 198.8" stroke="#E7EDF7"/>
  <defs>
    <linearGradient id="paint0_linear" x1="239.9" y1="199.3" x2="282.5" y2="318.4" gradientUnits="userSpaceOnUse">
      <stop stop-color="#2880F1"/>
      <stop offset="1" stop-color="#336AB0"/>
    </linearGradient>
    <linearGradient id="paint1_linear" x1="326.8" y1="150.5" x2="333.8" y2="163.9" gradientUnits="userSpaceOnUse">
      <stop stop-color="white" class="f"/>
      <stop offset="0.688606" stop-color="white"/>
    </linearGradient>
    <linearGradient id="paint2_linear" x1="93.9" y1="317.3" x2="186.5" y2="496.3" gradientUnits="userSpaceOnUse">
      <stop stop-color="white" class="f"/>
      <stop offset="0.688606" stop-color="white"/>
    </linearGradient>
    <linearGradient id="paint3_linear" x1="320" y1="326.1" x2="490.5" y2="226.3" gradientUnits="userSpaceOnUse">
      <stop stop-color="white" class="f"/>
      <stop offset="0.688606" stop-color="white"/>
    </linearGradient>
    <linearGradient id="paint4_linear" x1="343.9" y1="132.4" x2="352.7" y2="189.7" gradientUnits="userSpaceOnUse">
      <stop stop-color="#FCE459"/>
      <stop offset="1" stop-color="#F8C42D"/>
    </linearGradient>
    <linearGradient id="paint5_linear" x1="342.6" y1="120.1" x2="351.7" y2="182.1" gradientUnits="userSpaceOnUse">
      <stop stop-color="#FCE459"/>
      <stop offset="1" stop-color="#F8C42D"/>
    </linearGradient>
  </defs>
</svg>
