<svg xmlns="http://www.w3.org/2000/svg" width="261" height="123" viewBox="0 0 261 123" fill="none">
<style>
  .a{
    fill:#1565C0;
  }
  .b{
    fill:#B7DDFC;
  }
  .c{
    fill:white;
  }
  .d{
    fill:#FFC4AF;
  }
  .e{
    fill:#E4E4E4;
  }
</style>
  <path d="M223.1 27.8C201.8 9.3 150.7-16.5 117.9 17.9 85.1 52.2 58.4-12.9 28.1 19.8 -2.1 52.5-5.2 98 28.1 114.9 61.4 131.7 94.5 117.5 132.9 102.5 171.3 87.5 183.8 137.7 218.9 105.4 254.1 73 244.5 46.3 223.1 27.8Z" fill="#EDF5FA"/>
  <g opacity="0.651646">
    <path d="M80 111H0V13.1C0 9.1 3.2 6 7.2 6H72.8C76.8 6 80 9.1 80 13.1V111Z" fill="#90CAF9"/>
    <rect y="106" width="80" height="5" fill="#64B5F6"/>
    <rect x="15" y="16" width="17.5" height="15" class="a"/>
    <rect x="47.5" y="16" width="17.5" height="15" class="a"/>
    <rect x="15" y="38.5" width="17.5" height="15" class="a"/>
    <rect x="47.5" y="38.5" width="17.5" height="15" class="a"/>
    <rect x="15" y="61" width="17.5" height="15" class="a"/>
    <rect x="47.5" y="61" width="17.5" height="15" class="a"/>
    <rect x="15" y="83.5" width="17.5" height="15" class="a"/>
    <rect x="47.5" y="83.5" width="17.5" height="27.5" class="a"/>
  </g>
  <path d="M146.5 30C154.5 30 161 23.5 161 15.5 161 7.5 154.5 1 146.5 1 138.5 1 132 7.5 132 15.5 132 23.5 138.5 30 146.5 30Z" class="b"/>
  <rect x="176" y="1" width="85" height="29" class="b"/>
  <rect x="176" y="43" width="85" height="29" class="b"/>
  <rect x="176" y="85" width="85" height="29" class="b"/>
  <path d="M146.5 72C154.5 72 161 65.5 161 57.5 161 49.5 154.5 43 146.5 43 138.5 43 132 49.5 132 57.5 132 65.5 138.5 72 146.5 72Z" class="b"/>
  <path d="M146.5 114C154.5 114 161 107.5 161 99.5 161 91.5 154.5 85 146.5 85 138.5 85 132 91.5 132 99.5 132 107.5 138.5 114 146.5 114Z" class="b"/>
  <path d="M151.8 22H147.7V6.5C146.2 7.9 144.4 8.9 142.4 9.6V5.9C143.4 5.5 144.6 4.9 145.9 3.9 147.1 2.9 148 1.7 148.5 0.4H151.8V22Z" class="c"/>
  <path d="M153.2 60.2V64H138.7C138.9 62.6 139.4 61.2 140.2 59.9 140.9 58.6 142.5 56.9 144.8 54.7 146.6 53 147.8 51.8 148.2 51.2 148.8 50.4 149 49.5 149 48.7 149 47.8 148.8 47.1 148.3 46.6 147.8 46.1 147.1 45.9 146.3 45.9 145.4 45.9 144.7 46.1 144.2 46.6 143.7 47.1 143.4 48 143.3 49.2L139.2 48.8C139.5 46.5 140.2 44.9 141.5 43.9 142.8 42.9 144.4 42.4 146.4 42.4 148.5 42.4 150.1 43 151.4 44.2 152.6 45.3 153.2 46.7 153.2 48.4 153.2 49.4 153 50.3 152.6 51.2 152.3 52.1 151.8 53 151 53.9 150.5 54.6 149.6 55.5 148.3 56.7 147 57.9 146.2 58.6 145.8 59 145.5 59.4 145.2 59.8 145 60.2H153.2Z" class="c"/>
  <path d="M139.1 100.3L143.1 99.8C143.2 100.8 143.6 101.6 144.1 102.1 144.7 102.7 145.4 103 146.2 103 147 103 147.7 102.6 148.3 102 148.9 101.3 149.2 100.5 149.2 99.4 149.2 98.3 148.9 97.5 148.3 96.9 147.8 96.3 147.1 96 146.3 96 145.8 96 145.1 96.1 144.4 96.3L144.9 93C146 93 146.8 92.8 147.4 92.2 148 91.7 148.3 91 148.3 90.2 148.3 89.5 148.1 88.9 147.7 88.5 147.2 88 146.7 87.8 145.9 87.8 145.2 87.8 144.6 88.1 144.1 88.6 143.6 89 143.3 89.8 143.2 90.7L139.4 90C139.7 88.7 140.1 87.7 140.6 86.9 141.2 86.2 141.9 85.6 142.8 85.1 143.8 84.7 144.9 84.4 146.1 84.4 148.1 84.4 149.7 85.1 150.9 86.4 151.9 87.4 152.4 88.6 152.4 89.9 152.4 91.8 151.4 93.3 149.3 94.5 150.6 94.7 151.6 95.3 152.3 96.2 153 97.1 153.4 98.3 153.4 99.6 153.4 101.4 152.7 103 151.3 104.4 150 105.7 148.2 106.4 146.2 106.4 144.2 106.4 142.6 105.8 141.4 104.7 140.1 103.6 139.3 102.1 139.1 100.3Z" class="c"/>
  <path d="M86.2 83.9C85.5 84.2 84.9 84.3 84.7 84.2 84 83.9 84.3 81.3 85 80.4 85.6 79.5 88.5 79.4 88.3 81.4 88.3 82.1 87.9 82.7 87.4 83.2L87.6 86.9 85.4 86.6 86.2 83.9Z" class="d"/>
  <path d="M84.8 79.4C84.8 79.9 85.1 80.4 85.6 80.5 85.8 80.6 86.2 80.7 86.6 80.8 86.5 80.9 86.5 81.1 86.5 81.3 86.4 81.5 86.4 81.6 86.4 81.8 86.5 81.7 86.7 81.7 86.8 81.7 87.1 81.7 87.3 82.1 87.3 82.3 87.2 82.7 87 82.9 86.6 82.9 86.8 83.5 87.2 84 87.5 84 88.3 84.1 88.9 83.2 89.1 82.1 89.1 82.1 89.1 82.1 89.1 82 89.3 82.2 89.5 82.5 89.7 82.8 90.1 83.3 90.5 83.9 91.2 84 92.6 84.1 93.5 81.4 91.6 81.1 90.3 81 89.6 81.1 89 81.3 89 80.9 88.9 80.6 88.7 80.4 88.6 80.4 88.6 80.3 88.5 80.2 88.4 80.2 88.4 80.2 88.3 80.1 88 80 87.5 79.8 87 79.7 86.9 79.7 86.8 79.7 86.7 79.7 86.8 79.2 86.4 78.7 85.9 78.6 85.4 78.5 84.9 78.9 84.8 79.4Z" fill="#F8C42D"/>
  <path d="M86.9 94L79.9 106 74.7 116.1H73.6L82.3 94 86.9 94Z" class="d"/>
  <path d="M74.6 115.7C75 115.7 75.5 115.7 75.6 116.2 75.6 116.2 75.6 116.2 75.6 116.2 75.6 116.5 75.5 117 75.5 117 75.2 117 70.2 117 70.2 117 70.2 117 70 116.3 70.5 116.2 70.9 116.2 71.2 116.1 71.2 116.1L73.3 115.2C73.5 115.1 73.8 115.2 73.9 115.5 73.9 115.5 74.3 115.7 74.6 115.7Z" class="e"/>
  <path d="M76.2 114.4L74 113.8C74 113.8 75.4 109.4 77.5 104.1 79.6 98.9 81.9 94 81.9 94H88C88 94 85.4 100.2 82.4 105.2 79.5 110.3 76.2 114.4 76.2 114.4Z" fill="#A7BC33"/>
  <path d="M87.3 94C88 98.2 89.2 103.6 89.4 103.7 89.4 103.8 92.3 104.8 97.9 106.7L97.7 107.7C91 106.7 87.4 105.9 87.1 105.4 86.5 104.6 83.8 98 82.8 94H87.3Z" class="d"/>
  <path d="M96 105.8L95.5 107.5C90.5 107.9 87.4 107.6 86.3 106.5 85.1 105.4 83.9 101.2 82.4 94H88.2C89.1 99.9 89.7 103 89.8 103.2 89.9 103.5 91.9 104.3 96 105.8Z" fill="#C2DC53"/>
  <path d="M97.6 107.2C97.7 106.8 97.8 106.3 98.3 106.3 98.3 106.3 98.3 106.3 98.3 106.3 98.6 106.4 99.1 106.5 99.1 106.5 99 106.8 98.2 111.7 98.2 111.7 98.2 111.7 97.4 111.8 97.5 111.3 97.5 110.9 97.5 110.6 97.5 110.6L96.9 108.4C96.8 108.1 97 107.9 97.3 107.8 97.3 107.8 97.6 107.4 97.6 107.2Z" class="e"/>
  <path d="M80.3 86L83.3 88.3 81.9 89.4 79.9 86.9C78.7 86.4 78.2 86 78.3 85.9 78.4 85.8 78.6 85.8 78.7 85.8 78.8 85.8 78.9 85.9 79 85.8 79.1 85.7 78.9 85.1 78.7 84.6 78.5 84.1 78.8 84.2 79 84.3 79.4 84.7 79.9 85.3 80.3 86ZM76.7 88.1L78 89.1 77.8 90.5C77.8 90.5 76.9 89.7 76.2 89.3 75.2 88.9 74.9 88.7 74.5 87.9 74.2 87.6 74.1 86.9 74.4 86.7 74.5 86.6 74.8 86.9 75.2 87.1 75.4 87.3 75.7 87.5 75.8 87.6 76.1 87.6 76.1 87.3 76.1 87.1 76.1 86.9 76.1 86.8 76.2 86.8 76.6 86.9 76.7 88.1 76.7 88.1Z" class="d"/>
  <path d="M84.9 88.1C83.8 87.9 82.3 87.5 80.9 86.2L80 87.5C81 88.8 82.4 89.9 83.8 90.1 84.8 90.2 85.6 89 84.9 88.1Z" fill="#2026A2"/>
  <path d="M86.6 98.2C87.6 98.2 88.6 98.3 89.2 98.5 90.2 96.4 89.8 95 89.5 93.6 89.3 92.8 89.1 92.1 89.2 91.3 89.6 88.8 88.2 84.9 87.9 84.8L87.8 84.8 85.6 84.5 85.3 84.5C85 85.9 84.3 87.5 83.6 89 83.4 89.4 83.2 89.8 83.1 90.1 81.1 90.3 77.2 88.2 77.2 88.2 77.2 88.2 75.9 90.3 75.8 91.2 78 92.8 80 93.7 81.7 94 81.5 95 81.5 96 81.8 96.9 82.2 98.2 84.5 98.2 86.6 98.2Z" fill="#0057B7"/>
</svg>
