<svg xmlns="http://www.w3.org/2000/svg" width="800" height="600" viewBox="0 0 800 600" class="a">
  <style>
  .a{
    fill:none;
  }
  .b{
    fill:#F3F6FB;
  }
  .c{
    mix-blend-mode:multiply;
  }
  .d{
    fill:white;
  }
  .e{
    stroke:white;
  }
  .f{
    stroke:#F8C42D;
  }
  .g{
    stroke:#F5772B;
  }
  .h{
    stroke-dasharray:5;
    stroke:#F5772B;
  }
  .i{
    fill:#2B85F5;
  }
  .j{
    fill:#0F3046;
  }
  .k{
    fill:#CD9A88;
  }
  .l{
    fill:#D9E4F2;
  }
  .m{
    fill:#CD9A88;
    stroke:#F3F6FB;
  }
  .n{
    fill:#191847;
  }
  .o{
    fill:#F8C42D;
  }
  .p{
    fill:#FFC4AF;
  }
  .q{
    fill:#F8E71C;
  }
  .r{
    fill:#F4CFC2;
  }
  .s{
    fill:#F4CFC2;
    stroke:white;
  }
  .t{
    fill:#FB8C00;
  }
  </style>
  <path d="M 194.6 182.8 C 317 89.5 498.2 81.8 606 162.5 C 713.8 243.3 670.1 397.2 515.1 491.8 C 360 586.4 93.3 548.1 101.5 444.9 C 113.7 291.8 188.4 393.2 203.4 357 C 218.5 320.8 74.5 274.2 194.6 182.8 Z" class="b"/>
  <g class="c">
    <path d="M 267 107.8 C 413.6 80.6 580.7 158.5 647.6 282.2 C 714.5 405.9 616.3 524.9 439.7 538 C 263.1 551.1 36 391.4 82.8 301.7 C 152.2 168.7 181.2 295.6 208.6 269.8 C 236.1 244 123.4 134.4 267 107.8 Z" class="b"/>
  </g>
  <path d="M 417.6 127.3 H 523.9 L 503.1 273.1 H 397.4 L 417.6 127.3 Z" class="d"/>
  <path d="M 523.5 128 C 529.3 128 534 123.1 534 117 C 534 110.9 529.3 106 523.5 106 C 517.7 106 513 110.9 513 117 C 513 123.1 517.7 128 523.5 128 Z" class="e"/>
  <path d="M 521.9 105.8 C 521.9 105.8 530.9 103.2 537.7 112.5 C 544.6 121.9 531 157.8 531 166.5 C 531 175.2 539.1 198 539.1 205 C 539.1 212 537.7 223.4 537.7 223.4" class="e"/>
  <path d="M 458.5 207 C 467.1 207 474 199.4 474 190 C 474 180.6 467.1 173 458.5 173 C 449.9 173 443 180.6 443 190 C 443 199.4 449.9 207 458.5 207 Z" class="f"/>
  <path d="M 445.2 146.5 L 448.8 132 H 486 V 143.4" class="f"/>
  <path d="M 472.4 251.7 L 470.2 262.9 H 433.7 V 251.7" class="f"/>
  <path d="M 466.6 219 C 460.5 219 447 227 449.3 242" class="g"/>
  <path d="M 475.6 216.7 C 475.6 216.7 491.6 211.2 494.8 194 C 498.1 176.8 475.6 164.4 475.6 164.4" class="g"/>
  <path d="M 456.2 138.5 C 451.6 138.5 454.1 158.8 465.3 158.8" class="g"/>
  <path d="M 430.6 164.4 C 426.7 166.7 405.9 228.2 462.7 233.1" class="h"/>
  <path d="M 414.7 190.3 H 511.8" class="f"/>
  <path d="M 468 159 L 471.8 163.9" class="g"/>
  <path d="M 464 146 L 467.8 150.9" class="g"/>
  <path d="M 470 215 L 473.8 219.9" class="g"/>
  <path d="M 472 230 L 475.8 234.9" class="g"/>
  <path d="M 471.8 159 L 467 163" class="g"/>
  <path d="M 468.8 147 L 464 151" class="g"/>
  <path d="M 474.8 216 L 470 220" class="g"/>
  <path d="M 476.8 231 L 472 235" class="g"/>
  <rect x="160" y="459" width="412" height="50" class="d"/>
  <path d="M 276 432 C 276 432 282.1 432 285.8 432 C 289.6 432 298.1 432 298.1 432 L 294.9 448.2 H 276 L 276 432 Z" class="i"/>
  <path d="M 259.3 491 C 260.6 490.6 267.7 488 265.6 483.6 C 263.6 479.3 252.2 485.1 252.2 485.1 C 252.2 485.1 246.5 488.5 248.6 491 C 250.8 493.5 257.9 491.4 259.3 491 Z" class="j"/>
  <path d="M 255 478 H 249 V 489.8 L 255 488 V 478 Z" class="k"/>
  <path d="M 262 486.5 C 262 486.5 261.8 485.1 260.9 484.7 C 260.1 484.3 259.1 484 259.1 484" class="e"/>
  <path d="M 260 487.5 C 260 487.5 259.8 486.1 258.9 485.7 C 258.1 485.3 257.1 485 257.1 485" class="e"/>
  <path d="M 284.3 491 C 285.6 490.6 292.7 488 290.6 483.6 C 288.6 479.3 277.2 485.1 277.2 485.1 C 277.2 485.1 271.5 488.5 273.6 491 C 275.8 493.5 282.9 491.4 284.3 491 Z" class="j"/>
  <path d="M 280 478 H 274 V 489.8 L 280 488 V 478 Z" class="k"/>
  <path d="M 287 486.5 C 287 486.5 286.8 485.1 285.9 484.7 C 285.1 484.3 284.1 484 284.1 484" class="e"/>
  <path d="M 285 487.5 C 285 487.5 284.8 486.1 283.9 485.7 C 283.1 485.3 282.1 485 282.1 485" class="e"/>
  <path d="M 276.3 416.7 C 276.3 416.7 283.6 404.3 293.8 409 C 304.1 413.7 297.8 433 297.8 433 C 297.8 433 281.5 439.8 278.7 437.7 C 271 431.8 276.3 416.7 276.3 416.7 Z" class="k"/>
  <path d="M 187.6 433.1 C 187.6 433.1 183.4 459.4 198.1 462.2 C 212.9 464.9 232.3 469.7 246.5 462.2 C 260.7 454.6 289 438 289 427.9 C 289 417.7 266.5 405.8 266.5 405.8 L 187.6 433.1 Z" class="l"/>
  <path d="M 262.9 469 C 262.9 469 256.9 484.7 254.8 484.7 C 252.7 484.7 249.7 484.7 249.7 484.7 L 247 469 H 262.9 Z" class="i"/>
  <path d="M 287.9 469 C 287.9 469 281.4 483.7 278.9 483.7 C 276.5 483.7 273 483.7 273 483.7 V 469 H 287.9 Z" class="i"/>
  <path d="M 279.7 313.6 C 279.7 313.6 283 318.9 283 321.6 C 283 324.2 283 336.9 279.7 339.1 C 276.4 341.4 267.1 346.5 267.1 346.5 L 264.1 352.6 C 264.1 352.6 258.6 358.7 250.4 352.6 C 242.2 346.5 241.9 344.2 241.9 344.2 L 254.3 334.6 V 313.6 H 279.7 Z" class="k"/>
  <path d="M 273.3 316.5 C 277 316.5 277.3 314.2 280.3 314.2 C 283.4 314.2 287.9 314.1 286.6 310.4 C 285.4 306.8 281.5 305.4 281.5 305.4 C 281.5 305.4 282.3 301 279 300.2 C 275.6 299.4 271 301.9 271 301.9 C 271 301.9 265.1 294.2 260.4 297.2 C 255.8 300.2 254.2 308 254.2 308 C 254.2 308 248.2 307.2 246.1 311.8 C 244 316.5 250 322.7 250 322.7 C 250 322.7 245.6 327.6 248.8 329.3 C 251.9 331 253.4 330.3 253.4 330.3 C 253.4 330.3 254.4 336 257.4 336 C 260.4 336 263.6 333.5 263.6 333.5 C 263.6 333.5 258.9 331.8 260.4 327.6 C 261.9 323.5 266.2 323.4 266.2 323.4 C 266.2 323.4 265 327.6 269.2 327.6 C 273.3 327.6 271 321.3 271 321.3 C 271 321.3 272.4 320.4 272.4 319.3 C 272.4 318.2 269.6 316.5 273.3 316.5 Z" class="j"/>
  <path d="M 243.9 341 C 239.9 341 229.9 334.9 213.7 344.5 C 197.6 354.2 181.4 434 182.9 434 C 184.3 434 195.2 445.9 212.1 445.9 C 229 445.9 259.3 441.7 259.3 441.7 C 259.3 441.7 254.8 438.7 253.7 434.4 C 252.6 430.1 249.6 403.9 249.6 403.9 L 272.1 406.1 C 272.1 406.1 281.1 370.5 277.2 365 C 273.3 359.5 264.5 351.7 264.5 351.7 C 264.5 351.7 253.4 353.8 248.7 350.7 C 243.9 347.6 248 341 243.9 341 Z" class="i"/>
  <path d="M 269.6 405.8 V 413.5 C 269.6 413.5 278.9 403.5 286.6 403.5 C 294.4 403.5 299.4 404.5 299.4 404.5 C 299.4 404.5 301.1 404.9 300.3 405.8 C 299.4 406.8 290.9 405.8 290.9 405.8 C 290.9 405.8 301.1 406.5 300.3 408 C 299.4 409.5 290.9 408.5 290.9 408.5 C 290.9 408.5 300.3 408.4 300.3 409.6 C 300.3 410.9 289.7 411.2 290.9 411.2 C 292 411.2 298.1 411.9 298.1 413.5 C 298.1 415 289.1 412.6 289.1 412.6 L 283.4 413.5 C 283.4 413.5 270.2 444 257.6 444 C 245 444 248 402.1 248 402.1 L 269.6 405.8 Z" class="m"/>
  <path d="M 296 377.6 L 296.4 371.2 C 296.4 370.6 297.1 370.1 297.7 370.2 C 301.8 370.8 307 369 307 369 C 312.2 372.6 319.4 374.5 323 375.2 C 324.2 375.5 325 376.7 324.6 377.9 L 324.3 379 H 307 H 297 L 296 377.6 Z" class="n"/>
  <path d="M 267.4 159.4 C 267.4 159.4 290.3 140.8 294.4 140.8 C 298.5 140.8 352.1 138.1 357.5 140.8 C 362.9 143.4 358.8 155.6 359.4 148.8 L 358.1 153.1 L 359.4 160.6 C 359.4 158.8 358.8 168.1 360.6 177.5 C 360 180.6 360.1 180.7 360.1 180.7 V 233.6 H 352.5 L 357.5 293.6 L 349 366 H 336.7 V 295.6 L 328.3 238 H 324.5 L 309.3 366 H 297.6 L 299.5 238 L 297.6 233.6 H 292.3 L 294.4 203.3 C 294.4 203.3 253.4 196.5 248 190 C 242.6 183.5 248 180.7 248 180.7 L 267.4 159.4 Z M 292.7 174 C 290.5 174 273.8 183.1 273.8 183.1 L 294.9 194 C 294.9 194 295 174 292.7 174 Z" class="i"/>
  <g class="animate">
    <path id="hand" d="M 399 185.3 L 427.9 172.7 C 433 167.6 437.9 163.8 442.6 161.2 C 444 160.8 446.4 160.6 443.8 164.4 C 441.3 168.1 438.7 172.1 439.7 173.4 C 440.8 174.7 443.7 173.3 444.9 175.4 C 445.7 176.8 440.7 178.5 429.9 180.5 L 408 190 L 399 185.3 Z" class="k"/>
    <path id="arm" d="M 333 164.5 C 328.8 155 330 155.6 332.5 159.5 C 344 164.5 335.7 161.3 357.5 140.8 C 363 141 395.5 183.5 395.5 183.5 L 424.3 174 L 430.6 183.5 C 430.6 183.5 399.6 202 392 202 C 384.3 202 360.1 180.7 337.5 172.5 V 192.5 H 328.1 L 329.4 181.9 L 325.6 193.1 H 336.7 V 193.8 L 330 201.3 H 320.6 L 322.5 194.4 H 321.9 L 323.8 178.8 L 325.6 185 H 324.4 L 327.5 167.5 C 327.5 166.3 326.3 161.3 334 165 C 329 165 334 166 334.5 163.5 L 331 160.5 Z M 331 164 C 341 172 334.5 162.5 335.5 163.5 L 325 162.5 C 328.1 164.4 338.5 164.5 335 164 Z" class="i"/>
  </g>
  <path d="M 329 149 C 324.7 149 319.5 144.4 319.5 144.4 C 319.5 144.4 321.5 131.5 320.6 128.8 C 320.4 128.3 320.2 127.3 320 126.1 C 318.8 126.6 316.9 127.2 316.1 126.9 C 315.8 126.7 315.6 126.7 315.4 126.6 C 314.5 126.3 314 126.2 314 123.3 C 314 119.9 316.1 119 316.1 119 H 318.8 L 319.2 120.1 C 318.8 115.3 318.9 109.9 320.6 108.1 C 321.8 106.8 322.4 106.1 323.2 105.6 C 324.5 104.8 326.2 104.7 330.8 104.1 C 338.3 103.2 340.4 109.9 340.4 109.9 C 340.4 109.9 343 127.7 341.4 130.2 C 339.9 132.8 338.5 134 338.5 134 V 145.6 C 338.5 145.6 333.4 149 329 149 Z" class="k"/>
  <path d="M 321.8 124.5 L 324.5 123.3 C 324.5 123.3 320.5 117.1 321.8 114.6 C 323.2 112.1 324.7 109.5 326.2 110.5 C 327.7 111.5 328.4 113.9 332 113.4 C 335.6 112.9 341.1 113.4 343.8 110.5 C 346.4 107.7 346.6 103.7 345 102.4 C 343.5 101.1 338.9 102.9 338.9 102.9 C 338.9 102.9 341.2 101.7 345 101 C 343.6 98.5 333.4 96 333.4 96 L 330.5 100.3 L 332 94 C 332 94 325.9 93.7 323.3 96 C 320.7 98.3 321 105 320.2 102.4 C 319.4 99.8 323 97.2 320.2 96.6 C 317.4 96.1 312 105.1 312 109.8 C 312 114.6 315 120.8 315 120.8 C 315 120.8 317.2 117.9 318.2 119.3 C 319.2 120.8 321.8 124.5 321.8 124.5 Z" class="j"/>
  <path d="M 319 143.4 C 319 143.4 323.8 147.5 327.7 147.5 C 331.6 147.5 339 143.4 339 143.4 C 339 143.4 344.1 214.5 343.5 214.5 C 342.8 214.5 310.6 213.2 310.6 213.2 L 319 143.4 Z" class="d"/>
  <path d="M 324.9 147.3 L 327.5 152.3 C 327.5 152.3 323.5 174.6 324.7 180.1 C 327.5 193.1 322 211.1 322.3 211.1 C 322.8 211.1 329.4 211.1 329.4 211.1 C 329.4 211.1 333.2 192.4 330.3 179.6 C 327.3 166.8 329.4 152.3 329.4 152.3 L 332.5 146.7 C 332.5 146.7 329.3 147.8 328.3 147.8 C 327.2 147.8 324.9 147.3 324.9 147.3 Z" class="o"/>
  <path d="M 378.1 491.9 C 377.2 492.9 371.9 498.2 368.8 494.5 C 365.7 490.8 375.8 482.9 375.8 482.9 C 375.8 482.9 381.3 479.2 382.7 482.2 C 384 485.2 379.1 490.8 378.1 491.9 Z" class="j"/>
  <path d="M 364.2 469 L 373.6 484.7 L 379.9 481.7 C 379.9 481.7 380.2 469.9 377.5 469.9 C 374.9 469.9 364.2 469 364.2 469 Z" class="p"/>
  <path d="M 364 469.8 L 369.6 479.7 L 379.8 476.1 C 379.8 476.1 380.5 469.8 379.8 469.8 C 379 469.8 364 469.8 364 469.8 Z" class="i"/>
  <path d="M 372 493.7 L 375 496.7" class="e"/>
  <path d="M 375 492.7 L 378 495.7" class="e"/>
  <path d="M 377 490.7 L 380 493.7" class="e"/>
  <path d="M 379 486.7 L 382 489.7" class="e"/>
  <path d="M 380.9 484.7 L 383.9 487.7" class="e"/>
  <path d="M 409.6 422.6 C 420.4 419.1 411.5 382 409.6 382 C 407.8 382 382.7 386.6 382.7 386.6 L 380 415.1 C 380 415.1 398.9 426 409.6 422.6 Z M 326.4 422.8 C 317.9 419.8 324.4 395.2 324.4 395.2 C 324.4 395.2 365.6 390 368.4 390 C 371.2 390 358.4 415.2 358.4 415.2 C 358.4 415.2 334.9 425.9 326.4 422.8 Z" class="p"/>
  <path d="M 382.7 386.6 L 382.6 386.2 L 382.2 386.2 L 382.2 386.6 L 382.7 386.6 Z M 380 415.1 L 379.5 415 L 379.5 415.3 L 379.7 415.5 L 380 415.1 Z M 324.4 395.2 L 324.4 394.8 L 324 394.8 L 323.9 395.1 L 324.4 395.2 Z M 358.4 415.2 L 358.6 415.6 L 358.7 415.5 L 358.8 415.4 L 358.4 415.2 Z M 409.6 382.5 C 409.5 382.5 409.4 382.4 409.5 382.5 C 409.5 382.5 409.6 382.6 409.6 382.7 C 409.8 382.9 410 383.3 410.2 383.8 C 410.5 384.8 411 386.2 411.5 388 C 412.4 391.5 413.3 396.2 413.9 401 C 414.4 405.9 414.6 410.8 413.9 414.7 C 413.3 418.6 411.9 421.3 409.5 422.1 L 409.8 423 C 412.8 422.1 414.3 418.8 414.9 414.8 C 415.6 410.8 415.4 405.8 414.9 400.9 C 414.3 396 413.4 391.3 412.4 387.7 C 412 385.9 411.5 384.5 411.1 383.4 C 410.9 382.9 410.7 382.5 410.5 382.2 C 410.4 382 410.3 381.9 410.2 381.8 C 410.1 381.7 409.9 381.5 409.6 381.5 V 382.5 Z M 382.7 386.6 C 382.8 387.1 382.8 387.1 382.8 387.1 C 382.8 387.1 382.8 387.1 382.8 387.1 C 382.8 387.1 382.8 387.1 382.8 387.1 C 382.8 387.1 382.8 387.1 382.8 387.1 C 382.8 387.1 382.8 387.1 382.8 387.1 C 382.9 387.1 383 387.1 383.1 387.1 C 383.2 387.1 383.5 387 383.9 386.9 C 384.5 386.8 385.5 386.6 386.7 386.4 C 389.1 386 392.3 385.4 395.5 384.8 C 398.8 384.2 402.1 383.7 404.7 383.2 C 406 383 407.2 382.8 408 382.7 C 408.9 382.6 409.5 382.5 409.6 382.5 V 381.5 C 409.4 381.5 408.7 381.6 407.9 381.7 C 407 381.8 405.9 382 404.6 382.2 C 401.9 382.7 398.6 383.2 395.4 383.8 C 392.1 384.4 388.9 385 386.5 385.4 C 385.4 385.6 384.4 385.8 383.7 386 C 383.3 386 383.1 386.1 382.9 386.1 C 382.8 386.1 382.7 386.1 382.7 386.1 C 382.6 386.1 382.6 386.1 382.6 386.1 C 382.6 386.2 382.6 386.2 382.6 386.2 C 382.6 386.2 382.6 386.2 382.6 386.2 C 382.6 386.2 382.6 386.2 382.6 386.2 C 382.6 386.2 382.6 386.2 382.7 386.6 Z M 380.5 415.1 L 383.2 386.7 L 382.2 386.6 L 379.5 415 L 380.5 415.1 Z M 409.5 422.1 C 406.9 422.9 403.8 422.9 400.6 422.4 C 397.3 421.8 394 420.8 391 419.7 C 388 418.5 385.3 417.3 383.3 416.3 C 382.4 415.8 381.6 415.4 381.1 415.1 C 380.8 415 380.6 414.8 380.5 414.8 C 380.4 414.7 380.3 414.7 380.3 414.7 C 380.3 414.7 380.3 414.7 380.3 414.7 C 380.3 414.6 380.3 414.6 380.3 414.6 C 380.3 414.6 380.3 414.6 380.3 414.6 C 380.3 414.6 380.3 414.6 380.3 414.6 C 380.3 414.6 380.3 414.6 380 415.1 C 379.7 415.5 379.7 415.5 379.8 415.5 C 379.8 415.5 379.8 415.5 379.8 415.5 C 379.8 415.5 379.8 415.5 379.8 415.5 C 379.8 415.5 379.8 415.5 379.8 415.5 C 379.8 415.5 379.8 415.5 379.8 415.5 C 379.8 415.6 379.9 415.6 380 415.6 C 380.1 415.7 380.3 415.8 380.6 416 C 381.1 416.3 381.9 416.7 382.9 417.2 C 384.8 418.2 387.6 419.4 390.6 420.6 C 393.7 421.8 397.1 422.8 400.4 423.4 C 403.7 423.9 407 423.9 409.8 423 L 409.5 422.1 Z M 324.4 395.2 C 323.9 395.1 323.9 395.1 323.9 395.1 C 323.9 395.1 323.9 395.1 323.9 395.1 C 323.9 395.1 323.9 395.1 323.9 395.1 C 323.9 395.1 323.9 395.1 323.9 395.1 C 323.9 395.1 323.9 395.2 323.9 395.2 C 323.9 395.2 323.9 395.3 323.9 395.4 C 323.8 395.6 323.8 395.8 323.7 396.2 C 323.5 396.9 323.3 397.8 323 399 C 322.6 401.4 322 404.6 321.7 407.8 C 321.4 411.1 321.4 414.5 322 417.3 C 322.6 420.1 323.8 422.4 326.2 423.3 L 326.5 422.4 C 324.6 421.7 323.5 419.8 323 417.1 C 322.4 414.5 322.4 411.2 322.7 407.9 C 323 404.7 323.5 401.6 324 399.2 C 324.3 398.1 324.5 397.1 324.6 396.4 C 324.7 396.1 324.8 395.8 324.8 395.6 C 324.9 395.6 324.9 395.5 324.9 395.4 C 324.9 395.4 324.9 395.4 324.9 395.4 C 324.9 395.4 324.9 395.4 324.9 395.4 C 324.9 395.4 324.9 395.4 324.9 395.4 C 324.9 395.4 324.9 395.4 324.9 395.4 C 324.9 395.4 324.9 395.4 324.4 395.2 Z M 368.4 389.5 C 368 389.5 367 389.6 365.7 389.7 C 364.3 389.9 362.4 390.1 360.3 390.3 C 356 390.8 350.6 391.5 345.3 392.1 C 340 392.8 334.7 393.4 330.8 393.9 C 328.9 394.2 327.3 394.4 326.1 394.5 C 325.6 394.6 325.1 394.7 324.8 394.7 C 324.7 394.7 324.6 394.7 324.5 394.7 C 324.4 394.7 324.4 394.7 324.4 394.7 C 324.4 394.7 324.4 394.7 324.4 394.7 C 324.4 394.8 324.4 394.8 324.4 394.8 C 324.4 394.8 324.4 394.8 324.4 394.8 C 324.4 394.8 324.4 394.8 324.4 395.2 C 324.5 395.7 324.5 395.7 324.5 395.7 C 324.5 395.7 324.5 395.7 324.5 395.7 C 324.5 395.7 324.5 395.7 324.5 395.7 C 324.5 395.7 324.5 395.7 324.5 395.7 C 324.5 395.7 324.6 395.7 324.6 395.7 C 324.7 395.7 324.8 395.7 325 395.7 C 325.3 395.6 325.7 395.6 326.3 395.5 C 327.4 395.4 329 395.2 331 394.9 C 334.9 394.4 340.1 393.8 345.4 393.1 C 350.7 392.5 356.2 391.8 360.4 391.3 C 362.5 391.1 364.4 390.9 365.8 390.7 C 367.2 390.6 368.1 390.5 368.4 390.5 V 389.5 Z M 358.4 415.2 C 358.8 415.4 358.8 415.4 358.8 415.4 C 358.8 415.4 358.8 415.4 358.8 415.4 C 358.8 415.4 358.8 415.4 358.8 415.4 C 358.8 415.4 358.8 415.4 358.8 415.4 C 358.8 415.4 358.8 415.3 358.9 415.3 C 358.9 415.3 358.9 415.2 359 415.1 C 359.1 414.9 359.2 414.6 359.4 414.3 C 359.7 413.6 360.2 412.6 360.8 411.4 C 361.9 409.1 363.5 405.9 364.9 402.8 C 366.3 399.6 367.7 396.5 368.5 394.1 C 368.9 392.9 369.2 391.9 369.3 391.1 C 369.3 390.8 369.3 390.4 369.2 390.1 C 369.2 390 369.1 389.8 368.9 389.7 C 368.8 389.6 368.6 389.5 368.4 389.5 V 390.5 C 368.4 390.5 368.4 390.5 368.3 390.5 C 368.3 390.4 368.3 390.4 368.3 390.4 C 368.3 390.5 368.3 390.7 368.3 391 C 368.2 391.7 368 392.6 367.6 393.8 C 366.8 396.1 365.4 399.2 364 402.4 C 362.6 405.5 361 408.6 359.9 411 C 359.3 412.2 358.8 413.2 358.5 413.9 C 358.3 414.2 358.2 414.5 358.1 414.6 C 358 414.7 358 414.8 358 414.9 C 358 414.9 357.9 414.9 357.9 414.9 C 357.9 414.9 357.9 414.9 357.9 414.9 C 357.9 414.9 357.9 414.9 357.9 414.9 C 357.9 414.9 357.9 414.9 357.9 414.9 C 357.9 414.9 357.9 414.9 358.4 415.2 Z M 326.2 423.3 C 328.4 424.1 331.6 424 335 423.4 C 338.5 422.8 342.2 421.8 345.7 420.6 C 349.2 419.5 352.4 418.2 354.8 417.2 C 355.9 416.8 356.9 416.4 357.5 416.1 C 357.9 415.9 358.1 415.8 358.3 415.7 C 358.4 415.7 358.5 415.7 358.5 415.6 C 358.5 415.6 358.6 415.6 358.6 415.6 C 358.6 415.6 358.6 415.6 358.6 415.6 C 358.6 415.6 358.6 415.6 358.6 415.6 C 358.6 415.6 358.6 415.6 358.6 415.6 C 358.6 415.6 358.6 415.6 358.4 415.2 C 358.2 414.7 358.2 414.7 358.2 414.7 C 358.2 414.7 358.2 414.7 358.2 414.7 C 358.2 414.7 358.2 414.7 358.2 414.7 C 358.2 414.7 358.2 414.7 358.1 414.7 C 358.1 414.7 358.1 414.7 358.1 414.7 C 358.1 414.8 358 414.8 357.9 414.8 C 357.7 414.9 357.5 415 357.1 415.2 C 356.5 415.4 355.5 415.8 354.4 416.3 C 352 417.3 348.8 418.5 345.4 419.7 C 341.9 420.8 338.2 421.9 334.9 422.4 C 331.5 423 328.5 423.1 326.5 422.4 L 326.2 423.3 Z" class="b"/>
  <path d="M 359.5 352.9 C 361.3 350.5 361.9 338.4 361.9 338.4 C 361.9 338.4 356.7 340.1 355.3 335.7 C 353.9 331.3 358.1 330.7 358.7 330.7 C 359.3 330.7 379.2 329 379.2 329 C 379.2 329 386.6 328.7 385.9 333.1 C 385.3 337.5 378.7 337.7 378.7 337.7 C 378.7 337.7 378.1 352.1 381.4 357.1 C 384.8 362.1 358.7 355.6 358.7 355.6 C 358.7 355.6 357.8 355.2 359.5 352.9 Z" class="p"/>
  <path d="M 346 441.1 C 346 441.1 340.4 430.7 337.5 429.7 C 334.6 428.7 329.9 428.2 325.1 432.5 C 320.3 436.8 321.1 446.1 321.1 446.1 H 333.6 L 342 455 L 346 441.1 Z" class="p"/>
  <path d="M 340.8 439.6 C 340.8 439.6 336.3 453.1 342.9 456.8 C 349.6 460.5 379.9 467.2 391.3 459.4 C 402.7 451.5 404.5 443.4 391.3 438.2 C 378.1 433 340.8 439.6 340.8 439.6 Z" class="l"/>
  <path d="M 328.6 374 C 328.6 374 332.4 349.9 369.4 352.3 C 406.5 354.6 402.9 358.3 408.1 367.5 C 413.2 376.6 415.9 405.8 415.9 405.8 L 399 409.2 L 399.5 443.1 C 399.5 443.1 372.5 449.4 363.4 447.6 C 354.3 445.9 334.9 440.7 334.9 440.7 C 334.9 440.7 338.8 409.6 336.9 409.2 C 334.9 408.8 321 408.2 321 405.8 C 321 403.4 328.6 374 328.6 374 Z" class="i"/>
  <path d="M 370.4 309.5 C 370.4 309.5 361.6 305.2 355.7 313 C 349.8 320.7 355.6 330.3 358.6 335.4 C 361.4 340.2 366.8 344.8 367 348.9 C 367.3 357.4 355 366 355 366 C 355 366 365 361.2 365 362.5 C 365 370.3 369.5 361.2 374 362.5 C 377.2 363.4 380 362.5 380 362.5 C 380 362.5 370.2 356.5 369.7 348.9 C 369.5 345.2 376.2 340.2 378.9 336.7 C 385.1 328.9 387.1 314.9 382.3 311.1 C 377.5 307.2 370.4 309.5 370.4 309.5 Z" class="q"/>
  <path d="M 464.1 314.4 C 468.2 305.8 475.9 298.2 475.9 298.2 C 475.9 298.2 483.5 295.6 493.8 304.4 C 504.2 313.3 493.8 330 493.8 330 C 493.8 330 496.4 340.8 504 345 C 511.7 349.2 483.6 350.6 483.6 350.6 L 478.8 335.2 C 478.8 335.2 472.4 341.6 463.9 330 C 461.9 327.3 461.4 324.1 462 320.9 C 460.4 320.1 459.2 319.5 459 319.5 C 458.7 319.5 461.7 316.6 464.1 314.4 Z" class="r"/>
  <path d="M 472.7 495 C 471.4 494.6 464.3 492 466.4 487.6 C 468.4 483.3 479.8 489.1 479.8 489.1 C 479.8 489.1 485.5 492.5 483.4 495 C 481.2 497.5 474.1 495.4 472.7 495 Z" class="j"/>
  <path d="M 477 482 H 483 V 493.8 L 477 492 V 482 Z" class="k"/>
  <path d="M 470 490.5 C 470 490.5 470.2 489.1 471.1 488.7 C 471.9 488.3 472.9 488 472.9 488" class="e"/>
  <path d="M 472 491.5 C 472 491.5 472.2 490.1 473.1 489.7 C 473.9 489.3 474.9 489 474.9 489" class="e"/>
  <path d="M 448.7 496 C 447.4 495.6 440.3 493 442.4 488.6 C 444.4 484.3 455.8 490.1 455.8 490.1 C 455.8 490.1 461.5 493.5 459.4 496 C 457.2 498.5 450.1 496.4 448.7 496 Z" class="j"/>
  <path d="M 453 483 H 459 V 494.8 L 453 493 V 483 Z" class="k"/>
  <path d="M 446 491.5 C 446 491.5 446.2 490.1 447.1 489.7 C 447.9 489.3 448.9 489 448.9 489" class="e"/>
  <path d="M 448 492.5 C 448 492.5 448.2 491.1 449.1 490.7 C 449.9 490.3 450.9 490 450.9 490" class="e"/>
  <path d="M 446.4 447 C 444.4 432.8 442.9 420.8 442.9 420.8 H 474.2 L 468.8 447 H 446.4 Z M 449.6 470 C 451.6 483 453.4 493.5 454.2 493.5 H 459.3 L 464.1 470 H 449.6 Z" class="i"/>
  <path d="M 469.9 470.1 C 469.9 470.1 474.5 490.8 477 490.8 C 479.4 490.8 482.9 490.8 482.9 490.8 L 484.8 470.1 H 469.9 Z" class="i"/>
  <path d="M 451.6 427 C 459 434.7 487 464.6 505.6 464.6 C 524.3 464.6 545.4 452.4 547.1 445.8 C 548.8 439.2 542.8 421.5 542.8 421.5 L 468.6 400.8 C 468.6 400.8 444.2 419.3 451.6 427 Z" class="l"/>
  <path d="M 476.7 413.8 C 469.2 418.9 457.7 434.6 444.6 432 C 431.5 429.4 452.3 382.8 452.3 382.8 L 484.5 397.2 C 484.5 397.2 484.1 408.6 476.7 413.8 Z" class="s"/>
  <path d="M 447.5 387.7 C 447.5 387.7 449.6 368.9 461.2 359.9 C 472.8 351 500.2 328.4 517.4 335.2 C 534.6 342 548.3 409.4 548.3 429.2 C 548.3 429.2 532 443.2 517.4 446.5 C 502.9 449.8 474.9 442 474.9 442 L 469 397.2 L 447.5 387.7 Z" class="i"/>
  <path d="M 473 302 C 473 302 478.3 302.9 478.3 308.4 C 478.3 314 473 320 473 320 H 475.6 C 475.6 320 481 314.6 483.2 317.3 C 485.5 320 487.8 324.8 483.2 324.8 C 478.7 324.8 484.2 329.4 486 330 C 487.8 330.5 493 327.9 493 327.9 C 493 327.9 498.5 344.5 499.8 346.1 C 501 347.7 503.5 342.8 503.5 342.8 C 503.5 342.8 505.2 348.6 508.2 348.6 C 511.3 348.6 508.2 342.8 508.2 342.8 C 508.2 342.8 510.3 346.2 513 342.8 C 515.7 339.5 495.9 327.9 495.9 327.9 C 495.9 327.9 511.8 306.1 495.3 300 C 478.7 293.9 473 302 473 302 Z" class="o"/>
  <path d="M 308.7 486 C 307.4 485.6 300.3 483 302.4 478.6 C 304.4 474.3 315.8 480.1 315.8 480.1 C 315.8 480.1 321.5 483.5 319.4 486 C 317.2 488.5 310.1 486.4 308.7 486 Z" class="j"/>
  <path d="M 313 473 H 319 V 484.8 L 313 483 V 473 Z" class="p"/>
  <path d="M 306 481.5 C 306 481.5 306.2 480.1 307.1 479.7 C 307.9 479.3 308.9 479 308.9 479" class="e"/>
  <path d="M 308 482.5 C 308 482.5 308.2 481.1 309.1 480.7 C 309.9 480.3 310.9 480 310.9 480" class="e"/>
  <path d="M 312 470 V 477.7 H 319.2 L 322.8 470 H 312 Z" class="i"/>
  <path d="M 215.1 399.2 C 212.7 398.6 210.9 397.5 209.7 396.1 C 208.4 394.5 208 392.5 208.6 390.2 C 209.5 386.6 211.4 384.4 214.4 383.8 C 212.7 382 212.2 380 212.8 377.8 C 213.4 375.6 214.6 374.1 216.5 373.1 C 218.4 372.1 220.4 371.9 222.5 372.5 C 227.3 373.7 229 376.7 227.7 381.4 C 227.4 382.8 226.8 383.7 226.1 384.3 C 225.5 384.8 224.4 385.2 223 385.5 C 224.5 386.8 225.4 388.1 225.8 389.2 C 226.3 390.6 226.3 392.3 225.7 394.3 C 225.1 396.6 223.8 398.2 221.7 399.1 C 219.8 399.8 217.6 399.9 215.1 399.2 Z M 221.6 375.5 C 220.2 375.1 218.9 375.2 217.9 375.8 C 217.1 376.4 216.4 377.4 216.1 378.7 C 215.7 380.3 216.7 381.7 219.1 383.1 C 220.6 383.1 221.6 382.9 222.3 382.7 C 223.4 382.3 224.1 381.6 224.4 380.5 C 224.8 379 224.8 377.8 224.3 377 C 223.8 376.3 222.9 375.8 221.6 375.5 Z M 218.4 386.1 C 216.4 386.5 215 386.9 214.3 387.4 C 213.1 388 212.3 389.2 211.9 391 C 211.5 392.4 211.9 393.6 213 394.7 C 213.8 395.4 214.7 395.9 215.9 396.3 C 217.9 396.8 219.4 396.7 220.4 396 C 221.3 395.4 221.9 394.3 222.3 392.8 C 222.7 391.3 222.4 390 221.5 388.8 C 220.9 387.9 219.9 387.1 218.4 386.1 Z" class="d"/>
  <path d="M 374.3 422 C 374.5 422 375 421.9 375.5 421.8 C 376 421.6 376.4 421.5 376.7 421.5 C 377.3 421.5 378.2 421.5 379.4 421.6 C 380.6 421.7 381.5 421.7 382.1 421.7 C 382.6 421.7 383.2 421.8 384.2 421.9 C 385 422 385.7 422.1 386.2 422.1 C 386.3 422.1 386.5 422 386.7 422 C 387 421.9 387.2 421.9 387.3 421.9 C 388.1 421.9 388.6 421.5 388.9 420.7 C 389 420.3 389.1 419.6 389.1 418.6 C 389.1 415.9 388.3 413.7 386.9 412 C 386.2 411.3 384.3 409.9 381.4 407.8 C 379.7 406.7 378.6 405.8 378 405.1 C 377 404 376.5 402.7 376.5 401.2 C 376.5 400.4 377 399.8 377.9 399.2 C 378.8 398.6 379.6 398.4 380.5 398.4 C 381.5 398.4 382.6 398.7 383.5 399.3 L 386 401.3 C 386.6 401.7 387 401.9 387.3 401.9 C 388.5 401.9 389.1 401.4 389.1 400.4 C 389.1 399.9 388.9 399.4 388.4 399 C 387 397.7 385.8 396.8 384.8 396.2 C 383.4 395.4 382 395 380.5 395 C 378.6 395 376.9 395.5 375.4 396.5 C 373.7 397.7 372.9 399.2 372.9 401 C 372.9 402.2 373.1 403.3 373.4 404.3 C 373.7 405.3 374.2 406.2 374.9 407.1 C 375.8 408.1 377.3 409.3 379.4 410.6 C 381.6 412 383.1 413 383.7 413.8 C 385 415.1 385.7 416.7 385.7 418.7 L 382 418.3 C 379.6 418.2 377.8 418.1 376.7 418.1 C 375.8 418.1 375 418.3 374.2 418.6 C 373.1 419 372.6 419.6 372.6 420.3 C 372.6 420.7 372.8 421.1 373.1 421.5 C 373.4 421.9 373.8 422 374.3 422 Z M 353.1 414.3 V 420.8 C 353.1 421.9 353.6 422.5 354.7 422.5 C 355.9 422.5 356.5 421.6 356.5 419.9 C 356.5 419.7 356.5 419.4 356.5 419 C 356.5 418.6 356.4 418.4 356.4 418.2 L 356.5 414.2 L 364.2 414 C 365.8 414 366.9 414 367.6 413.9 C 368.6 413.7 369.2 413.3 369.2 412.6 C 369.2 412.1 368.8 411.4 368.2 410.6 L 366.7 408.8 L 358 396.2 C 357.2 395.1 356.2 394.6 355 394.6 C 353.7 394.6 353.1 395.2 353.1 396.3 V 410.9 C 352.9 410.9 352.6 410.9 352.3 410.9 C 350.2 410.9 349.1 411.5 349.1 412.6 C 349.1 413.5 349.5 414 350.4 414.2 C 350.8 414.3 351.7 414.4 353.1 414.3 Z M 356.5 399.4 C 359.6 404.4 362 408.2 363.8 410.7 L 356.5 410.8 V 399.4 Z" class="d"/>
  <path d="M 517.8 399.7 C 519.4 399 520.7 398 521.7 396.7 C 522.7 395.3 523.2 393.7 523.1 392.1 C 523 391.9 523 391.7 522.9 391.5 C 522.7 391.1 522.4 390.8 521.9 390.7 C 521.5 390.5 521 390.6 520.6 390.8 C 520.2 390.9 519.9 391.3 519.8 391.9 L 519.5 393.3 C 519.4 394 519.1 394.6 518.5 395.2 C 518 395.8 517.3 396.2 516.4 396.7 C 515.2 397.2 514.1 397.3 512.9 397 C 511.6 396.7 510.7 395.9 510.2 394.8 C 509.4 393.2 509.4 391.7 510.1 390.2 C 510.8 388.9 511.9 387.7 513.6 386.7 C 514.7 386.1 515.1 385.3 514.7 384.5 C 514.4 383.8 513.7 383.6 512.6 383.7 L 508.4 384.5 C 507.5 384.6 506.8 384.5 506.2 384.2 C 505.6 383.9 505.2 383.5 504.9 382.8 C 504.4 381.9 504.4 381 504.9 380.1 C 505.4 379.1 506.3 378.3 507.8 377.7 C 508.5 377.3 509.3 377.2 510.1 377.2 L 512.4 377.5 C 512.9 377.5 513.2 377.5 513.4 377.4 C 513.9 377.2 514.1 376.9 514.3 376.4 C 514.4 376 514.4 375.5 514.2 375.1 C 513.8 374.3 512.6 373.8 510.7 373.8 C 508.9 373.8 507.6 374 506.7 374.4 C 504.4 375.5 502.8 376.8 502 378.5 C 501 380.2 501 382.1 502 384.1 C 503.1 386.6 504.9 387.8 507.3 387.6 C 507.5 387.6 507.8 387.6 508 387.6 C 506.9 388.7 506.2 390 506 391.4 C 505.7 392.7 506 394.2 506.7 395.8 C 507.7 397.8 509.2 399.3 511.4 400.1 C 513.6 400.8 515.7 400.7 517.8 399.7 Z" class="d"/>
  <rect height="5" width="7" x="365" y="346" class="t"/>
</svg>
