<svg xmlns="http://www.w3.org/2000/svg" width="800" height="600" viewBox="0 0 800 600" class="a">
<style>
  .a{
    fill:none;
  }
  .b{
    fill:#F3F6FB;
  }
  .c{
    mix-blend-mode:multiply;
  }
  .d{
    fill:white;
  }
  .e{
    stroke:white;
  }
  .f{
    stroke:#F8C42D;
  }
  .g{
    stroke:#F5772B;
  }
  .h{
    stroke-dasharray:5;
    stroke:#F5772B;
  }
  .i{
    fill:#2B85F5;
  }
  .j{
    fill:#0F3046;
  }
  .k{
    fill:#CD9A88;
  }
  .l{
    fill:#D9E4F2;
  }
  .m{
    fill:#CD9A88;
    stroke:#F3F6FB;
  }
  .n{
    fill:#191847;
  }
  .o{
    fill:#F8C42D;
  }
  .p{
    fill:#FFC4AF;
  }
  .q{
    fill:#F8E71C;
  }
  .r{
    fill:#F4CFC2;
  }
  .s{
    fill:#F4CFC2;
    stroke:white;
  }
  .t{
    fill:#FB8C00;
  }
</style>
  <path d="M194.6 182.8C317 89.5 498.2 81.8 606 162.5 713.8 243.3 670.1 397.2 515.1 491.8 360 586.4 93.3 548.1 101.5 444.9 113.7 291.8 188.4 393.2 203.4 357 218.5 320.8 74.5 274.2 194.6 182.8Z" class="b"/>
  <g class="c">
    <path d="M267 107.8C413.6 80.6 580.7 158.5 647.6 282.2 714.5 405.9 616.3 524.9 439.7 538 263.1 551.1 36 391.4 82.8 301.7 152.2 168.7 181.2 295.6 208.6 269.8 236.1 244 123.4 134.4 267 107.8Z" class="b"/>
  </g>
  <path d="M417.6 127.3H523.9L503.1 273.1H397.4L417.6 127.3Z" class="d"/>
  <path d="M523.5 128C529.3 128 534 123.1 534 117 534 110.9 529.3 106 523.5 106 517.7 106 513 110.9 513 117 513 123.1 517.7 128 523.5 128Z" class="e"/>
  <path d="M521.9 105.8C521.9 105.8 530.9 103.2 537.7 112.5 544.6 121.9 531 157.8 531 166.5 531 175.2 539.1 198 539.1 205 539.1 212 537.7 223.4 537.7 223.4" class="e"/>
  <path d="M458.5 207C467.1 207 474 199.4 474 190 474 180.6 467.1 173 458.5 173 449.9 173 443 180.6 443 190 443 199.4 449.9 207 458.5 207Z" class="f"/>
  <path d="M445.2 146.5L448.8 132H486V143.4" class="f"/>
  <path d="M472.4 251.7L470.2 262.9H433.7V251.7" class="f"/>
  <path d="M466.6 219C460.5 219 447 227 449.3 242" class="g"/>
  <path d="M475.6 216.7C475.6 216.7 491.6 211.2 494.8 194 498.1 176.8 475.6 164.4 475.6 164.4" class="g"/>
  <path d="M456.2 138.5C451.6 138.5 454.1 158.8 465.3 158.8" class="g"/>
  <path d="M430.6 164.4C426.7 166.7 405.9 228.2 462.7 233.1" class="h"/>
  <path d="M414.7 190.3H511.8" class="f"/>
  <path d="M468 159L471.8 163.9" class="g"/>
  <path d="M464 146L467.8 150.9" class="g"/>
  <path d="M470 215L473.8 219.9" class="g"/>
  <path d="M472 230L475.8 234.9" class="g"/>
  <path d="M471.8 159L467 163" class="g"/>
  <path d="M468.8 147L464 151" class="g"/>
  <path d="M474.8 216L470 220" class="g"/>
  <path d="M476.8 231L472 235" class="g"/>
  <rect x="160" y="459" width="412" height="50" class="d"/>
  <path d="M276 432C276 432 282.1 432 285.8 432 289.6 432 298.1 432 298.1 432L294.9 448.2H276L276 432Z" class="i"/>
  <path d="M259.3 491C260.6 490.6 267.7 488 265.6 483.6 263.6 479.3 252.2 485.1 252.2 485.1 252.2 485.1 246.5 488.5 248.6 491 250.8 493.5 257.9 491.4 259.3 491Z" class="j"/>
  <path d="M255 478H249V489.8L255 488V478Z" class="k"/>
  <path d="M262 486.5C262 486.5 261.8 485.1 260.9 484.7 260.1 484.3 259.1 484 259.1 484" class="e"/>
  <path d="M260 487.5C260 487.5 259.8 486.1 258.9 485.7 258.1 485.3 257.1 485 257.1 485" class="e"/>
  <path d="M284.3 491C285.6 490.6 292.7 488 290.6 483.6 288.6 479.3 277.2 485.1 277.2 485.1 277.2 485.1 271.5 488.5 273.6 491 275.8 493.5 282.9 491.4 284.3 491Z" class="j"/>
  <path d="M280 478H274V489.8L280 488V478Z" class="k"/>
  <path d="M287 486.5C287 486.5 286.8 485.1 285.9 484.7 285.1 484.3 284.1 484 284.1 484" class="e"/>
  <path d="M285 487.5C285 487.5 284.8 486.1 283.9 485.7 283.1 485.3 282.1 485 282.1 485" class="e"/>
  <path d="M276.3 416.7C276.3 416.7 283.6 404.3 293.8 409 304.1 413.7 297.8 433 297.8 433 297.8 433 281.5 439.8 278.7 437.7 271 431.8 276.3 416.7 276.3 416.7Z" class="k"/>
  <path d="M187.6 433.1C187.6 433.1 183.4 459.4 198.1 462.2 212.9 464.9 232.3 469.7 246.5 462.2 260.7 454.6 289 438 289 427.9 289 417.7 266.5 405.8 266.5 405.8L187.6 433.1Z" class="l"/>
  <path d="M262.9 469C262.9 469 256.9 484.7 254.8 484.7 252.7 484.7 249.7 484.7 249.7 484.7L247 469H262.9Z" class="i"/>
  <path d="M287.9 469C287.9 469 281.4 483.7 278.9 483.7 276.5 483.7 273 483.7 273 483.7V469H287.9Z" class="i"/>
  <path d="M279.7 313.6C279.7 313.6 283 318.9 283 321.6 283 324.2 283 336.9 279.7 339.1 276.4 341.4 267.1 346.5 267.1 346.5L264.1 352.6C264.1 352.6 258.6 358.7 250.4 352.6 242.2 346.5 241.9 344.2 241.9 344.2L254.3 334.6V313.6H279.7Z" class="k"/>
  <path d="M273.3 316.5C277 316.5 277.3 314.2 280.3 314.2 283.4 314.2 287.9 314.1 286.6 310.4 285.4 306.8 281.5 305.4 281.5 305.4 281.5 305.4 282.3 301 279 300.2 275.6 299.4 271 301.9 271 301.9 271 301.9 265.1 294.2 260.4 297.2 255.8 300.2 254.2 308 254.2 308 254.2 308 248.2 307.2 246.1 311.8 244 316.5 250 322.7 250 322.7 250 322.7 245.6 327.6 248.8 329.3 251.9 331 253.4 330.3 253.4 330.3 253.4 330.3 254.4 336 257.4 336 260.4 336 263.6 333.5 263.6 333.5 263.6 333.5 258.9 331.8 260.4 327.6 261.9 323.5 266.2 323.4 266.2 323.4 266.2 323.4 265 327.6 269.2 327.6 273.3 327.6 271 321.3 271 321.3 271 321.3 272.4 320.4 272.4 319.3 272.4 318.2 269.6 316.5 273.3 316.5Z" class="j"/>
  <path d="M243.9 341C239.9 341 229.9 334.9 213.7 344.5 197.6 354.2 181.4 434 182.9 434 184.3 434 195.2 445.9 212.1 445.9 229 445.9 259.3 441.7 259.3 441.7 259.3 441.7 254.8 438.7 253.7 434.4 252.6 430.1 249.6 403.9 249.6 403.9L272.1 406.1C272.1 406.1 281.1 370.5 277.2 365 273.3 359.5 264.5 351.7 264.5 351.7 264.5 351.7 253.4 353.8 248.7 350.7 243.9 347.6 248 341 243.9 341Z" class="i"/>
  <path d="M269.6 405.8V413.5C269.6 413.5 278.9 403.5 286.6 403.5 294.4 403.5 299.4 404.5 299.4 404.5 299.4 404.5 301.1 404.9 300.3 405.8 299.4 406.8 290.9 405.8 290.9 405.8 290.9 405.8 301.1 406.5 300.3 408 299.4 409.5 290.9 408.5 290.9 408.5 290.9 408.5 300.3 408.4 300.3 409.6 300.3 410.9 289.7 411.2 290.9 411.2 292 411.2 298.1 411.9 298.1 413.5 298.1 415 289.1 412.6 289.1 412.6L283.4 413.5C283.4 413.5 270.2 444 257.6 444 245 444 248 402.1 248 402.1L269.6 405.8Z" class="m"/>
  <path d="M399 185.3L427.9 172.7C433 167.6 437.9 163.8 442.6 161.2 444 160.8 446.4 160.6 443.8 164.4 441.3 168.1 438.7 172.1 439.7 173.4 440.8 174.7 443.7 173.3 444.9 175.4 445.7 176.8 440.7 178.5 429.9 180.5L408 190 399 185.3Z" class="k"/>
  <path d="M296 377.6L296.4 371.2C296.4 370.6 297.1 370.1 297.7 370.2 301.8 370.8 307 369 307 369 312.2 372.6 319.4 374.5 323 375.2 324.2 375.5 325 376.7 324.6 377.9L324.3 379H307 297L296 377.6Z" class="n"/>
  <path d="M267.4 159.4C267.4 159.4 290.3 140.8 294.4 140.8 298.5 140.8 352.1 138.1 357.5 140.8 362.9 143.4 395.5 183.5 395.5 183.5L424.3 174 430.6 183.5C430.6 183.5 399.6 202 392 202 384.3 202 360.1 180.7 360.1 180.7V233.6H352.5L357.5 293.6 349 366H336.7V295.6L328.3 238H324.5L309.3 366H297.6L299.5 238 297.6 233.6H292.3L294.4 203.3C294.4 203.3 253.4 196.5 248 190 242.6 183.5 248 180.7 248 180.7L267.4 159.4ZM292.7 174C290.5 174 273.8 183.1 273.8 183.1L294.9 194C294.9 194 295 174 292.7 174Z" class="i"/>
  <path d="M329 149C324.7 149 319.5 144.4 319.5 144.4 319.5 144.4 321.5 131.5 320.6 128.8 320.4 128.3 320.2 127.3 320 126.1 318.8 126.6 316.9 127.2 316.1 126.9 315.8 126.7 315.6 126.7 315.4 126.6 314.5 126.3 314 126.2 314 123.3 314 119.9 316.1 119 316.1 119H318.8L319.2 120.1C318.8 115.3 318.9 109.9 320.6 108.1 321.8 106.8 322.4 106.1 323.2 105.6 324.5 104.8 326.2 104.7 330.8 104.1 338.3 103.2 340.4 109.9 340.4 109.9 340.4 109.9 343 127.7 341.4 130.2 339.9 132.8 338.5 134 338.5 134V145.6C338.5 145.6 333.4 149 329 149Z" class="k"/>
  <path d="M321.8 124.5L324.5 123.3C324.5 123.3 320.5 117.1 321.8 114.6 323.2 112.1 324.7 109.5 326.2 110.5 327.7 111.5 328.4 113.9 332 113.4 335.6 112.9 341.1 113.4 343.8 110.5 346.4 107.7 346.6 103.7 345 102.4 343.5 101.1 338.9 102.9 338.9 102.9 338.9 102.9 341.2 101.7 345 101 343.6 98.5 333.4 96 333.4 96L330.5 100.3 332 94C332 94 325.9 93.7 323.3 96 320.7 98.3 321 105 320.2 102.4 319.4 99.8 323 97.2 320.2 96.6 317.4 96.1 312 105.1 312 109.8 312 114.6 315 120.8 315 120.8 315 120.8 317.2 117.9 318.2 119.3 319.2 120.8 321.8 124.5 321.8 124.5Z" class="j"/>
  <path d="M319 143.4C319 143.4 323.8 147.5 327.7 147.5 331.6 147.5 339 143.4 339 143.4 339 143.4 344.1 214.5 343.5 214.5 342.8 214.5 310.6 213.2 310.6 213.2L319 143.4Z" class="d"/>
  <path d="M324.9 147.3L327.5 152.3C327.5 152.3 323.5 174.6 324.7 180.1 327.5 193.1 322 211.1 322.3 211.1 322.8 211.1 329.4 211.1 329.4 211.1 329.4 211.1 333.2 192.4 330.3 179.6 327.3 166.8 329.4 152.3 329.4 152.3L332.5 146.7C332.5 146.7 329.3 147.8 328.3 147.8 327.2 147.8 324.9 147.3 324.9 147.3Z" class="o"/>
  <path d="M378.1 491.9C377.2 492.9 371.9 498.2 368.8 494.5 365.7 490.8 375.8 482.9 375.8 482.9 375.8 482.9 381.3 479.2 382.7 482.2 384 485.2 379.1 490.8 378.1 491.9Z" class="j"/>
  <path d="M364.2 469L373.6 484.7 379.9 481.7C379.9 481.7 380.2 469.9 377.5 469.9 374.9 469.9 364.2 469 364.2 469Z" class="p"/>
  <path d="M364 469.8L369.6 479.7 379.8 476.1C379.8 476.1 380.5 469.8 379.8 469.8 379 469.8 364 469.8 364 469.8Z" class="i"/>
  <path d="M372 493.7L375 496.7" class="e"/>
  <path d="M375 492.7L378 495.7" class="e"/>
  <path d="M377 490.7L380 493.7" class="e"/>
  <path d="M379 486.7L382 489.7" class="e"/>
  <path d="M380.9 484.7L383.9 487.7" class="e"/>
  <path d="M409.6 422.6C420.4 419.1 411.5 382 409.6 382 407.8 382 382.7 386.6 382.7 386.6L380 415.1C380 415.1 398.9 426 409.6 422.6ZM326.4 422.8C317.9 419.8 324.4 395.2 324.4 395.2 324.4 395.2 365.6 390 368.4 390 371.2 390 358.4 415.2 358.4 415.2 358.4 415.2 334.9 425.9 326.4 422.8Z" class="p"/>
  <path d="M382.7 386.6L382.6 386.2 382.2 386.2 382.2 386.6 382.7 386.6ZM380 415.1L379.5 415 379.5 415.3 379.7 415.5 380 415.1ZM324.4 395.2L324.4 394.8 324 394.8 323.9 395.1 324.4 395.2ZM358.4 415.2L358.6 415.6 358.7 415.5 358.8 415.4 358.4 415.2ZM409.6 382.5C409.5 382.5 409.4 382.4 409.5 382.5 409.5 382.5 409.6 382.6 409.6 382.7 409.8 382.9 410 383.3 410.2 383.8 410.5 384.8 411 386.2 411.5 388 412.4 391.5 413.3 396.2 413.9 401 414.4 405.9 414.6 410.8 413.9 414.7 413.3 418.6 411.9 421.3 409.5 422.1L409.8 423C412.8 422.1 414.3 418.8 414.9 414.8 415.6 410.8 415.4 405.8 414.9 400.9 414.3 396 413.4 391.3 412.4 387.7 412 385.9 411.5 384.5 411.1 383.4 410.9 382.9 410.7 382.5 410.5 382.2 410.4 382 410.3 381.9 410.2 381.8 410.1 381.7 409.9 381.5 409.6 381.5V382.5ZM382.7 386.6C382.8 387.1 382.8 387.1 382.8 387.1 382.8 387.1 382.8 387.1 382.8 387.1 382.8 387.1 382.8 387.1 382.8 387.1 382.8 387.1 382.8 387.1 382.8 387.1 382.8 387.1 382.8 387.1 382.8 387.1 382.9 387.1 383 387.1 383.1 387.1 383.2 387.1 383.5 387 383.9 386.9 384.5 386.8 385.5 386.6 386.7 386.4 389.1 386 392.3 385.4 395.5 384.8 398.8 384.2 402.1 383.7 404.7 383.2 406 383 407.2 382.8 408 382.7 408.9 382.6 409.5 382.5 409.6 382.5V381.5C409.4 381.5 408.7 381.6 407.9 381.7 407 381.8 405.9 382 404.6 382.2 401.9 382.7 398.6 383.2 395.4 383.8 392.1 384.4 388.9 385 386.5 385.4 385.4 385.6 384.4 385.8 383.7 386 383.3 386 383.1 386.1 382.9 386.1 382.8 386.1 382.7 386.1 382.7 386.1 382.6 386.1 382.6 386.1 382.6 386.1 382.6 386.2 382.6 386.2 382.6 386.2 382.6 386.2 382.6 386.2 382.6 386.2 382.6 386.2 382.6 386.2 382.6 386.2 382.6 386.2 382.6 386.2 382.7 386.6ZM380.5 415.1L383.2 386.7 382.2 386.6 379.5 415 380.5 415.1ZM409.5 422.1C406.9 422.9 403.8 422.9 400.6 422.4 397.3 421.8 394 420.8 391 419.7 388 418.5 385.3 417.3 383.3 416.3 382.4 415.8 381.6 415.4 381.1 415.1 380.8 415 380.6 414.8 380.5 414.8 380.4 414.7 380.3 414.7 380.3 414.7 380.3 414.7 380.3 414.7 380.3 414.7 380.3 414.6 380.3 414.6 380.3 414.6 380.3 414.6 380.3 414.6 380.3 414.6 380.3 414.6 380.3 414.6 380.3 414.6 380.3 414.6 380.3 414.6 380 415.1 379.7 415.5 379.7 415.5 379.8 415.5 379.8 415.5 379.8 415.5 379.8 415.5 379.8 415.5 379.8 415.5 379.8 415.5 379.8 415.5 379.8 415.5 379.8 415.5 379.8 415.5 379.8 415.5 379.8 415.5 379.8 415.6 379.9 415.6 380 415.6 380.1 415.7 380.3 415.8 380.6 416 381.1 416.3 381.9 416.7 382.9 417.2 384.8 418.2 387.6 419.4 390.6 420.6 393.7 421.8 397.1 422.8 400.4 423.4 403.7 423.9 407 423.9 409.8 423L409.5 422.1ZM324.4 395.2C323.9 395.1 323.9 395.1 323.9 395.1 323.9 395.1 323.9 395.1 323.9 395.1 323.9 395.1 323.9 395.1 323.9 395.1 323.9 395.1 323.9 395.1 323.9 395.1 323.9 395.1 323.9 395.2 323.9 395.2 323.9 395.2 323.9 395.3 323.9 395.4 323.8 395.6 323.8 395.8 323.7 396.2 323.5 396.9 323.3 397.8 323 399 322.6 401.4 322 404.6 321.7 407.8 321.4 411.1 321.4 414.5 322 417.3 322.6 420.1 323.8 422.4 326.2 423.3L326.5 422.4C324.6 421.7 323.5 419.8 323 417.1 322.4 414.5 322.4 411.2 322.7 407.9 323 404.7 323.5 401.6 324 399.2 324.3 398.1 324.5 397.1 324.6 396.4 324.7 396.1 324.8 395.8 324.8 395.6 324.9 395.6 324.9 395.5 324.9 395.4 324.9 395.4 324.9 395.4 324.9 395.4 324.9 395.4 324.9 395.4 324.9 395.4 324.9 395.4 324.9 395.4 324.9 395.4 324.9 395.4 324.9 395.4 324.9 395.4 324.9 395.4 324.9 395.4 324.4 395.2ZM368.4 389.5C368 389.5 367 389.6 365.7 389.7 364.3 389.9 362.4 390.1 360.3 390.3 356 390.8 350.6 391.5 345.3 392.1 340 392.8 334.7 393.4 330.8 393.9 328.9 394.2 327.3 394.4 326.1 394.5 325.6 394.6 325.1 394.7 324.8 394.7 324.7 394.7 324.6 394.7 324.5 394.7 324.4 394.7 324.4 394.7 324.4 394.7 324.4 394.7 324.4 394.7 324.4 394.7 324.4 394.8 324.4 394.8 324.4 394.8 324.4 394.8 324.4 394.8 324.4 394.8 324.4 394.8 324.4 394.8 324.4 395.2 324.5 395.7 324.5 395.7 324.5 395.7 324.5 395.7 324.5 395.7 324.5 395.7 324.5 395.7 324.5 395.7 324.5 395.7 324.5 395.7 324.5 395.7 324.5 395.7 324.5 395.7 324.6 395.7 324.6 395.7 324.7 395.7 324.8 395.7 325 395.7 325.3 395.6 325.7 395.6 326.3 395.5 327.4 395.4 329 395.2 331 394.9 334.9 394.4 340.1 393.8 345.4 393.1 350.7 392.5 356.2 391.8 360.4 391.3 362.5 391.1 364.4 390.9 365.8 390.7 367.2 390.6 368.1 390.5 368.4 390.5V389.5ZM358.4 415.2C358.8 415.4 358.8 415.4 358.8 415.4 358.8 415.4 358.8 415.4 358.8 415.4 358.8 415.4 358.8 415.4 358.8 415.4 358.8 415.4 358.8 415.4 358.8 415.4 358.8 415.4 358.8 415.3 358.9 415.3 358.9 415.3 358.9 415.2 359 415.1 359.1 414.9 359.2 414.6 359.4 414.3 359.7 413.6 360.2 412.6 360.8 411.4 361.9 409.1 363.5 405.9 364.9 402.8 366.3 399.6 367.7 396.5 368.5 394.1 368.9 392.9 369.2 391.9 369.3 391.1 369.3 390.8 369.3 390.4 369.2 390.1 369.2 390 369.1 389.8 368.9 389.7 368.8 389.6 368.6 389.5 368.4 389.5V390.5C368.4 390.5 368.4 390.5 368.3 390.5 368.3 390.4 368.3 390.4 368.3 390.4 368.3 390.5 368.3 390.7 368.3 391 368.2 391.7 368 392.6 367.6 393.8 366.8 396.1 365.4 399.2 364 402.4 362.6 405.5 361 408.6 359.9 411 359.3 412.2 358.8 413.2 358.5 413.9 358.3 414.2 358.2 414.5 358.1 414.6 358 414.7 358 414.8 358 414.9 358 414.9 357.9 414.9 357.9 414.9 357.9 414.9 357.9 414.9 357.9 414.9 357.9 414.9 357.9 414.9 357.9 414.9 357.9 414.9 357.9 414.9 357.9 414.9 357.9 414.9 357.9 414.9 358.4 415.2ZM326.2 423.3C328.4 424.1 331.6 424 335 423.4 338.5 422.8 342.2 421.8 345.7 420.6 349.2 419.5 352.4 418.2 354.8 417.2 355.9 416.8 356.9 416.4 357.5 416.1 357.9 415.9 358.1 415.8 358.3 415.7 358.4 415.7 358.5 415.7 358.5 415.6 358.5 415.6 358.6 415.6 358.6 415.6 358.6 415.6 358.6 415.6 358.6 415.6 358.6 415.6 358.6 415.6 358.6 415.6 358.6 415.6 358.6 415.6 358.6 415.6 358.6 415.6 358.6 415.6 358.4 415.2 358.2 414.7 358.2 414.7 358.2 414.7 358.2 414.7 358.2 414.7 358.2 414.7 358.2 414.7 358.2 414.7 358.2 414.7 358.2 414.7 358.2 414.7 358.1 414.7 358.1 414.7 358.1 414.7 358.1 414.7 358.1 414.8 358 414.8 357.9 414.8 357.7 414.9 357.5 415 357.1 415.2 356.5 415.4 355.5 415.8 354.4 416.3 352 417.3 348.8 418.5 345.4 419.7 341.9 420.8 338.2 421.9 334.9 422.4 331.5 423 328.5 423.1 326.5 422.4L326.2 423.3Z" class="b"/>
  <path d="M359.5 352.9C361.3 350.5 361.9 338.4 361.9 338.4 361.9 338.4 356.7 340.1 355.3 335.7 353.9 331.3 358.1 330.7 358.7 330.7 359.3 330.7 379.2 329 379.2 329 379.2 329 386.6 328.7 385.9 333.1 385.3 337.5 378.7 337.7 378.7 337.7 378.7 337.7 378.1 352.1 381.4 357.1 384.8 362.1 358.7 355.6 358.7 355.6 358.7 355.6 357.8 355.2 359.5 352.9Z" class="p"/>
  <path d="M346 441.1C346 441.1 340.4 430.7 337.5 429.7 334.6 428.7 329.9 428.2 325.1 432.5 320.3 436.8 321.1 446.1 321.1 446.1H333.6L342 455 346 441.1Z" class="p"/>
  <path d="M340.8 439.6C340.8 439.6 336.3 453.1 342.9 456.8 349.6 460.5 379.9 467.2 391.3 459.4 402.7 451.5 404.5 443.4 391.3 438.2 378.1 433 340.8 439.6 340.8 439.6Z" class="l"/>
  <path d="M328.6 374C328.6 374 332.4 349.9 369.4 352.3 406.5 354.6 402.9 358.3 408.1 367.5 413.2 376.6 415.9 405.8 415.9 405.8L399 409.2 399.5 443.1C399.5 443.1 372.5 449.4 363.4 447.6 354.3 445.9 334.9 440.7 334.9 440.7 334.9 440.7 338.8 409.6 336.9 409.2 334.9 408.8 321 408.2 321 405.8 321 403.4 328.6 374 328.6 374Z" class="i"/>
  <path d="M370.4 309.5C370.4 309.5 361.6 305.2 355.7 313 349.8 320.7 355.6 330.3 358.6 335.4 361.4 340.2 366.8 344.8 367 348.9 367.3 357.4 355 366 355 366 355 366 365 361.2 365 362.5 365 370.3 369.5 361.2 374 362.5 377.2 363.4 380 362.5 380 362.5 380 362.5 370.2 356.5 369.7 348.9 369.5 345.2 376.2 340.2 378.9 336.7 385.1 328.9 387.1 314.9 382.3 311.1 377.5 307.2 370.4 309.5 370.4 309.5Z" class="q"/>
  <path d="M464.1 314.4C468.2 305.8 475.9 298.2 475.9 298.2 475.9 298.2 483.5 295.6 493.8 304.4 504.2 313.3 493.8 330 493.8 330 493.8 330 496.4 340.8 504 345 511.7 349.2 483.6 350.6 483.6 350.6L478.8 335.2C478.8 335.2 472.4 341.6 463.9 330 461.9 327.3 461.4 324.1 462 320.9 460.4 320.1 459.2 319.5 459 319.5 458.7 319.5 461.7 316.6 464.1 314.4Z" class="r"/>
  <path d="M472.7 495C471.4 494.6 464.3 492 466.4 487.6 468.4 483.3 479.8 489.1 479.8 489.1 479.8 489.1 485.5 492.5 483.4 495 481.2 497.5 474.1 495.4 472.7 495Z" class="j"/>
  <path d="M477 482H483V493.8L477 492V482Z" class="k"/>
  <path d="M470 490.5C470 490.5 470.2 489.1 471.1 488.7 471.9 488.3 472.9 488 472.9 488" class="e"/>
  <path d="M472 491.5C472 491.5 472.2 490.1 473.1 489.7 473.9 489.3 474.9 489 474.9 489" class="e"/>
  <path d="M448.7 496C447.4 495.6 440.3 493 442.4 488.6 444.4 484.3 455.8 490.1 455.8 490.1 455.8 490.1 461.5 493.5 459.4 496 457.2 498.5 450.1 496.4 448.7 496Z" class="j"/>
  <path d="M453 483H459V494.8L453 493V483Z" class="k"/>
  <path d="M446 491.5C446 491.5 446.2 490.1 447.1 489.7 447.9 489.3 448.9 489 448.9 489" class="e"/>
  <path d="M448 492.5C448 492.5 448.2 491.1 449.1 490.7 449.9 490.3 450.9 490 450.9 490" class="e"/>
  <path d="M446.4 447C444.4 432.8 442.9 420.8 442.9 420.8H474.2L468.8 447H446.4ZM449.6 470C451.6 483 453.4 493.5 454.2 493.5H459.3L464.1 470H449.6Z" class="i"/>
  <path d="M469.9 470.1C469.9 470.1 474.5 490.8 477 490.8 479.4 490.8 482.9 490.8 482.9 490.8L484.8 470.1H469.9Z" class="i"/>
  <path d="M451.6 427C459 434.7 487 464.6 505.6 464.6 524.3 464.6 545.4 452.4 547.1 445.8 548.8 439.2 542.8 421.5 542.8 421.5L468.6 400.8C468.6 400.8 444.2 419.3 451.6 427Z" class="l"/>
  <path d="M476.7 413.8C469.2 418.9 457.7 434.6 444.6 432 431.5 429.4 452.3 382.8 452.3 382.8L484.5 397.2C484.5 397.2 484.1 408.6 476.7 413.8Z" class="s"/>
  <path d="M447.5 387.7C447.5 387.7 449.6 368.9 461.2 359.9 472.8 351 500.2 328.4 517.4 335.2 534.6 342 548.3 409.4 548.3 429.2 548.3 429.2 532 443.2 517.4 446.5 502.9 449.8 474.9 442 474.9 442L469 397.2 447.5 387.7Z" class="i"/>
  <path d="M473 302C473 302 478.3 302.9 478.3 308.4 478.3 314 473 320 473 320H475.6C475.6 320 481 314.6 483.2 317.3 485.5 320 487.8 324.8 483.2 324.8 478.7 324.8 484.2 329.4 486 330 487.8 330.5 493 327.9 493 327.9 493 327.9 498.5 344.5 499.8 346.1 501 347.7 503.5 342.8 503.5 342.8 503.5 342.8 505.2 348.6 508.2 348.6 511.3 348.6 508.2 342.8 508.2 342.8 508.2 342.8 510.3 346.2 513 342.8 515.7 339.5 495.9 327.9 495.9 327.9 495.9 327.9 511.8 306.1 495.3 300 478.7 293.9 473 302 473 302Z" class="o"/>
  <path d="M308.7 486C307.4 485.6 300.3 483 302.4 478.6 304.4 474.3 315.8 480.1 315.8 480.1 315.8 480.1 321.5 483.5 319.4 486 317.2 488.5 310.1 486.4 308.7 486Z" class="j"/>
  <path d="M313 473H319V484.8L313 483V473Z" class="p"/>
  <path d="M306 481.5C306 481.5 306.2 480.1 307.1 479.7 307.9 479.3 308.9 479 308.9 479" class="e"/>
  <path d="M308 482.5C308 482.5 308.2 481.1 309.1 480.7 309.9 480.3 310.9 480 310.9 480" class="e"/>
  <path d="M312 470V477.7H319.2L322.8 470H312Z" class="i"/>
  <path d="M215.1 399.2C212.7 398.6 210.9 397.5 209.7 396.1 208.4 394.5 208 392.5 208.6 390.2 209.5 386.6 211.4 384.4 214.4 383.8 212.7 382 212.2 380 212.8 377.8 213.4 375.6 214.6 374.1 216.5 373.1 218.4 372.1 220.4 371.9 222.5 372.5 227.3 373.7 229 376.7 227.7 381.4 227.4 382.8 226.8 383.7 226.1 384.3 225.5 384.8 224.4 385.2 223 385.5 224.5 386.8 225.4 388.1 225.8 389.2 226.3 390.6 226.3 392.3 225.7 394.3 225.1 396.6 223.8 398.2 221.7 399.1 219.8 399.8 217.6 399.9 215.1 399.2ZM221.6 375.5C220.2 375.1 218.9 375.2 217.9 375.8 217.1 376.4 216.4 377.4 216.1 378.7 215.7 380.3 216.7 381.7 219.1 383.1 220.6 383.1 221.6 382.9 222.3 382.7 223.4 382.3 224.1 381.6 224.4 380.5 224.8 379 224.8 377.8 224.3 377 223.8 376.3 222.9 375.8 221.6 375.5ZM218.4 386.1C216.4 386.5 215 386.9 214.3 387.4 213.1 388 212.3 389.2 211.9 391 211.5 392.4 211.9 393.6 213 394.7 213.8 395.4 214.7 395.9 215.9 396.3 217.9 396.8 219.4 396.7 220.4 396 221.3 395.4 221.9 394.3 222.3 392.8 222.7 391.3 222.4 390 221.5 388.8 220.9 387.9 219.9 387.1 218.4 386.1Z" class="d"/>
  <path d="M374.3 422C374.5 422 375 421.9 375.5 421.8 376 421.6 376.4 421.5 376.7 421.5 377.3 421.5 378.2 421.5 379.4 421.6 380.6 421.7 381.5 421.7 382.1 421.7 382.6 421.7 383.2 421.8 384.2 421.9 385 422 385.7 422.1 386.2 422.1 386.3 422.1 386.5 422 386.7 422 387 421.9 387.2 421.9 387.3 421.9 388.1 421.9 388.6 421.5 388.9 420.7 389 420.3 389.1 419.6 389.1 418.6 389.1 415.9 388.3 413.7 386.9 412 386.2 411.3 384.3 409.9 381.4 407.8 379.7 406.7 378.6 405.8 378 405.1 377 404 376.5 402.7 376.5 401.2 376.5 400.4 377 399.8 377.9 399.2 378.8 398.6 379.6 398.4 380.5 398.4 381.5 398.4 382.6 398.7 383.5 399.3L386 401.3C386.6 401.7 387 401.9 387.3 401.9 388.5 401.9 389.1 401.4 389.1 400.4 389.1 399.9 388.9 399.4 388.4 399 387 397.7 385.8 396.8 384.8 396.2 383.4 395.4 382 395 380.5 395 378.6 395 376.9 395.5 375.4 396.5 373.7 397.7 372.9 399.2 372.9 401 372.9 402.2 373.1 403.3 373.4 404.3 373.7 405.3 374.2 406.2 374.9 407.1 375.8 408.1 377.3 409.3 379.4 410.6 381.6 412 383.1 413 383.7 413.8 385 415.1 385.7 416.7 385.7 418.7L382 418.3C379.6 418.2 377.8 418.1 376.7 418.1 375.8 418.1 375 418.3 374.2 418.6 373.1 419 372.6 419.6 372.6 420.3 372.6 420.7 372.8 421.1 373.1 421.5 373.4 421.9 373.8 422 374.3 422ZM353.1 414.3V420.8C353.1 421.9 353.6 422.5 354.7 422.5 355.9 422.5 356.5 421.6 356.5 419.9 356.5 419.7 356.5 419.4 356.5 419 356.5 418.6 356.4 418.4 356.4 418.2L356.5 414.2 364.2 414C365.8 414 366.9 414 367.6 413.9 368.6 413.7 369.2 413.3 369.2 412.6 369.2 412.1 368.8 411.4 368.2 410.6L366.7 408.8 358 396.2C357.2 395.1 356.2 394.6 355 394.6 353.7 394.6 353.1 395.2 353.1 396.3V410.9C352.9 410.9 352.6 410.9 352.3 410.9 350.2 410.9 349.1 411.5 349.1 412.6 349.1 413.5 349.5 414 350.4 414.2 350.8 414.3 351.7 414.4 353.1 414.3ZM356.5 399.4C359.6 404.4 362 408.2 363.8 410.7L356.5 410.8V399.4Z" class="d"/>
  <path d="M517.8 399.7C519.4 399 520.7 398 521.7 396.7 522.7 395.3 523.2 393.7 523.1 392.1 523 391.9 523 391.7 522.9 391.5 522.7 391.1 522.4 390.8 521.9 390.7 521.5 390.5 521 390.6 520.6 390.8 520.2 390.9 519.9 391.3 519.8 391.9L519.5 393.3C519.4 394 519.1 394.6 518.5 395.2 518 395.8 517.3 396.2 516.4 396.7 515.2 397.2 514.1 397.3 512.9 397 511.6 396.7 510.7 395.9 510.2 394.8 509.4 393.2 509.4 391.7 510.1 390.2 510.8 388.9 511.9 387.7 513.6 386.7 514.7 386.1 515.1 385.3 514.7 384.5 514.4 383.8 513.7 383.6 512.6 383.7L508.4 384.5C507.5 384.6 506.8 384.5 506.2 384.2 505.6 383.9 505.2 383.5 504.9 382.8 504.4 381.9 504.4 381 504.9 380.1 505.4 379.1 506.3 378.3 507.8 377.7 508.5 377.3 509.3 377.2 510.1 377.2L512.4 377.5C512.9 377.5 513.2 377.5 513.4 377.4 513.9 377.2 514.1 376.9 514.3 376.4 514.4 376 514.4 375.5 514.2 375.1 513.8 374.3 512.6 373.8 510.7 373.8 508.9 373.8 507.6 374 506.7 374.4 504.4 375.5 502.8 376.8 502 378.5 501 380.2 501 382.1 502 384.1 503.1 386.6 504.9 387.8 507.3 387.6 507.5 387.6 507.8 387.6 508 387.6 506.9 388.7 506.2 390 506 391.4 505.7 392.7 506 394.2 506.7 395.8 507.7 397.8 509.2 399.3 511.4 400.1 513.6 400.8 515.7 400.7 517.8 399.7Z" class="d"/>
  <rect x="365" y="346" width="7" height="5" class="t"/>
</svg>
