<svg width="800" height="600" viewBox="0 0 800 600" fill="none" 
  xmlns="http://www.w3.org/2000/svg">
  <style>
    .animate {
      transition: transform 0;
    }
  </style>
  <g>
    <path d="M194.6 182.8C317 89.5 498.2 81.8 606 162.5C713.8 243.3 670.1 397.2 515.1 491.8C360 586.4 93.3 548.1 101.5 444.9C113.7 291.8 188.4 393.2 203.4 357C218.5 320.8 74.5 274.2 194.6 182.8Z" fill="#F3F6FB"/>
    <g style="mix-blend-mode:multiply">
      <g style="mix-blend-mode:multiply">
        <path d="M267 107.8C413.6 80.6 580.7 158.5 647.6 282.2C714.5 405.9 616.3 524.9 439.7 538C263.1 551.1 36 391.4 82.8 301.7C152.2 168.7 181.2 295.6 208.6 269.8C236.1 244 123.4 134.4 267 107.8Z" fill="#F3F6FB"/>
      </g>
    </g>
    <path d="M417.6 127.3H523.9L503.1 273.1H397.4L417.6 127.3Z" fill="white"/>
    <path d="M523.5 128C529.3 128 534 123.1 534 117C534 110.9 529.3 106 523.5 106C517.7 106 513 110.9 513 117C513 123.1 517.7 128 523.5 128Z" stroke="white"/>
    <path d="M521.9 105.8C521.9 105.8 530.9 103.2 537.7 112.5C544.6 121.9 531 157.8 531 166.5C531 175.2 539.1 198 539.1 205C539.1 212 537.7 223.4 537.7 223.4" stroke="white"/>
    <path d="M458.5 207C467.1 207 474 199.4 474 190C474 180.6 467.1 173 458.5 173C449.9 173 443 180.6 443 190C443 199.4 449.9 207 458.5 207Z" stroke="#F8C42D"/>
    <path d="M445.2 146.5L448.8 132H486V143.4" stroke="#F8C42D"/>
    <path d="M472.4 251.7L470.2 262.9H433.7V251.7" stroke="#F8C42D"/>
    <path d="M466.6 219C460.5 219 447 227 449.3 242" stroke="#F5772B"/>
    <path d="M475.6 216.7C475.6 216.7 491.6 211.2 494.8 194C498.1 176.8 475.6 164.4 475.6 164.4" stroke="#F5772B"/>
    <path d="M456.2 138.5C451.6 138.5 454.1 158.8 465.3 158.8" stroke="#F5772B"/>
    <path d="M430.6 164.4C426.7 166.7 405.9 228.2 462.7 233.1" stroke="#F5772B" stroke-dasharray="5 5"/>
    <path d="M414.7 190.3H511.8" stroke="#F8C42D"/>
    <path d="M468 159L471.8 163.9" stroke="#F5772B"/>
    <path d="M464 146L467.8 150.9" stroke="#F5772B"/>
    <path d="M470 215L473.8 219.9" stroke="#F5772B"/>
    <path d="M472 230L475.8 234.9" stroke="#F5772B"/>
    <path d="M471.8 159L467 163" stroke="#F5772B"/>
    <path d="M468.8 147L464 151" stroke="#F5772B"/>
    <path d="M474.8 216L470 220" stroke="#F5772B"/>
    <path d="M476.8 231L472 235" stroke="#F5772B"/>
    <path d="M572 459H160V509H572V459Z" fill="white"/>
    <path d="M276 432C276 432 282.1 432 285.8 432C289.6 432 298.1 432 298.1 432L294.9 448.2H276V432Z" fill="#2B85F5"/>
    <path d="M259.3 491C260.6 490.6 267.7 488 265.6 483.6C263.6 479.3 252.2 485.1 252.2 485.1C252.2 485.1 246.5 488.5 248.6 491C250.8 493.5 257.9 491.4 259.3 491Z" fill="#0F3046"/>
    <path d="M255 478H249V489.8L255 488V478Z" fill="#CD9A88"/>
    <path d="M262 486.5C262 486.5 261.8 485.1 260.9 484.7C260.1 484.3 259.1 484 259.1 484" stroke="white"/>
    <path d="M260 487.5C260 487.5 259.8 486.1 258.9 485.7C258.1 485.3 257.1 485 257.1 485" stroke="white"/>
    <path d="M284.3 491C285.6 490.6 292.7 488 290.6 483.6C288.6 479.3 277.2 485.1 277.2 485.1C277.2 485.1 271.5 488.5 273.6 491C275.8 493.5 282.9 491.4 284.3 491Z" fill="#0F3046"/>
    <path d="M280 478H274V489.8L280 488V478Z" fill="#CD9A88"/>
    <path d="M287 486.5C287 486.5 286.8 485.1 285.9 484.7C285.1 484.3 284.1 484 284.1 484" stroke="white"/>
    <path d="M285 487.5C285 487.5 284.8 486.1 283.9 485.7C283.1 485.3 282.1 485 282.1 485" stroke="white"/>
    <path d="M276.3 416.7C276.3 416.7 283.6 404.3 293.8 409C304.1 413.7 297.8 433 297.8 433C297.8 433 281.5 439.8 278.7 437.7C271 431.8 276.3 416.7 276.3 416.7Z" fill="#CD9A88"/>
    <path d="M187.6 433.1C187.6 433.1 183.4 459.4 198.1 462.2C212.9 464.9 232.3 469.7 246.5 462.2C260.7 454.6 289 438 289 427.9C289 417.7 266.5 405.8 266.5 405.8L187.6 433.1Z" fill="#D9E4F2"/>
    <path d="M262.9 469C262.9 469 256.9 484.7 254.8 484.7C252.7 484.7 249.7 484.7 249.7 484.7L247 469H262.9Z" fill="#2B85F5"/>
    <path d="M287.9 469C287.9 469 281.4 483.7 278.9 483.7C276.5 483.7 273 483.7 273 483.7V469H287.9Z" fill="#2B85F5"/>
    <path d="M279.7 313.6C279.7 313.6 283 318.9 283 321.6C283 324.2 283 336.9 279.7 339.1C276.4 341.4 267.1 346.5 267.1 346.5L264.1 352.6C264.1 352.6 258.6 358.7 250.4 352.6C242.2 346.5 241.9 344.2 241.9 344.2L254.3 334.6V313.6H279.7Z" fill="#CD9A88"/>
    <path d="M273.3 316.5C277 316.5 277.3 314.2 280.3 314.2C283.4 314.2 287.9 314.1 286.6 310.4C285.4 306.8 281.5 305.4 281.5 305.4C281.5 305.4 282.3 301 279 300.2C275.6 299.4 271 301.9 271 301.9C271 301.9 265.1 294.2 260.4 297.2C255.8 300.2 254.2 308 254.2 308C254.2 308 248.2 307.2 246.1 311.8C244 316.5 250 322.7 250 322.7C250 322.7 245.6 327.6 248.8 329.3C251.9 331 253.4 330.3 253.4 330.3C253.4 330.3 254.4 336 257.4 336C260.4 336 263.6 333.5 263.6 333.5C263.6 333.5 258.9 331.8 260.4 327.6C261.9 323.5 266.2 323.4 266.2 323.4C266.2 323.4 265 327.6 269.2 327.6C273.3 327.6 271 321.3 271 321.3C271 321.3 272.4 320.4 272.4 319.3C272.4 318.2 269.6 316.5 273.3 316.5Z" fill="#0F3046"/>
    <path d="M243.9 341C239.9 341 229.9 334.9 213.7 344.5C197.6 354.2 181.4 434 182.9 434C184.3 434 195.2 445.9 212.1 445.9C229 445.9 259.3 441.7 259.3 441.7C259.3 441.7 254.8 438.7 253.7 434.4C252.6 430.1 249.6 403.9 249.6 403.9L272.1 406.1C272.1 406.1 281.1 370.5 277.2 365C273.3 359.5 264.5 351.7 264.5 351.7C264.5 351.7 253.4 353.8 248.7 350.7C243.9 347.6 248 341 243.9 341Z" fill="#2B85F5"/>
    <path d="M269.6 405.8V413.5C269.6 413.5 278.9 403.5 286.6 403.5C294.4 403.5 299.4 404.5 299.4 404.5C299.4 404.5 301.1 404.9 300.3 405.8C299.4 406.8 290.9 405.8 290.9 405.8C290.9 405.8 301.1 406.5 300.3 408C299.4 409.5 290.9 408.5 290.9 408.5C290.9 408.5 300.3 408.4 300.3 409.6C300.3 410.9 289.7 411.2 290.9 411.2C292 411.2 298.1 411.9 298.1 413.5C298.1 415 289.1 412.6 289.1 412.6L283.4 413.5C283.4 413.5 270.2 444 257.6 444C245 444 248 402.1 248 402.1L269.6 405.8Z" fill="#CD9A88" stroke="#F3F6FB"/>
    <path d="M296 377.6L296.4 371.2C296.4 370.6 297.1 370.1 297.7 370.2C301.8 370.8 307 369 307 369C312.2 372.6 319.4 374.5 323 375.2C324.2 375.5 325 376.7 324.6 377.9L324.3 379H307H297L296 377.6Z" fill="#191847"/>
    <path d="M267.4 159.4C267.4 159.4 290.3 140.8 294.4 140.8C298.5 140.8 352.1 138.1 357.5 140.8C362.9 143.4 358.8 155.6 359.4 148.8L358.1 153.1L359.4 160.6C359.4 158.8 358.8 168.1 360.6 177.5C360 180.6 360.1 180.7 360.1 180.7V233.6H352.5L357.5 293.6L349 366H336.7V295.6L328.3 238H324.5L309.3 366H297.6L299.5 238L297.6 233.6H292.3L294.4 203.3C294.4 203.3 253.4 196.5 248 190C242.6 183.5 248 180.7 248 180.7L267.4 159.4ZM292.7 174C290.5 174 273.8 183.1 273.8 183.1L294.9 194C294.9 194 295 174 292.7 174Z" fill="#2B85F5"/>
    <g class="animate">
      <path id="hand" d="M399 185.3L427.9 172.7C433 167.6 437.9 163.8 442.6 161.2C444 160.8 446.4 160.6 443.8 164.4C441.3 168.1 438.7 172.1 439.7 173.4C440.8 174.7 443.7 173.3 444.9 175.4C445.7 176.8 440.7 178.5 429.9 180.5L408 190L399 185.3Z" fill="#CD9A88"/>
      <path id="arm" d="M333 164.5C328.8 155 330 155.6 332.5 159.5C344 164.5 335.7 161.3 357.5 140.8C363 141 395.5 183.5 395.5 183.5L424.3 174L430.6 183.5C430.6 183.5 399.6 202 392 202C384.3 202 360.1 180.7 337.5 172.5V192.5H328.1L329.4 181.9L325.6 193.1H336.7V193.8L330 201.3H320.6L322.5 194.4H321.9L323.8 178.8L325.6 185H324.4L327.5 167.5C327.5 166.3 326.3 161.3 334 165C329 165 334 166 334.5 163.5L331 160.5L333 164.5ZM331 164C341 172 334.5 162.5 335.5 163.5L325 162.5C328.1 164.4 338.5 164.5 335 164H331Z" fill="#2B85F5"/>
    </g>
    <path d="M329 149C324.7 149 319.5 144.4 319.5 144.4C319.5 144.4 321.5 131.5 320.6 128.8C320.4 128.3 320.2 127.3 320 126.1C318.8 126.6 316.9 127.2 316.1 126.9C315.8 126.7 315.6 126.7 315.4 126.6C314.5 126.3 314 126.2 314 123.3C314 119.9 316.1 119 316.1 119H318.8L319.2 120.1C318.8 115.3 318.9 109.9 320.6 108.1C321.8 106.8 322.4 106.1 323.2 105.6C324.5 104.8 326.2 104.7 330.8 104.1C338.3 103.2 340.4 109.9 340.4 109.9C340.4 109.9 343 127.7 341.4 130.2C339.9 132.8 338.5 134 338.5 134V145.6C338.5 145.6 333.4 149 329 149Z" fill="#CD9A88"/>
    <path d="M321.8 124.5L324.5 123.3C324.5 123.3 320.5 117.1 321.8 114.6C323.2 112.1 324.7 109.5 326.2 110.5C327.7 111.5 328.4 113.9 332 113.4C335.6 112.9 341.1 113.4 343.8 110.5C346.4 107.7 346.6 103.7 345 102.4C343.5 101.1 338.9 102.9 338.9 102.9C338.9 102.9 341.2 101.7 345 101C343.6 98.5 333.4 96 333.4 96L330.5 100.3L332 94C332 94 325.9 93.7 323.3 96C320.7 98.3 321 105 320.2 102.4C319.4 99.8 323 97.2 320.2 96.6C317.4 96.1 312 105.1 312 109.8C312 114.6 315 120.8 315 120.8C315 120.8 317.2 117.9 318.2 119.3C319.2 120.8 321.8 124.5 321.8 124.5Z" fill="#0F3046"/>
    <path d="M319 143.4C319 143.4 323.8 147.5 327.7 147.5C331.6 147.5 339 143.4 339 143.4C339 143.4 344.1 214.5 343.5 214.5C342.8 214.5 310.6 213.2 310.6 213.2L319 143.4Z" fill="white"/>
    <path d="M324.9 147.3L327.5 152.3C327.5 152.3 323.5 174.6 324.7 180.1C327.5 193.1 322 211.1 322.3 211.1C322.8 211.1 329.4 211.1 329.4 211.1C329.4 211.1 333.2 192.4 330.3 179.6C327.3 166.8 329.4 152.3 329.4 152.3L332.5 146.7C332.5 146.7 329.3 147.8 328.3 147.8C327.2 147.8 324.9 147.3 324.9 147.3Z" fill="#F8C42D"/>
    <path d="M378.1 491.9C377.2 492.9 371.9 498.2 368.8 494.5C365.7 490.8 375.8 482.9 375.8 482.9C375.8 482.9 381.3 479.2 382.7 482.2C384 485.2 379.1 490.8 378.1 491.9Z" fill="#0F3046"/>
    <path d="M364.2 469L373.6 484.7L379.9 481.7C379.9 481.7 380.2 469.9 377.5 469.9C374.9 469.9 364.2 469 364.2 469Z" fill="#FFC4AF"/>
    <path d="M364 469.8L369.6 479.7L379.8 476.1C379.8 476.1 380.5 469.8 379.8 469.8C379 469.8 364 469.8 364 469.8Z" fill="#2B85F5"/>
    <path d="M372 493.7L375 496.7" stroke="white"/>
    <path d="M375 492.7L378 495.7" stroke="white"/>
    <path d="M377 490.7L380 493.7" stroke="white"/>
    <path d="M379 486.7L382 489.7" stroke="white"/>
    <path d="M380.9 484.7L383.9 487.7" stroke="white"/>
    <path d="M409.6 422.6C420.4 419.1 411.5 382 409.6 382C407.8 382 382.7 386.6 382.7 386.6L380 415.1C380 415.1 398.9 426 409.6 422.6ZM326.4 422.8C317.9 419.8 324.4 395.2 324.4 395.2C324.4 395.2 365.6 390 368.4 390C371.2 390 358.4 415.2 358.4 415.2C358.4 415.2 334.9 425.9 326.4 422.8Z" fill="#FFC4AF"/>
    <path d="M382.7 386.6L382.6 386.2H382.2V386.6H382.7ZM380 415.1L379.5 415V415.3L379.7 415.5L380 415.1ZM324.4 395.2V394.8H324L323.9 395.1L324.4 395.2ZM358.4 415.2L358.6 415.6L358.7 415.5L358.8 415.4L358.4 415.2ZM409.6 382.5C409.5 382.5 409.4 382.4 409.5 382.5C409.5 382.5 409.6 382.6 409.6 382.7C409.8 382.9 410 383.3 410.2 383.8C410.5 384.8 411 386.2 411.5 388C412.4 391.5 413.3 396.2 413.9 401C414.4 405.9 414.6 410.8 413.9 414.7C413.3 418.6 411.9 421.3 409.5 422.1L409.8 423C412.8 422.1 414.3 418.8 414.9 414.8C415.6 410.8 415.4 405.8 414.9 400.9C414.3 396 413.4 391.3 412.4 387.7C412 385.9 411.5 384.5 411.1 383.4C410.9 382.9 410.7 382.5 410.5 382.2C410.4 382 410.3 381.9 410.2 381.8C410.1 381.7 409.9 381.5 409.6 381.5V382.5ZM382.7 386.6C382.8 387.1 382.8 387.1 382.8 387.1C382.9 387.1 383 387.1 383.1 387.1C383.2 387.1 383.5 387 383.9 386.9C384.5 386.8 385.5 386.6 386.7 386.4C389.1 386 392.3 385.4 395.5 384.8C398.8 384.2 402.1 383.7 404.7 383.2C406 383 407.2 382.8 408 382.7C408.9 382.6 409.5 382.5 409.6 382.5V381.5C409.4 381.5 408.7 381.6 407.9 381.7C407 381.8 405.9 382 404.6 382.2C401.9 382.7 398.6 383.2 395.4 383.8C392.1 384.4 388.9 385 386.5 385.4C385.4 385.6 384.4 385.8 383.7 386C383.3 386 383.1 386.1 382.9 386.1C382.8 386.1 382.7 386.1 382.7 386.1C382.6 386.1 382.6 386.1 382.6 386.1C382.6 386.2 382.6 386.2 382.6 386.2C382.6 386.2 382.6 386.2 382.7 386.6ZM380.5 415.1L383.2 386.7L382.2 386.6L379.5 415L380.5 415.1ZM409.5 422.1C406.9 422.9 403.8 422.9 400.6 422.4C397.3 421.8 394 420.8 391 419.7C388 418.5 385.3 417.3 383.3 416.3C382.4 415.8 381.6 415.4 381.1 415.1C380.8 415 380.6 414.8 380.5 414.8C380.4 414.7 380.3 414.7 380.3 414.7C380.3 414.6 380.3 414.6 380.3 414.6C380.3 414.6 380.3 414.6 380 415.1C379.7 415.5 379.7 415.5 379.8 415.5C379.8 415.6 379.9 415.6 380 415.6C380.1 415.7 380.3 415.8 380.6 416C381.1 416.3 381.9 416.7 382.9 417.2C384.8 418.2 387.6 419.4 390.6 420.6C393.7 421.8 397.1 422.8 400.4 423.4C403.7 423.9 407 423.9 409.8 423L409.5 422.1ZM324.4 395.2C323.9 395.1 323.9 395.1 323.9 395.1V395.2C323.9 395.2 323.9 395.3 323.9 395.4C323.8 395.6 323.8 395.8 323.7 396.2C323.5 396.9 323.3 397.8 323 399C322.6 401.4 322 404.6 321.7 407.8C321.4 411.1 321.4 414.5 322 417.3C322.6 420.1 323.8 422.4 326.2 423.3L326.5 422.4C324.6 421.7 323.5 419.8 323 417.1C322.4 414.5 322.4 411.2 322.7 407.9C323 404.7 323.5 401.6 324 399.2C324.3 398.1 324.5 397.1 324.6 396.4C324.7 396.1 324.8 395.8 324.8 395.6C324.9 395.6 324.9 395.5 324.9 395.4C324.9 395.4 324.9 395.4 324.4 395.2ZM368.4 389.5C368 389.5 367 389.6 365.7 389.7C364.3 389.9 362.4 390.1 360.3 390.3C356 390.8 350.6 391.5 345.3 392.1C340 392.8 334.7 393.4 330.8 393.9C328.9 394.2 327.3 394.4 326.1 394.5C325.6 394.6 325.1 394.7 324.8 394.7C324.7 394.7 324.6 394.7 324.5 394.7C324.4 394.7 324.4 394.7 324.4 394.7C324.4 394.8 324.4 394.8 324.4 394.8C324.4 394.8 324.4 394.8 324.4 395.2C324.5 395.7 324.5 395.7 324.5 395.7H324.6C324.7 395.7 324.8 395.7 325 395.7C325.3 395.6 325.7 395.6 326.3 395.5C327.4 395.4 329 395.2 331 394.9C334.9 394.4 340.1 393.8 345.4 393.1C350.7 392.5 356.2 391.8 360.4 391.3C362.5 391.1 364.4 390.9 365.8 390.7C367.2 390.6 368.1 390.5 368.4 390.5V389.5ZM358.4 415.2C358.8 415.4 358.8 415.4 358.8 415.4C358.8 415.4 358.8 415.3 358.9 415.3C358.9 415.3 358.9 415.2 359 415.1C359.1 414.9 359.2 414.6 359.4 414.3C359.7 413.6 360.2 412.6 360.8 411.4C361.9 409.1 363.5 405.9 364.9 402.8C366.3 399.6 367.7 396.5 368.5 394.1C368.9 392.9 369.2 391.9 369.3 391.1C369.3 390.8 369.3 390.4 369.2 390.1C369.2 390 369.1 389.8 368.9 389.7C368.8 389.6 368.6 389.5 368.4 389.5V390.5C368.4 390.5 368.4 390.5 368.3 390.5C368.3 390.4 368.3 390.4 368.3 390.4C368.3 390.5 368.3 390.7 368.3 391C368.2 391.7 368 392.6 367.6 393.8C366.8 396.1 365.4 399.2 364 402.4C362.6 405.5 361 408.6 359.9 411C359.3 412.2 358.8 413.2 358.5 413.9C358.3 414.2 358.2 414.5 358.1 414.6C358 414.7 358 414.8 358 414.9H357.9C357.9 414.9 357.9 414.9 358.4 415.2ZM326.2 423.3C328.4 424.1 331.6 424 335 423.4C338.5 422.8 342.2 421.8 345.7 420.6C349.2 419.5 352.4 418.2 354.8 417.2C355.9 416.8 356.9 416.4 357.5 416.1C357.9 415.9 358.1 415.8 358.3 415.7C358.4 415.7 358.5 415.7 358.5 415.6H358.6C358.6 415.6 358.6 415.6 358.4 415.2C358.2 414.7 358.2 414.7 358.2 414.7C358.2 414.7 358.2 414.7 358.1 414.7C358.1 414.8 358 414.8 357.9 414.8C357.7 414.9 357.5 415 357.1 415.2C356.5 415.4 355.5 415.8 354.4 416.3C352 417.3 348.8 418.5 345.4 419.7C341.9 420.8 338.2 421.9 334.9 422.4C331.5 423 328.5 423.1 326.5 422.4L326.2 423.3Z" fill="#F3F6FB"/>
    <path d="M359.5 352.9C361.3 350.5 361.9 338.4 361.9 338.4C361.9 338.4 356.7 340.1 355.3 335.7C353.9 331.3 358.1 330.7 358.7 330.7C359.3 330.7 379.2 329 379.2 329C379.2 329 386.6 328.7 385.9 333.1C385.3 337.5 378.7 337.7 378.7 337.7C378.7 337.7 378.1 352.1 381.4 357.1C384.8 362.1 358.7 355.6 358.7 355.6C358.7 355.6 357.8 355.2 359.5 352.9Z" fill="#FFC4AF"/>
    <path d="M346 441.1C346 441.1 340.4 430.7 337.5 429.7C334.6 428.7 329.9 428.2 325.1 432.5C320.3 436.8 321.1 446.1 321.1 446.1H333.6L342 455L346 441.1Z" fill="#FFC4AF"/>
    <path d="M340.8 439.6C340.8 439.6 336.3 453.1 342.9 456.8C349.6 460.5 379.9 467.2 391.3 459.4C402.7 451.5 404.5 443.4 391.3 438.2C378.1 433 340.8 439.6 340.8 439.6Z" fill="#D9E4F2"/>
    <path d="M328.6 374C328.6 374 332.4 349.9 369.4 352.3C406.5 354.6 402.9 358.3 408.1 367.5C413.2 376.6 415.9 405.8 415.9 405.8L399 409.2L399.5 443.1C399.5 443.1 372.5 449.4 363.4 447.6C354.3 445.9 334.9 440.7 334.9 440.7C334.9 440.7 338.8 409.6 336.9 409.2C334.9 408.8 321 408.2 321 405.8C321 403.4 328.6 374 328.6 374Z" fill="#2B85F5"/>
    <path d="M370.4 309.5C370.4 309.5 361.6 305.2 355.7 313C349.8 320.7 355.6 330.3 358.6 335.4C361.4 340.2 366.8 344.8 367 348.9C367.3 357.4 355 366 355 366C355 366 365 361.2 365 362.5C365 370.3 369.5 361.2 374 362.5C377.2 363.4 380 362.5 380 362.5C380 362.5 370.2 356.5 369.7 348.9C369.5 345.2 376.2 340.2 378.9 336.7C385.1 328.9 387.1 314.9 382.3 311.1C377.5 307.2 370.4 309.5 370.4 309.5Z" fill="#F8E71C"/>
    <path d="M464.1 314.4C468.2 305.8 475.9 298.2 475.9 298.2C475.9 298.2 483.5 295.6 493.8 304.4C504.2 313.3 493.8 330 493.8 330C493.8 330 496.4 340.8 504 345C511.7 349.2 483.6 350.6 483.6 350.6L478.8 335.2C478.8 335.2 472.4 341.6 463.9 330C461.9 327.3 461.4 324.1 462 320.9C460.4 320.1 459.2 319.5 459 319.5C458.7 319.5 461.7 316.6 464.1 314.4Z" fill="#F4CFC2"/>
    <path d="M472.7 495C471.4 494.6 464.3 492 466.4 487.6C468.4 483.3 479.8 489.1 479.8 489.1C479.8 489.1 485.5 492.5 483.4 495C481.2 497.5 474.1 495.4 472.7 495Z" fill="#0F3046"/>
    <path d="M477 482H483V493.8L477 492V482Z" fill="#CD9A88"/>
    <path d="M470 490.5C470 490.5 470.2 489.1 471.1 488.7C471.9 488.3 472.9 488 472.9 488" stroke="white"/>
    <path d="M472 491.5C472 491.5 472.2 490.1 473.1 489.7C473.9 489.3 474.9 489 474.9 489" stroke="white"/>
    <path d="M448.7 496C447.4 495.6 440.3 493 442.4 488.6C444.4 484.3 455.8 490.1 455.8 490.1C455.8 490.1 461.5 493.5 459.4 496C457.2 498.5 450.1 496.4 448.7 496Z" fill="#0F3046"/>
    <path d="M453 483H459V494.8L453 493V483Z" fill="#CD9A88"/>
    <path d="M446 491.5C446 491.5 446.2 490.1 447.1 489.7C447.9 489.3 448.9 489 448.9 489" stroke="white"/>
    <path d="M448 492.5C448 492.5 448.2 491.1 449.1 490.7C449.9 490.3 450.9 490 450.9 490" stroke="white"/>
    <path d="M446.4 447C444.4 432.8 442.9 420.8 442.9 420.8H474.2L468.8 447H446.4ZM449.6 470C451.6 483 453.4 493.5 454.2 493.5H459.3L464.1 470H449.6Z" fill="#2B85F5"/>
    <path d="M469.9 470.1C469.9 470.1 474.5 490.8 477 490.8C479.4 490.8 482.9 490.8 482.9 490.8L484.8 470.1H469.9Z" fill="#2B85F5"/>
    <path d="M451.6 427C459 434.7 487 464.6 505.6 464.6C524.3 464.6 545.4 452.4 547.1 445.8C548.8 439.2 542.8 421.5 542.8 421.5L468.6 400.8C468.6 400.8 444.2 419.3 451.6 427Z" fill="#D9E4F2"/>
    <path d="M476.7 413.8C469.2 418.9 457.7 434.6 444.6 432C431.5 429.4 452.3 382.8 452.3 382.8L484.5 397.2C484.5 397.2 484.1 408.6 476.7 413.8Z" fill="#F4CFC2" stroke="white"/>
    <path d="M447.5 387.7C447.5 387.7 449.6 368.9 461.2 359.9C472.8 351 500.2 328.4 517.4 335.2C534.6 342 548.3 409.4 548.3 429.2C548.3 429.2 532 443.2 517.4 446.5C502.9 449.8 474.9 442 474.9 442L469 397.2L447.5 387.7Z" fill="#2B85F5"/>
    <path d="M473 302C473 302 478.3 302.9 478.3 308.4C478.3 314 473 320 473 320H475.6C475.6 320 481 314.6 483.2 317.3C485.5 320 487.8 324.8 483.2 324.8C478.7 324.8 484.2 329.4 486 330C487.8 330.5 493 327.9 493 327.9C493 327.9 498.5 344.5 499.8 346.1C501 347.7 503.5 342.8 503.5 342.8C503.5 342.8 505.2 348.6 508.2 348.6C511.3 348.6 508.2 342.8 508.2 342.8C508.2 342.8 510.3 346.2 513 342.8C515.7 339.5 495.9 327.9 495.9 327.9C495.9 327.9 511.8 306.1 495.3 300C478.7 293.9 473 302 473 302Z" fill="#F8C42D"/>
    <path d="M308.7 486C307.4 485.6 300.3 483 302.4 478.6C304.4 474.3 315.8 480.1 315.8 480.1C315.8 480.1 321.5 483.5 319.4 486C317.2 488.5 310.1 486.4 308.7 486Z" fill="#0F3046"/>
    <path d="M313 473H319V484.8L313 483V473Z" fill="#FFC4AF"/>
    <path d="M306 481.5C306 481.5 306.2 480.1 307.1 479.7C307.9 479.3 308.9 479 308.9 479" stroke="white"/>
    <path d="M308 482.5C308 482.5 308.2 481.1 309.1 480.7C309.9 480.3 310.9 480 310.9 480" stroke="white"/>
    <path d="M312 470V477.7H319.2L322.8 470H312Z" fill="#2B85F5"/>
    <path d="M215.1 399.2C212.7 398.6 210.9 397.5 209.7 396.1C208.4 394.5 208 392.5 208.6 390.2C209.5 386.6 211.4 384.4 214.4 383.8C212.7 382 212.2 380 212.8 377.8C213.4 375.6 214.6 374.1 216.5 373.1C218.4 372.1 220.4 371.9 222.5 372.5C227.3 373.7 229 376.7 227.7 381.4C227.4 382.8 226.8 383.7 226.1 384.3C225.5 384.8 224.4 385.2 223 385.5C224.5 386.8 225.4 388.1 225.8 389.2C226.3 390.6 226.3 392.3 225.7 394.3C225.1 396.6 223.8 398.2 221.7 399.1C219.8 399.8 217.6 399.9 215.1 399.2ZM221.6 375.5C220.2 375.1 218.9 375.2 217.9 375.8C217.1 376.4 216.4 377.4 216.1 378.7C215.7 380.3 216.7 381.7 219.1 383.1C220.6 383.1 221.6 382.9 222.3 382.7C223.4 382.3 224.1 381.6 224.4 380.5C224.8 379 224.8 377.8 224.3 377C223.8 376.3 222.9 375.8 221.6 375.5ZM218.4 386.1C216.4 386.5 215 386.9 214.3 387.4C213.1 388 212.3 389.2 211.9 391C211.5 392.4 211.9 393.6 213 394.7C213.8 395.4 214.7 395.9 215.9 396.3C217.9 396.8 219.4 396.7 220.4 396C221.3 395.4 221.9 394.3 222.3 392.8C222.7 391.3 222.4 390 221.5 388.8C220.9 387.9 219.9 387.1 218.4 386.1Z" fill="white"/>
    <path d="M363.9 422C363.7 422 363.2 421.9 362.7 421.8C362.2 421.6 361.8 421.5 361.5 421.5C360.9 421.5 360 421.5 358.8 421.6C357.6 421.7 356.7 421.7 356.1 421.7C355.6 421.7 355 421.8 354 421.9C353.2 422 352.5 422.1 352 422.1C351.9 422.1 351.7 422 351.5 422C351.2 421.9 351 421.9 350.9 421.9C350.1 421.9 349.6 421.5 349.3 420.7C349.2 420.3 349.1 419.6 349.1 418.6C349.1 415.9 349.9 413.7 351.3 412C352 411.3 353.9 409.9 356.8 407.8C358.5 406.7 359.6 405.8 360.2 405.1C361.2 404 361.7 402.7 361.7 401.2C361.7 400.4 361.2 399.8 360.3 399.2C359.4 398.6 358.6 398.4 357.7 398.4C356.7 398.4 355.6 398.7 354.7 399.3L352.2 401.3C351.6 401.7 351.2 401.9 350.9 401.9C349.7 401.9 349.1 401.4 349.1 400.4C349.1 399.9 349.3 399.4 349.8 399C351.2 397.7 352.4 396.8 353.4 396.2C354.8 395.4 356.2 395 357.7 395C359.6 395 361.3 395.5 362.8 396.5C364.5 397.7 365.3 399.2 365.3 401C365.3 402.2 365.1 403.3 364.8 404.3C364.5 405.3 364 406.2 363.3 407.1C362.4 408.1 360.9 409.3 358.8 410.6C356.6 412 355.1 413 354.5 413.8C353.2 415.1 352.5 416.7 352.5 418.7L356.2 418.3C358.6 418.2 360.4 418.1 361.5 418.1C362.4 418.1 363.2 418.3 364 418.6C365.1 419 365.6 419.6 365.6 420.3C365.6 420.7 365.4 421.1 365.1 421.5C364.8 421.9 364.4 422 363.9 422ZM385.1 414.3V420.8C385.1 421.9 384.6 422.5 383.5 422.5C382.3 422.5 381.7 421.6 381.7 419.9C381.7 419.7 381.7 419.4 381.7 419C381.7 418.6 381.8 418.4 381.8 418.2L381.7 414.2L374 414C372.4 414 371.3 414 370.6 413.9C369.6 413.7 369 413.3 369 412.6C369 412.1 369.4 411.4 370 410.6L371.5 408.8L380.2 396.2C381 395.1 382 394.6 383.2 394.6C384.5 394.6 385.1 395.2 385.1 396.3V410.9C385.3 410.9 385.6 410.9 385.9 410.9C388 410.9 389.1 411.5 389.1 412.6C389.1 413.5 388.7 414 387.8 414.2C387.4 414.3 386.5 414.4 385.1 414.3ZM381.7 399.4C378.6 404.4 376.2 408.2 374.4 410.7L381.7 410.8V399.4Z" fill="white"/>
    <path d="M518.357 399.435C516.804 400.235 515.208 400.613 513.569 400.569C511.852 400.463 510.295 399.841 509.116 398.755C509.024 398.551 508.869 398.425 508.777 398.221C508.592 397.814 508.549 397.392 508.787 396.94C508.884 396.504 509.277 396.179 509.684 395.995C510.014 395.747 510.514 395.767 511.042 396.068L512.318 396.718C512.924 397.082 513.579 397.227 514.423 397.14C515.204 397.131 515.956 396.84 516.912 396.457C518.056 395.841 518.828 395.05 519.352 393.93C519.939 392.732 519.886 391.529 519.348 390.447C518.61 388.817 517.446 387.871 515.841 387.468C514.391 387.191 512.766 387.288 510.917 387.977C509.758 388.452 508.885 388.258 508.516 387.443C508.162 386.768 508.449 386.099 509.22 385.308L512.49 382.554C513.135 381.918 513.499 381.312 513.644 380.657C513.79 380.002 513.732 379.44 513.378 378.765C512.995 377.81 512.296 377.242 511.283 377.063C510.191 376.82 509.003 377.014 507.591 377.799C506.839 378.09 506.257 378.648 505.753 379.269L504.535 381.243C504.219 381.631 504.03 381.864 503.826 381.956C503.356 382.218 502.997 382.184 502.483 382.024C502.109 381.849 501.721 381.534 501.537 381.126C501.168 380.311 501.537 379.065 502.736 377.59C503.871 376.193 504.846 375.311 505.724 374.864C508.028 373.773 510.046 373.352 511.87 373.803C513.82 374.099 515.294 375.297 516.216 377.335C517.462 379.765 517.258 381.919 515.589 383.655C515.463 383.811 515.274 384.043 515.148 384.199C516.695 384.039 518.145 384.315 519.358 385.043C520.556 385.63 521.531 386.809 522.331 388.361C523.252 390.399 523.47 392.509 522.704 394.721C521.859 396.87 520.457 398.436 518.357 399.435Z" fill="white"/>
    <path d="M372 346H365V351H372V346Z" fill="#FB8C00"/>
  </g>
</svg>
