<svg width="800" height="600" viewBox="0 0 800 600" fill="none" 
  xmlns="http://www.w3.org/2000/svg">
  <style>
    .animate {
      transition: transform 0;
    }
  </style>
  <rect width="800" height="600" fill="white"/>
  <path fill-rule="evenodd" clip-rule="evenodd" d="M 211.6 445.2 C 335.7 539.7 519.4 547.5 628.7 465.7 C 738 383.8 693.7 227.8 536.5 131.8 C 379.3 35.9 108.8 74.8 117.2 179.4 C 129.6 334.6 205.3 231.8 220.5 268.5 C 235.8 305.3 89.8 352.5 211.6 445.2 Z" fill="#f3f6fb"/>
  <mask id="mask0" mask-type="alpha" maskUnits="userSpaceOnUse" x="117" y="77" width="572" height="445">
    <path fill-rule="evenodd" clip-rule="evenodd" d="M 211.6 445.2 C 335.7 539.7 519.4 547.5 628.7 465.7 C 738 383.8 693.7 227.8 536.5 131.8 C 379.3 35.9 108.8 74.8 117.2 179.4 C 129.6 334.6 205.3 231.8 220.5 268.5 C 235.8 305.3 89.8 352.5 211.6 445.2 Z" fill="white"/>
  </mask>
  <g mask="url(#mask0)">
    <g opacity="0.720982">
      <path d="M 287.3 240.1 C 287.3 199 320.6 165.6 361.8 165.6 H 667.5 V 457.5 H 287.3 V 240.1 Z" fill="url(#paint0_linear)" stroke="white"/>
      <rect x="276" y="332.7" width="442" height="66.9" fill="#f3f6fb"/>
      <path d="M 443.6 248.5 H 671.7" stroke="#e7edf7" stroke-width="10"/>
      <path fill-rule="evenodd" clip-rule="evenodd" d="M 364 318.1 C 408 318.1 443.6 282.5 443.6 238.6 C 443.6 194.6 408 159 364 159 C 320.1 159 284.5 194.6 284.5 238.6 C 284.5 282.5 320.1 318.1 364 318.1 Z" fill="url(#paint1_linear)" stroke="#f3f6fb" stroke-width="10"/>
      <path d="M 366.7 236.6 L 302.9 287.4" stroke="#f3f6fb" stroke-width="12"/>
      <path d="M 363.6 159.8 V 239.2 L 425.1 289.7" stroke="#f3f6fb" stroke-width="12"/>
      <path fill-rule="evenodd" clip-rule="evenodd" d="M 363.6 268.9 C 380.6 268.9 394.4 255.2 394.4 238.2 C 394.4 221.2 380.6 207.4 363.6 207.4 C 346.6 207.4 332.9 221.2 332.9 238.2 C 332.9 255.2 346.6 268.9 363.6 268.9 Z" fill="#d9e4f2" stroke="#f3f6fb" stroke-width="10"/>
      <path d="M 287.9 356 V 337.8" stroke="#b9defc" stroke-width="2"/>
      <path d="M 325.6 342 H 306.3" stroke="#b9defc" stroke-width="2"/>
      <path d="M 291 356 V 343.6" stroke="#b9defc" stroke-width="2"/>
      <path d="M 324.9 338.9 H 312.5" stroke="#b9defc" stroke-width="2"/>
      <path d="M 294.8 356 V 343.6" stroke="#b9defc" stroke-width="2"/>
      <path d="M 324.9 335.1 H 312.5" stroke="#b9defc" stroke-width="2"/>
      <path d="M 286.8 350.9 H 322.1" stroke="#b9defc" stroke-width="2"/>
      <path d="M 320.2 348.1 V 332.8" stroke="#b9defc" stroke-width="2"/>
    </g>
    <path d="M 235.3 153.2 V 103.9 H 268.4 V 71" stroke="#607d8b" stroke-width="2" stroke-linejoin="bevel"/>
    <path d="M 202.2 134.7 L 279.5 59.5 H 296.1 V 60.2 L 224.3 167" stroke="#607d8b" stroke-width="2"/>
    <rect x="138.4" y="197.7" width="75.4" height="359.3" fill="url(#paint2_linear)"/>
    <path fill-rule="evenodd" clip-rule="evenodd" d="M 113 131.1 V 191.3 C 113 197.4 118 202.3 124.1 202.3 H 224.2 C 230.3 202.3 235.3 197.4 235.3 191.3 V 175.4 C 235.3 171.6 234 167.8 231.6 164.7 L 201.2 126.2 C 198.1 122.4 193.5 120.1 188.6 120.1 H 124.1 C 118 120.1 113 125 113 131.1 Z" fill="#ffc107"/>
    <path fill-rule="evenodd" clip-rule="evenodd" d="M 184.6 173.7 L 170.5 124.1 H 189.2 C 192.4 124.1 195.3 125.6 197.3 128.1 L 227.3 166.8 C 228.8 168.8 229.7 171.3 229.8 173.7 H 184.6 Z" fill="#bbdefb"/>
    <path fill-rule="evenodd" clip-rule="evenodd" d="M 163.2 118.6 H 189.2 C 194.1 118.6 198.6 120.9 201.6 124.7 L 231.6 163.5 C 234 166.6 235.3 170.4 235.3 174.3 V 179.3 H 180.4 L 163.2 118.6 Z M 192.9 131.5 C 192 130.3 190.7 129.6 189.2 129.6 H 177.7 L 188.7 168.2 H 221.4 L 192.9 131.5 Z" fill="#37474f"/>
    <g id="crane-cable" class="animate animated">
      <path d="M 407.2 391.9 C 407.2 398 411.9 402.8 417.6 402.8 C 423.4 402.8 428 398 428 391.9 C 428 388 426 384.6 423.1 382.7 C 419.7 380.5 417.6 376.6 417.6 372.4 V -15" stroke="#607d8b" stroke-width="2"/>
      <path fill-rule="evenodd" clip-rule="evenodd" d="M 421.8 372.1 H 411.4 C 408.6 372.1 406.2 369.5 406.2 366.3 C 406.2 363.2 408.6 360.6 411.4 360.6 H 421.8 C 424.7 360.6 427 363.2 427 366.3 C 427 369.5 424.7 372.1 421.8 372.1 Z" fill="#37474f"/>
    </g>
  </g>
  <g style="mix-blend-mode: multiply">
    <path fill-rule="evenodd" clip-rule="evenodd" d="M 307 516.2 C 461.9 544.4 630.6 467.1 691.3 343.2 C 752.1 219.3 640.9 99.1 455.6 84.9 C 270.4 70.7 45.1 229.8 100.5 320.2 C 182.7 454.3 203.7 327 234.2 353 C 264.8 379.1 155.2 488.6 307 516.2 Z" fill="#f3f6fb"/>
  </g>

  <g id="crane-beam" class="animate animated">
    <path fill-rule="evenodd" clip-rule="evenodd" d="M 421.8 372.1 H 411.4 C 408.6 372.1 406.2 369.5 406.2 366.3 C 406.2 363.2 408.6 360.6 411.4 360.6 H 421.8 C 424.7 360.6 427 363.2 427 366.3 C 427 369.5 424.7 372.1 421.8 372.1 Z" fill="#37474f"/>
    <g filter="url(#filter0_d)">
      <path d="M 189.7 426.6 L 594.7 333.2 L 608 390.9 L 203.1 484.4 L 189.7 426.6 Z" fill="black" fill-opacity="0.01"/>
    </g>
    <path opacity="0.853539" d="M 210.3 465.2 L 605.6 336.8 L 623.9 393.2 L 228.7 521.6 L 210.3 465.2 Z" fill="url(#paint3_linear)"/>
    <path fill-rule="evenodd" clip-rule="evenodd" d="M 221 458.1 L 229.4 484 L 218.1 489 L 218.6 490.6 L 210.4 465.3 L 207 467.4 L 225.5 524 L 228.8 521.9 L 220.5 496.3 L 231.8 491.3 L 239.4 514.7 L 242.8 512.6 L 235.3 489.7 L 258 479.7 L 255.7 472.3 L 233 482.4 L 224.3 456 L 221 458.1 Z" fill="url(#paint4_linear)"/>
    <path d="M 224.2 456 L 619.5 327.6 L 637.8 383.9 L 242.5 512.4 L 224.2 456 Z" fill="url(#paint5_linear)"/>
    <path d="M 239 514 L 251.8 509.9 L 635.8 385.5 L 638 384 L 242.3 511.9 L 239 514 Z" fill="url(#paint6_linear)"/>
    <path d="M 226 523 L 238.8 518.9 L 622.8 394.5 L 625 393 L 229.3 520.9 L 226 523 Z" fill="url(#paint7_linear)"/>
    <path d="M 427.5 389 C 427.5 389 429.5 395.9 424 399" stroke="#607d8b" stroke-width="2"/>
  </g>

  <defs>
    <filter id="filter0_d" x="164.737" y="310.175" width="468.285" height="201.208" filterUnits="userSpaceOnUse" color-interpolation-filters="sRGB">
      <feFlood flood-opacity="0" result="BackgroundImageFix"/>
      <feColorMatrix in="SourceAlpha" type="matrix" values="0 0 0 0 0 0 0 0 0 0 0 0 0 0 0 0 0 0 127 0"/>
      <feOffset dy="2"/>
      <feGaussianBlur stdDeviation="12.5"/>
      <feColorMatrix type="matrix" values="0 0 0 0 0 0 0 0 0 0 0 0 0 0 0 0 0 0 0.251229 0"/>
      <feBlend mode="normal" in2="BackgroundImageFix" result="effect1_dropShadow"/>
      <feBlend mode="normal" in="SourceGraphic" in2="effect1_dropShadow" result="shape"/>
    </filter>
    <linearGradient id="paint0_linear" x1="286.762" y1="165.149" x2="286.762" y2="458" gradientUnits="userSpaceOnUse">
      <stop stop-color="#8ac9f9"/>
      <stop offset="1" stop-color="#5298f1"/>
    </linearGradient>
    <linearGradient id="paint1_linear" x1="284.456" y1="159" x2="284.456" y2="318.108" gradientUnits="userSpaceOnUse">
      <stop stop-color="#2880f1"/>
      <stop offset="1" stop-color="#d9e4f2"/>
    </linearGradient>
    <linearGradient id="paint2_linear" x1="138.385" y1="197.688" x2="138.385" y2="557" gradientUnits="userSpaceOnUse">
      <stop stop-color="#8b8b8b"/>
      <stop offset="1" stop-color="#e6e6e6"/>
    </linearGradient>
    <linearGradient id="paint3_linear" x1="228.663" y1="521.608" x2="623.926" y2="393.18" gradientUnits="userSpaceOnUse">
      <stop stop-color="#36aeeb"/>
      <stop offset="1" stop-color="#1976d2"/>
    </linearGradient>
    <linearGradient id="paint4_linear" x1="207" y1="524" x2="258" y2="524" gradientUnits="userSpaceOnUse">
      <stop stop-color="#36aeeb"/>
      <stop offset="1" stop-color="#1976d2"/>
    </linearGradient>
    <linearGradient id="paint5_linear" x1="242.517" y1="512.374" x2="637.78" y2="383.945" gradientUnits="userSpaceOnUse">
      <stop stop-color="#36aeeb"/>
      <stop offset="1" stop-color="#1976d2"/>
    </linearGradient>
    <linearGradient id="paint6_linear" x1="239" y1="514" x2="638" y2="514" gradientUnits="userSpaceOnUse">
      <stop stop-color="#1976d2"/>
      <stop offset="1" stop-color="#36aeeb"/>
    </linearGradient>
    <linearGradient id="paint7_linear" x1="226" y1="523" x2="625" y2="523" gradientUnits="userSpaceOnUse">
      <stop stop-color="#1976d2"/>
      <stop offset="1" stop-color="#36aeeb"/>
    </linearGradient>
  </defs>
</svg>
