<svg width="772" height="564" fill="none" 
  xmlns="http://www.w3.org/2000/svg">
  <mask id="a" maskUnits="userSpaceOnUse" x="0" y="-83" width="772" height="639">
    <path d="M428-80c96 0 271 92 331 94 59 1-113 186-133 332-19 145-288 206-405 209-118 4-196-151-167-176 40-34-78-161-49-198C38 139 145 8 195-29c93-69 233-51 233-51z" fill="#F0F3FA"/>
  </mask>
  <g mask="url(#a)">
    <path d="M319 227c96 0 76-75 136-74 59 2 196 52 176 197-19 146-288 207-405 210-118 3-196-151-167-176 40-34 51 37 80 0 33-41-46-125 3-161 94-70 177 4 177 4z" fill="#F0F3FA"/>
    <path d="M874 478c-11 11-38 27-94 65-40 27-121 49-130 34-4-7 15-15 14-23 0-10-24-4-36 2-88 44-200 57-175 16 14-21-40-26-61-14-44 24-96 31-95 6 0-25-18-38-43-31-26 7-58 32-88 8-12-9 5-36 46-46 22-7 102-16 50-35-53-20-4-42 32-37 13 2 136 21 115 3-25-22 10-35 66-21 26 6 73 29 82 17 10-12 26-22 69-17 186 23 244 77 248 73z" fill="#E4EFFF"/>
    <path d="M257 76c52-28 104-31 151-19 46 13 64 24 58 80-7 55-26 87-52 86-75-3-94-5-134-1l13 28-32-27c-40 2-46-16-48-31 0 0-9-89 44-116z" fill="#89C149"/>
    <path d="M183 266l3-13s9 0 11-5c3-9 0-25-2-30-6-12-9-35-38-17-11 7 6 39 7 46 2 7-2 15-2 15l7 6 14-2zM131 389l-1 41s-15-17-16-37c-2-19 16-6 17-4z" fill="#AF836D"/>
    <path d="M149 473s4 2-9 61l-20 89c-1 5-3 4-3 4l-12 1-6-5 17-97 33-53z" fill="#163F59"/>
    <path d="M227 362l-25 47s47-34 44-53c-3-18-19 6-19 6z" fill="#AF836D"/>
    <path d="M131 278s-10 6-17 56c-7 49-3 47-3 47l2 11 18 2 10-42-10-74z" fill="#F3BA07"/>
    <path d="M177 406s-28 114-49 164c-13 30-13-27-13-27l20-164 57-3s-7 2-15 30z" fill="#61A6EF"/>
    <path d="M157 376s20 147 23 153c7 23 18-7 21-14 2-8 7-63 6-103l-1-40-49 4z" fill="#8FBFF3"/>
    <path d="M177 493l-5 40c-2 16-2 63 1 95 0 2 21-4 21-4l9-111c2-21-13-35-26-20z" fill="#91C0F4"/>
    <path d="M131 278l24-11 7-6 26-1 4 8 20 9s5 7 1 36c-5 33-6 81-6 81l-76 4s7-104 0-120z" fill="#FFC107"/>
    <path d="M206 277s4-5 15 8c19 24 28 53 30 58 2 6 5 14-3 23l-8 10-17-11 3-5 2-2-19-38c-10-18-3-43-3-43z" fill="#EEB714"/>
    <path d="M187 222s-3-3-3 0c-1 2 0 8 2 9l-2 6v9h-21l-8-19c-4-5-6-14-4-17s4-9 8-13c3-4 6-7 9-8s9 2 13 0c3-1 12-5 15 0s-3 9 3 11c5 2 1 7 0 10-2 3-7 0-8 5 0 3-1 11-4 7z" fill="url(#paint0_linear)"/>
    <path d="M389 399l9-5 1-1-1-2h-2v-5l-9-2-4-2 4 15" fill="#E9D6B8"/>
    <path d="M349 260s10 11-20 40c-31 28-36 20-36 20l-9-6-7-32 15-3 1 1s3 1 5-1c2-3 12-10 26-29 7-8 23 8 25 10z" fill="#fff"/>
    <path d="M280 284s-31-1-33-32c-1-10-3-1-5 8-1 9 4 35 20 45s23 12 30 8c6-4-12-29-12-29z" fill="#E9D6B8"/>
    <path d="M324 586s5 7 9 1c8-15 19-51 20-68 0-23-4-40-4-40l-25-8v115z" fill="#8F9194"/>
    <path d="M325 362l-1 109 23 12s14-26 16-59c0-14 1-45-7-56-11-15-31-6-31-6z" fill="#8F9194"/>
    <path d="M334 362l3 38 11 40 10 39 39 106 12 1s-2-80-16-103c-7-13-7-40-10-69-1-5 2-17 2-22-2-19-12-33-12-33l-39 3z" fill="#BEBEBE"/>
    <path d="M325 363l50-1 21-71s14-43-13-44h-57s-21 40-1 116z" fill="#fff"/>
    <path d="M414 343l-31 38s1 6 4 3c0-1-2-2 0-3 8-4 26-10 33-17 9-8 15-18 15-18l-21-3z" fill="#E9D6B8"/>
    <path d="M352 257s-23 40-17 84c1 4 5 6 5 6l6-5s-1-50 6-85z" fill="#226DF2"/>
    <path d="M353 256l1 9 15-15v-2l-16 8zM348 250l-3 12 7-6-4-6zM303 289l-4-7-2-3c-1 2-4 2-4 2l4 4 4 7 2 10v-13z" fill="#B0BFDE"/>
    <path d="M394 290l17 50 4 1-2 4 21 3 9-16-25-68s-9-14-31-16c-15-2 5 38 7 42z" fill="#fff"/>
    <path d="M435 337l-22 4h2l-2 4 7 1h11l2-4-4-1 6-4z" fill="#B0BFDE"/>
    <path d="M371 238l-3 9c-1 4-16 9-19 9-2 1 1-11 1-14v-4h21z" fill="#E9D6B8"/>
    <path d="M345 231c0 3 2 5 4 5l19 3c3 1 5-1 5-3l5-29c0-2-1-4-4-5l-19-3c-2 0-5 1-5 4l-5 28z" fill="#E9D6B8"/>
    <path d="M349 209l-2-5c0-1 1-4 3-5 3-1 4 2 4 2l-4 2-1 6z" fill="#163F59"/>
    <path d="M378 220s5-10 5-13c0-4 0-6-4-7-6-1-6 0-9-2-3-3-7-8-9-8-3-2-7-1-8 4-1 4-4 5-4 5l3 2c5 4 8 5 12 5 5-1 13-2 13 1l-1 13h2z" fill="#194866"/>
    <path d="M370 228l2 2h4l1-1 2-7-2-2-4-1-1 2-2 7zM346 224c-1 1 0 2 1 2h4l2-1 1-8-1-1-5-1-1 1-1 8z" fill="#E9D6B8"/>
    <path d="M376 223l-3 15c0 3-3 10-22 7-11-2-10-10-9-13 0-2 4-7 5-8l-1 4s3-4 9-3c8 1 9 7 13 7 3 1 6-4 8-9z" fill="#194866"/>
    <path d="M357 233l-6-1-1-2v-1l9 2-2 2zM247 257s3-10 2-12l-8-11-1-2s-4 1 1 6c4 6 0 5 0 5l-5-4-7-4-3-2-2-1-2 1 11 9-12-5h-2v1l12 10-6-2h-3v1l24 12 1-2z" fill="#E9D6B8"/>
    <path d="M231 244l-8-3-3-1c-2 0-1 1-1 1l12 7v-4z" fill="#E9D6B8"/>
    <path d="M472 377l-10 110-12 106 16 2 22-115c2-10 25-83 17-102s-33-1-33-1z" fill="url(#paint1_linear)"/>
    <path d="M523 378l-3 97s4 26 4 35v78l-17 1-14-116c-2-9-20-83-9-102 10-18 39 7 39 7z" fill="url(#paint2_linear)"/>
    <path d="M499 281c0 14 11 26 26 26 14 0 26-12 26-26s-12-25-26-25c-15 0-26 11-26 25zM480 229c0 11 8 19 18 19l5-9c10 0 19-8 19-19v-7c0-10-8-19-19-19h-5c-10 0-18 9-18 19v16z" fill="#AD5C49"/>
    <path d="M522 220v-7c0-10-8-19-19-19h-5c-4 0-8 2-11 4l1 13c3 14 12 24 23 26 6-2 11-9 11-17z" fill="#AD5C49"/>
    <path d="M499 247c0 14 11 25 25 25s25-11 25-25c0-13-11-24-25-24s-25 11-25 24z" fill="#AD5C49"/>
    <path d="M495 280c0 14 11 25 25 25s26-11 26-25-12-25-26-25-25 11-25 25z" fill="#954F3F"/>
    <path d="M524 233c-9-6-20-6-24 0s1 16 10 22 20 6 24 1c4-6 0-16-10-23z" fill="#954F3F"/>
    <path d="M487 202l1 5c2 12 9 21 17 22l2 15c2 4 8 9 8 9 1 9-28 21-27 20 1-2 8-12 10-21 2-6 0-11-3-15-4-5-11-5-11-5l-1-1-1-4v-15c0-4 2-8 5-10z" fill="#E9D6B8"/>
    <path d="M481 374l-13 3s9-38 11-53c3-15 2-20 1-24 0-5-3-10 0-15 3-6 8-14 10-15 3-1 6-2 9-5l-18 109z" fill="#FFC40E"/>
    <path d="M477 377l9-54 12-57c0-4 3-10 3-10s7-5 13-4 11 15 14 28c2 14-16 51-16 54s13 31 13 39v9s-33-16-48-5z" fill="#EEE"/>
    <path d="M513 247l-5 3-8 5 2 8 14-12-3-4z" fill="#E8E8E8"/>
    <path d="M545 335s-12 15-18 15l-6-1-9-2h-3l1 2 5 2h-8l-11 2h-2l1 2h2l-4 1-2 1 1 1 1 1 1 1h8l-3 1 2 1h6l11-1c5 1 4 2 8 0 4-1 21-14 24-16s-5-10-5-10z" fill="#E9D6B8"/>
    <path d="M551 322l-38-41s-4-10-4-16 8-11 8-11 17 15 37 37c21 23 32 32 21 41s-29 20-29 20l-7-18 12-12z" fill="#E8E8E8"/>
    <path d="M581 545s11 8 20 1 15-15 8-20-41 1-28 19z" fill="#E4EFFF"/>
    <path d="M558 607s84-89 82-139c-3-50-58-106-74-13-17 93 14 115-8 152z" fill="#B0BFDE"/>
    <path d="M606 427s10 107-48 180" stroke="#B0BFDE" stroke-miterlimit="10"/>
    <path d="M666 409s8-3 11-10c2-2 2-8-1-9-2-1-6 1-8 4-3 7-2 15-2 15zM660 420s2-7 0-13c-1-2-4-5-7-5-2 1-3 5-2 8 2 6 9 10 9 10zM654 434s0-7-5-12c-1-2-6-3-7-1-2 1-2 5 1 7 5 5 11 6 11 6zM660 420s5 3 12 2c2 0 6-3 6-5s-4-3-7-2c-7 1-11 5-11 5zM654 433s5 3 12 2c2 0 6-2 6-4-1-3-4-4-7-3-7 1-11 5-11 5zM649 453s4 3 9 2c2 0 5-2 5-5-1-2-3-3-6-3-5 1-8 6-8 6zM648 452s0-5-3-9c-1-2-4-4-6-3-1 1-1 4 1 7 3 4 8 5 8 5z" fill="#B0BFDE"/>
    <path d="M612 524h-3l1-1s3 1 7-1c5-2 9-7 14-15 6-12 11-29 16-51 5-25 13-37 17-45l4-6 1 1-3 5c-5 8-13 20-18 46-10 49-22 63-31 67h-5z" fill="#B0BFDE"/>
    <path d="M632 538c-29-55-34-107-33-141 1-37 9-61 9-61l2 1s-8 24-9 60c-1 34 4 86 33 140l-2 1z" fill="#3BB6D5"/>
    <path d="M607 339s-2-7 1-14c1-2 4-6 7-5 2 1 3 5 1 8-2 7-9 11-9 11zM605 351s2-6 8-10c2-1 6-2 7 0s0 5-3 7c-5 3-12 3-12 3zM603 373s2-6 7-8c2-1 6-1 7 1s-1 5-4 6c-5 2-10 1-10 1z" fill="#3BB6D5"/>
    <path d="M606 351s-6 0-10-4c-2-1-3-5-2-7 2-1 5-1 7 1 4 4 5 10 5 10zM611 484s-6 2-12 0c-2-1-5-3-4-5s4-3 7-2c6 2 9 7 9 7zM601 372s-6 0-11-5c-2-1-4-6-3-7 2-2 6-1 8 1 5 5 6 11 6 11zM599 395s-7 0-11-4c-2-1-3-5-1-7s5-2 8 0c4 4 4 11 4 11zM601 395s1-7 6-10c2-2 6-2 8 0 1 2 0 5-3 7-5 4-11 3-11 3zM612 485s-1-6 2-12c1-2 5-5 7-4 2 0 2 3 0 6-3 6-9 10-9 10zM602 439s2-4 7-6c2-1 6-2 8-1 1 2-1 4-3 5l-12 2zM599 418s-4 0-7-4c-2-1-3-5-2-6 0-2 2-1 4 1 4 4 5 9 5 9zM607 463s-1-7 1-12c1-2 3-3 5-1 1 1 2 5 1 8-3 4-7 5-7 5zM602 440s-8 0-14-4c-2-1-4-4-2-5 2-2 6-1 9 0 6 3 7 9 7 9zM606 464s-8 0-13-3c-2-1-4-4-2-5 2-2 6-2 9 0 5 3 6 8 6 8zM674 361s-6 2-11 0c-3-1-6-3-5-5s4-3 7-2c6 2 9 7 9 7zM618 504s0-4 3-9l7-4c1 1 1 3-1 6-3 4-9 7-9 7zM625 413s2-6 6-10c1-2 4-2 4-1 1 2 0 6-2 8-4 3-8 3-8 3zM600 420s1-6 7-10c1-2 6-5 8-4 1 1 0 4-3 7l-12 7zM642 495c-30 24-46 59-46 92 33 7 70-1 100-26 30-24 46-59 46-92-33-7-70 1-100 26z" fill="#3BB6D5"/>
    <path d="M730 478L601 582M704 499l26 3M682 517l32 4M660 535l53 6M638 553l52 5M706 497l3-26M684 515l4-41M662 533l5-51M640 551l5-53M618 568l5-44" stroke="#0C1153" stroke-miterlimit="10"/>
    <path d="M543 454c-4 4-6 10-6 17 0 11 5 19 12 22 3-5 6-11 6-18 0-10-5-19-12-21zM540 495c-5-6-12-10-18-10 0 5 2 11 6 16 5 6 12 10 18 10 0-5-2-11-6-16zM548 517c-3-4-8-7-13-8-9-2-17 0-22 5 3 4 7 7 13 8 9 2 17 0 22-5zM567 506c-8 2-14 8-16 14 5 3 12 4 19 2 8-3 14-8 16-15-5-3-12-4-19-1zM564 482c-6 4-10 10-11 16 5 1 10 0 15-3 6-3 10-9 11-15-5-1-10-1-15 2z" fill="#0C1153"/>
    <path d="M549 490h-1v82h1v-82z" fill="#0C1153"/>
    <path d="M548 502h1l6-4-1-1-6 5zM524 540c6 4 12 5 18 3-1-5-4-9-8-12-6-5-13-5-19-4 1 5 4 10 9 13z" fill="#0C1153"/>
    <path d="M548 546v-1l-6-3-1 1 7 3zM548 525h1l4-6-1-1-4 7zM546 510h-1l3 3 1-1-3-2zM547 517v1h1l1-1h-2zM557 528c6-7 13-10 19-10-1 5-3 10-7 15-5 7-12 10-18 10 0-5 2-10 6-15zM549 550c3-4 8-7 13-8 9-2 18 0 22 5-3 4-7 7-13 8-8 2-17 0-22-5z" fill="#0C1153"/>
    <path d="M552 542l-4 3 1 1 3-3v-1zM550 549l-1 1v1l1-1v-1zM544 560c-2-3-4-6-8-8-6-2-12-2-16 1 1 3 4 6 8 7 6 3 12 3 16 0z" fill="#0C1153"/>
    <path d="M494 523s-14-3-22 0c-10 3-13 11-14 13 0 1 4 4 9 5 2 1 9 2 15-1s7-4 9-7 2-9 3-10zM481 516s-11-4-15-9c-6-6-8-15-8-15l6 3c3 1 12 3 16 8 2 3 4 6 1 13zM520 539s-8 0-14 3c-6 2-13 7-16 19l6-2c2 0 11 1 18-3 4-3 5-5 6-7v-10zM500 523l-1-3c-2-3-4-4-5-8v-8s7 3 9 8c0 4 0 6-3 11zM458 514s-3-4-10-3c-7 0-8 2-9 3l5 2c3 1 5 2 9 1s5-3 5-3z" fill="#B0BFDE"/>
    <path d="M524 539l13 12-1 1-13-12c-14-11-37-25-67-25v-2c31 1 54 14 68 26z" fill="#B0BFDE"/>
    <path d="M456 174c44 1 137 0 169-9s35-122 20-140C629 8 574 3 547 2c-69-4-133 1-136 53-3 54-2 118 45 119z" fill="#226DF2"/>
    <path d="M580 160s-2 24-35 38c0 0 17-33 2-50-9-10 33 12 33 12z" fill="#226DF2"/>
  </g>
  <g clip-path="url(#clip0)">
    <path d="M344 98a36 36 0 1 0 0 72 36 36 0 0 0 0-72zm11 40l-1 4-2 5-1 1-2 3v4l-2 2h-2l-1-1v-2-1h1l-3-1-4-2-3-2-1-2v-1l1-2v-1-1l2-1 1-2 2-2 2-2-4-3h-1v-2h-2l-1-1v-2-2h2v-2h-1v-2-1l1-2v-2l1-1 2-2h1l4 1 5 2h1l2 1v9l1 1 1 2v1l1 7v2z" fill="#fff"/>
  </g>
  <path d="M535 80v-1l32 1v1l-32-1zM534 79l6-29h2l-7 29h-1z" fill="#fff"/>
  <path d="M543 56l1-1 18 46h-1l-18-45zM534 80l1-1 24 22-1 1-24-22zM514 89l21-11v1l-20 12-1-2z" fill="#fff"/>
  <path d="M521 68l1-1 13 12-1 1-13-12z" fill="#fff"/>
  <path d="M542 79a7 7 0 1 1-15 0 7 7 0 0 1 15 0M527 67a6 6 0 1 1-11 0 6 6 0 0 1 11 0zM552 50a10 10 0 1 1-20 0 10 10 0 0 1 20 0zM520 89a12 12 0 1 1-23 0 12 12 0 0 1 23 0M579 107a15 15 0 1 1-29 0 15 15 0 0 1 29 0zM571 81c0 5-9 5-9 0 0-6 9-6 9 0z" fill="#fff"/>
  <defs>
    <linearGradient id="paint0_linear" x1="175" y1="187" x2="175" y2="246" gradientUnits="userSpaceOnUse">
      <stop stop-color="#194866"/>
      <stop offset="1" stop-color="#AF836D"/>
    </linearGradient>
    <linearGradient id="paint1_linear" x1="478" y1="369" x2="478" y2="595" gradientUnits="userSpaceOnUse">
      <stop stop-color="#2184D9"/>
      <stop offset="1" stop-color="#35ABEA"/>
    </linearGradient>
    <linearGradient id="paint2_linear" x1="503" y1="365" x2="503" y2="589" gradientUnits="userSpaceOnUse">
      <stop stop-color="#2184D9"/>
      <stop offset="1" stop-color="#35ABEA"/>
    </linearGradient>
    <clipPath id="clip0">
      <path fill="#fff" transform="translate(308 98)" d="M0 0h73v73H0z"/>
    </clipPath>
  </defs>
</svg>
