<svg xmlns="http://www.w3.org/2000/svg" width="260" height="122" viewBox="0 0 260 122" fill="none">
<style>
  .a{
    fill:#C5CFD6;
  }
  .b{
    clip-rule:evenodd;
    fill-rule:evenodd;
    fill:#B28B67;
  }
  .c{
    clip-rule:evenodd;
    fill-rule:evenodd;
    fill:#191847;
  }
  .d{
    clip-rule:evenodd;
    fill-rule:evenodd;
    fill:#C5CFD6;
  }
  .e{
    clip-rule:evenodd;
    fill-rule:evenodd;
    fill:#136BB7;
  }
  .f{
    clip-rule:evenodd;
    fill-rule:evenodd;
    fill:#0275D8;
  }
  .g{
    clip-rule:evenodd;
    fill-rule:evenodd;
    fill:#FFC4AF;
  }
  .h{
    clip-rule:evenodd;
    fill-rule:evenodd;
    fill:#DDE3E9;
  }
</style>
  <path d="M23.4 26.8C44.7 8.3 95.8-17.5 128.7 16.9 161.5 51.2 188.2-13.9 218.4 18.8 248.7 51.5 251.7 97 218.4 113.9 185.1 130.7 152 116.5 113.6 101.5 75.2 86.5 62.7 136.7 27.6 104.4 -7.5 72 2.1 45.3 23.4 26.8Z" style="clip-rule:evenodd;fill-rule:evenodd;fill:#EDF5FA"/>
  <rect x="94.7" y="56.4" width="69.7" height="15.7" rx="4" class="a"/>
  <rect x="113.4" y="109.6" width="33.3" height="7.3" rx="3.5" class="a"/>
  <rect x="125.9" y="68.9" width="7.3" height="45.9" class="a"/>
  <path d="M47.7 24.7C49.8 26 51.9 26.6 52.9 26.4 55.3 25.7 55.6 16.7 53.7 13.2 51.8 9.6 42.1 8.1 41.6 15.1 41.4 17.6 42.4 19.7 43.9 21.5L41.2 34.2H49.1L47.7 24.7Z" class="b"/>
  <path d="M50.6 9.3C49.5 9 48 8.9 47.3 9 47.7 8.1 47.8 7.1 47.7 6.1 47.6 5.1 47.2 4.3 46.8 3.5 46.6 3.1 46.4 2.7 46.1 2.4 45.8 2.1 45.4 1.9 45 1.8 44.6 1.7 44.1 1.7 43.7 1.8 43.5 1.9 43.4 1.9 43.2 2 43 2 42.9 1.9 42.8 1.8 42.4 1.5 42 1.4 41.6 1.3 41.1 1.3 40.6 1.3 40.2 1.5 39.7 1.6 39.3 1.9 39 2.2 38.9 2.4 38.8 2.6 38.7 2.8 38.6 2.9 38.6 2.9 38.6 2.9 38.5 3 38.4 3 38.3 3 37.6 3.2 37 3.8 36.6 4.6 36.4 5 36.3 5.7 36.3 6.6 36.4 7.4 37.1 9.7 37.8 10.5 38.5 11.2 39.4 11.7 40.3 11.9 39.7 12.6 39.3 13.4 39 14.3 38.7 15.3 38.5 16.2 38.4 17.3 38.4 18.2 38.4 19.2 38.6 20.2 38.8 21 39.2 21.8 40 22.2 40.3 22.4 40.7 22.6 41.1 22.7 41.4 22.9 41.8 23 42.2 23.1 42.9 23.2 43.7 23.2 44.3 22.6 44.5 22.4 44.7 22.2 44.8 21.9 44.9 21.8 44.9 21.7 44.9 21.7 44.8 21.5 44.7 21.5 44.6 21.4 44 20.9 43.7 20.3 43.6 19.5 43.5 18.7 43.7 17.7 44.4 17.4 45.3 17 46.4 17.5 47.2 17.9 47.5 16.7 48.2 15.6 49.3 15 50.6 14.4 52 14.3 53.3 13.8 53.6 13.6 53.9 13.5 54.2 13.2 54.3 13.1 54.4 12.9 54.4 12.8 54.5 12.6 54.3 12.4 54.2 12.2 53.7 11.4 51.6 9.6 50.6 9.3Z" class="c"/>
  <path d="M30.2 75.4C21.3 75.4 14.2 82.6 14.2 91.4V100.1C14.2 109 21.3 116.1 30.2 116.1H46.1C54.9 116.1 62.1 109 62.1 100.1V91.4C62.1 82.6 54.9 75.4 46.1 75.4H30.2ZM27.3 84.6C25.1 84.6 23.3 86.4 23.3 88.6V102.9C23.3 105.1 25.1 106.9 27.3 106.9H49C51.2 106.9 53 105.1 53 102.9V88.6C53 86.4 51.2 84.6 49 84.6H27.3Z" class="d"/>
  <path d="M94.4 114.5C88 106.6 83.7 100.7 81.4 96.9 77.5 90.4 74.3 84.5 73.3 82.3 70.9 77 78.8 74.5 80.6 77 83.3 80.8 89.1 92.5 98 112.3L94.4 114.5Z" class="b"/>
  <path d="M81.3 112.2L69.3 81.8C66.7 76.3 79.1 72.7 81 75.3 85.2 81.1 95.4 104.1 96.7 105.9L81.3 112.2Z" class="e"/>
  <path d="M49.3 106.1C51.7 102.7 60.2 91.2 64.9 86.4 66.2 85 67.5 83.7 68.7 82.5 72.4 78.9 79.6 84.9 76 88.3 66.9 96.5 53.6 107.7 52.5 108.7 50.9 110.1 47.8 108.3 49.3 106.1Z" class="b"/>
  <path d="M46.8 108.3L50.5 102.5 56.4 105.9C58.9 111.3 64.7 117.1 64.7 117.1L64 118.2 53.3 112 49.9 109.4 49.6 109.9 46.8 108.3Z" class="c"/>
  <path d="M90.8 118.1L91.1 111.2 98 111.2C102.8 114.6 110.7 116.8 110.7 116.8V118.1H98.3L94.1 117.4V118.1H90.8Z" class="c"/>
  <path d="M65 83.4C65 83.4 50.1 80.9 45 80 35.4 78.3 32.6 73.1 34.2 61.7L52 61.7C55.5 62.7 81.4 74.4 81.4 74.4 84.5 75.9 83.9 80.5 83.4 82 83.3 82.1 67.6 109.1 67.6 109.1L53.1 99.8 65 84.5C65 84.5 65.5 83.5 65 83.4Z" class="f"/>
  <path d="M67.1 34.7L55.8 41 60 45.5 68.2 37.9C72.5 36.7 74.5 35.8 74.1 35.2 73.8 34.8 73.3 34.8 72.9 34.8 72.5 34.8 72.2 34.8 72 34.6 71.5 34.1 72.4 32.4 73.3 30.7 74.2 29.1 73.2 29.2 72.7 29.5 70.8 30.7 69 32.5 67.1 34.7ZM78.5 43.5L73.5 46.2 73.8 51.2C73.8 51.2 77 48.9 79.8 48.1 83.3 47.1 84.8 46.4 86.5 44.2 87.4 43 88.2 40.6 87.3 39.8 87 39.5 85.7 40.2 84.4 40.9 83.5 41.5 82.5 42 81.9 42.2 81 42.3 81.1 41.3 81.2 40.4 81.3 39.8 81.3 39.3 81 39.4 79.5 39.5 78.5 43.5 78.5 43.5Z" style="clip-rule:evenodd;fill-rule:evenodd;fill:#784931"/>
  <path d="M50.3 39.6C54.2 39.5 59.5 38.7 65.2 35.1L67.4 40C63.5 43.9 58 47.1 53.2 47 49.5 46.9 47.5 42.3 50.3 39.6Z" style="clip-rule:evenodd;fill-rule:evenodd;fill:#A7BC33"/>
  <path d="M39.6 73.7C35.8 73.2 32.3 72.7 30.3 73.1 28 65.6 29.9 60.8 31.7 56.5 32.7 53.8 33.7 51.3 33.7 48.4 33.8 39.9 40.5 26.9 41.5 26.9H41.8 49.6 50.5C50.9 32.2 52.7 37.8 54.4 43.5 54.8 44.9 55.2 46.2 55.6 47.5 62.2 49 76.8 43.8 76.8 43.8 76.8 43.8 80.5 51.5 80.2 54.8 71.7 59.2 64.4 61.2 58.4 61.3 58.6 64.9 58.2 68.3 56.7 71.5 54.8 75.6 46.6 74.6 39.6 73.7Z" style="clip-rule:evenodd;fill-rule:evenodd;fill:#C2DC53"/>
  <path d="M207.3 26.8C205.2 28.1 203.1 28.7 202.1 28.4 199.7 27.8 199.4 18.8 201.3 15.3 203.2 11.7 212.9 10.2 213.4 17.2 213.6 19.6 212.6 21.8 211.1 23.6L213.8 36.2H205.9L207.3 26.8Z" class="g"/>
  <path d="M208 18.9C208.1 18.8 208.1 18.8 208.2 18.8 209.3 18.8 210.2 19.7 210.2 20.8 210.2 21.4 210 21.9 209.6 22.2 210 22.9 210.6 23.5 211.1 24.2 213.3 22.9 214.9 19 212.8 15.3 212.2 13.5 210.9 12.5 209.3 12.1 208 11.6 206.7 11.5 205.6 11.8 204.7 11.9 203.9 12 203.3 12.1 202.7 12.2 200.9 12.4 200.1 12.1 199.7 12 199.9 12.1 200.3 12.3 200.7 12.5 201.2 12.8 201.1 12.8 201.1 12.9 200.1 12.9 199.2 12.5 198.9 12.3 199.1 12.4 199.4 12.7 199.8 13 200.5 13.6 200.4 13.8 200.3 14.1 199.9 14 199.7 13.9 199.6 13.8 199.5 13.8 199.5 13.8 199.5 14.1 200.1 14.3 200.5 14.5 200.8 14.7 201.1 14.8 201.2 14.9 201.6 15.6 202.6 15.8 204.7 15.7 205.6 16.2 206.2 17 206.9 18 206.9 18.1 206.4 24.3 204.5 24.3 203.3 24.3 202.3 23.8 201.4 23.5 200.9 23.2 200.4 23.1 200.1 23.1 199.5 23.1 199.6 23.8 200 24.4 200.1 24.6 200.5 24.8 200.8 25 201.4 25.3 202 25.6 202 26.1 202 26.5 201.6 26.5 201.2 26.5 200.9 26.5 200.7 26.5 200.7 26.7 200.7 26.8 200.7 26.9 200.7 27 200.7 27.7 200.6 28.8 201.7 28.8 203 28.8 206.6 28.3 207.2 26.4 207.7 24.8 207.9 20.2 208 18.9Z" style="clip-rule:evenodd;fill-rule:evenodd;fill:#E28A3C"/>
  <path d="M227.9 77.3H202.7L199.4 118H236.9L227.9 77.3Z" class="d"/>
  <path d="M227.9 77.3H220.2L215.5 118H236.9L227.9 77.3Z" style="clip-rule:evenodd;fill-opacity:0.1;fill-rule:evenodd;fill:black"/>
  <path d="M188.9 85.4C191.7 91.4 196.1 106.1 196.1 106.1L192.4 107.8C192.4 107.8 182.8 92.4 177 81.8 177.3 84.2 177.6 86.9 177.8 89.7 178.4 96.4 177.8 110.7 177.5 114.9 177.3 117.5 173.8 117 173.4 114.9 173.4 114.5 173.2 113.3 172.8 111.5 171.2 102.5 166.8 78.9 166.8 73.1 166.8 70.8 171.3 68.7 174 70.3 175.8 68.3 179.3 67.2 181.3 70.5 182.6 72.6 185.6 78.5 188.9 85.4Z" class="b"/>
  <path d="M195.9 100.7L183 69.9C179.9 64.9 171.2 70.9 172.3 73.8 174.7 80.4 186.8 101.7 187.5 103.7L195.9 100.7Z" class="e"/>
  <path d="M199.7 107.9L196 102.1 190.1 105.5C187.6 110.9 181.9 116.7 181.9 116.7L182.5 117.8 193.2 111.6 196.6 109 196.9 109.5 199.7 107.9Z" class="c"/>
  <path d="M179.2 118L178.9 111.1 172 111.1C167.2 114.6 159.3 116.7 159.3 116.7V118H171.7L175.9 117.4V118H179.2Z" class="c"/>
  <path d="M165.9 75.5C165.9 84.2 170 104.5 170 106.5L178.9 106.5C178.9 106.5 176.9 79.2 177.5 78.9 178.1 78.6 200.7 81.2 207.4 81.2 217.2 81.2 221.3 75 221.6 63.5H202.2C198.3 63.9 177.7 68.1 170.1 69.5 166.8 70.2 165.9 73.1 165.9 75.5Z" class="f"/>
  <path d="M178.4 67.4L187.7 58.3 190.7 63.6 181.1 69.3C178.7 73.2 177.3 74.8 176.9 74.3 176.5 73.9 176.7 73.4 176.8 72.9 177 72.6 177.1 72.3 176.9 72 176.6 71.4 174.6 71.8 172.8 72.2 171 72.6 171.4 71.7 171.8 71.2 173.5 69.8 175.7 68.5 178.4 67.4ZM232.9 80.5C231.9 78.6 228.7 59.6 228.7 59.6L221.9 59.6C221.9 59.6 228.2 80.1 228.7 81.4 229.3 83 228.2 85.4 227.5 87 227.3 87.2 227.2 87.5 227.1 87.7 228.2 88.1 228.7 87.6 229.2 87 229.8 86.3 230.5 85.6 231.9 86.3 232.5 86.5 233.1 86.9 233.6 87.2 235.4 88.2 237.1 89.2 239.4 87.8 239.8 87.6 240.2 86.7 239.2 86.1 236.8 84.4 233.3 81.5 232.9 80.5Z" class="g"/>
  <path d="M209.3 30.8L206.5 30.3C201.6 42.5 193.2 53.6 181.1 63.6L190.2 74.8C202.3 60.5 209.7 45.9 209.3 30.8Z" class="e"/>
  <path d="M221.6 66.5H196.5C196.5 66.5 205.2 45.1 205.2 30.2L212.8 29C218.7 38.7 220.4 50.5 221.6 66.5Z" class="h"/>
  <path d="M233 77.3C230.3 46.1 213 29 213 29L212.9 29C212.9 29 212.9 29 212.9 29H212.5C211.6 29 209.7 29.1 209.7 29.1L207.9 34.4C207.6 44 204.5 73.2 204.5 73.2H221C220.9 74.6 220.9 75.9 220.8 77.3H233Z" class="f"/>
  <path d="M221 73.4C221.1 67.5 220.6 62.1 219.7 57.1 219.3 63 218.3 70 216.4 73.4H221Z" style="clip-rule:evenodd;fill-rule:evenodd;fill:#0F5DA0"/>
  <path d="M217.3 63.2L209.2 59.4V63.2H217.3Z" style="clip-rule:evenodd;fill-opacity:0.2;fill-rule:evenodd;fill:white"/>
  <path d="M209 30L206.8 32.6 204.8 64H201L206.2 33.1V30H209Z" style="clip-rule:evenodd;fill-rule:evenodd;fill:#F48484"/>
  <path d="M144.1 6.6C140.5 12.3 136.4 17.9 133.9 24.2 134 23.5 134.1 22.7 134.2 22 134.8 18.1 135.6 14.2 136.5 10.3 136.9 8.3 137.3 6.3 137.8 4.3 138 3.3 138.3 2.2 138.5 1.2 138.6 0.9 138.6 0.5 138.7 0 136.3 7.7 133.9 15.3 132.2 23.2 132 24.2 131.8 25.2 131.7 26.3 131.6 26 131.6 25.8 131.5 25.6 130.8 22.8 129.8 20 128.5 17.4 127.9 16.1 127.3 14.9 126.5 13.8 126 13 124.8 12.2 124.3 11.5 126.8 15.9 127.7 21.4 129.1 26.1 129.5 27.3 129.9 28.5 130.2 29.6 128 25.4 124.7 22 120 20.5 125.7 24.1 129 30.4 131.3 36.9 131.3 36.9 131.3 37 131.4 37.1 130.7 35.9 129.8 34.7 128.7 34 126.2 32.3 123.5 32.8 121.1 34.2 123 33.1 126.4 34.1 127.9 35.3 129.1 36.1 130 37.2 130.9 38.3 131.1 38.6 131.3 38.9 131.6 39.2 132 41.7 132.7 44.3 133.6 46.8 133.5 46 133.6 44.9 133.6 44.4 133.5 44.3 133.5 44.2 133.5 44.2 133.7 44.7 133.8 45.3 133.9 45.8 133.7 44.8 133.5 43.7 133.4 42.7 133.4 42.2 133.4 41.7 133.3 41.3 133.4 40.4 133.4 39.5 133.5 38.7 133.7 37.8 133.9 37 134.1 36.3 134.9 33.9 136 31.6 137.3 29.5 138.5 27.5 140 25.7 141.7 24.1 142.6 23.2 143.6 22.4 144.5 21.6 144.9 21.3 145.5 20.5 146 20.1 142.2 22.2 138.2 24.4 135.4 27.7 135.7 26.4 136.1 25.2 136.5 24.1 138.4 18.1 140.8 12 144.1 6.6Z" class="h"/>
  <path d="M139.9 39.1C139.9 45.7 139.4 51 132.1 51 124.9 51 124.3 45.7 124.3 39.1" class="d"/>
</svg>
