<svg xmlns="http://www.w3.org/2000/svg" width="260" height="127" viewBox="0 0 260 127" fill="none">
<style>
  .a{
    fill:#3F51B5;
  }
  .b{
    fill:#00BCD4;
  }
  .c{
    fill:#191847;
  }
  .d{
    fill:#CA988B;
  }
</style>
  <path d="M23.4 26.9C44.7 8.5 95.8-17.4 128.7 17 161.5 51.4 188.2-13.7 218.4 19 248.7 51.7 251.7 97.1 218.4 114 185.1 130.9 152 116.6 113.6 101.6 75.2 86.6 62.7 136.9 27.6 104.5 -7.5 72.1 2.1 45.4 23.4 26.9Z" fill="#EDF5FA"/>
  <g opacity="0.358677">
    <path d="M78 99.3C81.9 99.3 85.1 96.1 85.1 92.2 85.1 88.3 81.9 85.1 78 85.1 74.1 85.1 71 88.3 71 92.2 71 96.1 74.1 99.3 78 99.3Z" class="a"/>
    <path d="M96.8 104C100.6 104 103.8 100.8 103.8 96.9 103.8 93 100.6 89.9 96.8 89.9 92.9 89.9 89.7 93 89.7 96.9 89.7 100.8 92.9 104 96.8 104Z" class="a"/>
    <path d="M115.5 87.5C119.4 87.5 122.5 84.3 122.5 80.4 122.5 76.5 119.4 73.4 115.5 73.4 111.6 73.4 108.5 76.5 108.5 80.4 108.5 84.3 111.6 87.5 115.5 87.5Z" class="a"/>
    <path d="M134.2 92.2C138.1 92.2 141.3 89 141.3 85.1 141.3 81.2 138.1 78.1 134.2 78.1 130.4 78.1 127.2 81.2 127.2 85.1 127.2 89 130.4 92.2 134.2 92.2Z" class="a"/>
    <path d="M153 82.8C156.9 82.8 160 79.6 160 75.7 160 71.8 156.9 68.6 153 68.6 149.1 68.6 145.9 71.8 145.9 75.7 145.9 79.6 149.1 82.8 153 82.8Z" class="a"/>
    <path d="M150.9 71.5L133.8 80.2 114.3 75.2 95.6 91.7 79.2 87.7 76.9 96.7 97.9 102.1 116.7 85.6 134.7 90.1 155.1 80 150.9 71.5Z" class="a"/>
    <path d="M78 56.7C81.9 56.7 85.1 53.5 85.1 49.6 85.1 45.6 81.9 42.4 78 42.4 74.1 42.4 71 45.6 71 49.6 71 53.5 74.1 56.7 78 56.7Z" class="b"/>
    <path d="M96.8 61.4C100.6 61.4 103.8 58.2 103.8 54.3 103.8 50.4 100.6 47.2 96.8 47.2 92.9 47.2 89.7 50.4 89.7 54.3 89.7 58.2 92.9 61.4 96.8 61.4Z" class="b"/>
    <path d="M115.5 44.8C119.4 44.8 122.5 41.6 122.5 37.7 122.5 33.8 119.4 30.6 115.5 30.6 111.6 30.6 108.5 33.8 108.5 37.7 108.5 41.6 111.6 44.8 115.5 44.8Z" class="b"/>
    <path d="M134.2 56.7C138.1 56.7 141.3 53.5 141.3 49.6 141.3 45.6 138.1 42.4 134.2 42.4 130.4 42.4 127.2 45.6 127.2 49.6 127.2 53.5 130.4 56.7 134.2 56.7Z" class="b"/>
    <path d="M153 28.2C156.9 28.2 160 25 160 21.1 160 17.2 156.9 14 153 14 149.1 14 145.9 17.2 145.9 21.1 145.9 25 149.1 28.2 153 28.2Z" class="b"/>
    <path d="M149 18.5C144.1 26.1 136.6 37.5 132.8 43.2 130 41.5 125.6 38.4 117.8 33.7L114.8 31.8 95.4 49.1 79 45.1 76.6 54.3 97.7 59.8 115.7 43.9C121.8 47.7 129.3 52.4 131 53.6L132.1 54.8 134.2 54.5C136.8 54.3 136.8 54.3 156.5 24L149 18.5Z" class="b"/>
  </g>
  <g opacity="0.486235">
    <path d="M211.7 26C192.6 26 177 41.5 177 60.5 177 79.5 192.6 95 211.7 95 221.8 95 230.8 90.8 237 84.1L211.7 60.5V26Z" class="b"/>
    <path d="M246 61C246 41.8 230.2 26 211 26V61H246Z" fill="#448AFF"/>
    <path d="M211 60L236.5 84C242.3 77.8 246 69.4 246 60H211Z" class="a"/>
  </g>
  <path d="M24.1 66.2L33.1 97.5 37.3 120.9H41.6L37.3 66.2H24.1Z" fill="#D4A181"/>
  <path d="M23.4 66.2C24.1 82.4 23.8 91.3 23.7 92.8 23.5 94.3 22.7 104.1 17.3 121.4H21.7C28.9 104.8 31.4 95 32.3 92.8 33.1 90.6 35.5 81.7 39.1 66.2H23.4Z" fill="#BA8B72"/>
  <path d="M16.7 125.4L16.9 120.2 22.1 120.2C25.7 122.8 31.7 124.4 31.7 124.4V125.4H22.3L19.1 124.9V125.4H16.7Z" class="c"/>
  <path d="M36.1 123.9L37.3 118.9 42.4 119.8C45.5 123.1 51 125.8 51 125.8L50.8 126.8 41.7 125 38.6 123.9 38.5 124.4 36.1 123.9Z" class="c"/>
  <path d="M29.6 23C29.6 23 30.1 27.8 30.5 29.4 31 30.9 32 32.9 32 32.9 32 32.9 31.4 35.8 29.6 35.8 27.8 35.8 22.8 29.4 22.8 29.4V25.3C22.8 25.3 20.6 13.9 22.8 12 25 10 30.5 9.4 30.5 9.4L32.4 12C32.4 12 35.7 18.9 33.8 21.8 31.9 24.6 29.6 23 29.6 23Z" class="d"/>
  <path d="M27.5 20.5C27.5 22.2 25.3 27 20.8 27 16.4 27 17.1 10.5 20 9.4 22.9 8.2 26.9 5.9 29.9 7.6 33 9.4 33.6 11.4 35.1 13.2 36.5 15 39.3 14 39.3 15 39.3 16 38.8 17.8 38 18.7 38.6 18.7 39.3 18.3 39.3 19.2 39.3 20.2 35.1 22.9 35.1 22.9 35.1 22.9 36.5 24.4 35.1 25.2 33.6 26.1 29.9 26.3 29.9 26.3L29.5 22.9C29.5 22.9 32.1 23.5 33.5 21 34.9 18.5 31.1 10.4 31.1 10.4 31.1 10.4 30.8 14 29.5 14 28.1 14 26.5 14.2 26.5 15.2 26.5 16.2 28.6 17.8 27.5 18.7 26.3 19.5 26 15.4 25.1 15.4 24.3 15.4 23 18.1 23.8 18.7 24.6 19.2 27.5 18.9 27.5 20.5Z" fill="#103049"/>
  <path d="M60.5 27.7L68 19.3C68 19.3 69 18.7 69 19.3 69 19.9 65.9 24.1 65.9 24.1 65.9 24.1 67.2 24 67.6 25.1 68 26.1 69.1 27.8 68 28.5 66.9 29.3 64.7 29 64.7 29L62.8 31 59.4 30.1 60.5 27.7Z" class="d"/>
  <path d="M18.7 58.2L20.9 62.8C20.9 62.8 19.2 66.2 17.2 66.2 15.2 66.2 16.7 61 16.7 61L18.7 58.2Z" fill="#CB988C"/>
  <path d="M20.3 52.2C20.3 50.2 18.7 42.4 18.7 42.4 18.7 42.4 8 47.2 8.8 48.2 9.6 49.1 19.1 57.9 19.1 57.9L16.5 61.4C16.5 61.4 0.5 55.2 0 50.6 -0.5 45.9 16 31.1 18.7 30.4 21.3 29.8 22.8 29.3 22.8 29.3 22.8 29.3 27.9 36.2 30 35.4 32 34.7 30.6 29.8 30.6 29.8 30.6 29.8 32.1 29.4 34 30.4 35.8 31.4 39.2 38.6 45 38.6 50.8 38.6 59.4 27.8 59.4 27.8L63.4 32.1C63.4 32.1 53.1 46.2 46.4 47.1 39.8 47.9 35.9 45.9 35.9 45.9V51.8C35.9 51.8 32.6 56.3 28.3 56.3 24 56.3 20.3 54.2 20.3 52.2Z" fill="#D5E0F0"/>
  <path d="M35.4 52.6C35.4 52.6 30.4 53.8 26.6 53.8 22.8 53.8 20 52.6 20 52.6L12.8 96.4C12.8 96.4 18.3 97.2 20 97.2 21.8 97.2 26.9 98.2 31.1 98.2 35.4 98.2 39.4 98.1 42.7 97.2 45.9 96.4 44.3 92.5 48.5 92.5 52.7 92.5 59.4 85.8 59.4 85.8L35.4 52.6Z" fill="#2A83F4"/>
  <path d="M34.7 56.5C34.7 56.5 32.5 91.5 30 92.9" style="stroke-opacity:0.656618;stroke:white"/>
  <path d="M37.4 39C37.4 39 39.8 42.2 38.3 44.8 36.9 47.4 30.5 47 30.5 47" stroke="white"/>
</svg>
