<svg xmlns="http://www.w3.org/2000/svg" width="268" height="129" viewBox="0 0 268 129" fill="none">
<style>
  .a{
    clip-rule:evenodd;
    fill-rule:evenodd;
    fill:#455A64;
  }
  .b{
    clip-rule:evenodd;
    fill-rule:evenodd;
    fill:#90CAF9;
  }
  .c{
    clip-rule:evenodd;
    fill-rule:evenodd;
    fill:#B28B67;
  }
  .d{
    clip-rule:evenodd;
    fill-rule:evenodd;
    fill:#191847;
  }
  .e{
    clip-rule:evenodd;
    fill-rule:evenodd;
    fill:#1166B0;
  }
  .f{
    clip-rule:evenodd;
    fill-rule:evenodd;
    fill:#0275D8;
  }
  .g{
    clip-rule:evenodd;
    fill-rule:evenodd;
    fill:#E4E4E4;
  }
  .h{
    fill:#191847;
  }
  .i{
    clip-rule:evenodd;
    fill-rule:evenodd;
    fill:#DDE3E9;
  }
</style>
  <path d="M31.4 26.8C52.7 8.3 103.8-17.5 136.7 16.9 169.5 51.2 196.2-13.9 226.4 18.8 256.7 51.5 259.7 97 226.4 113.9 193.1 130.7 160 116.5 121.6 101.5 83.2 86.5 70.7 136.7 35.6 104.4 0.5 72 10.1 45.3 31.4 26.8Z" style="clip-rule:evenodd;fill-rule:evenodd;fill:#EDF5FA"/>
  <g opacity="0.725795">
    <path d="M184.6 96H236.6C242 96 246.2 91.8 246 86.2V34.5C246 29.2 241.8 25 236.4 25H184.6C179.2 25 175 29.2 175 34.5V86.5C175 91.8 179.2 96 184.6 96ZM179.5 34.5C179.5 31.7 181.7 29.4 184.6 29.4H236.4C239.3 29.4 241.5 31.7 241.5 34.5V86.2C241.5 89.1 239.3 91.3 236.4 91.3H184.6C181.7 91.3 179.5 89.1 179.5 86.2V34.5Z" style="clip-rule:evenodd;fill-rule:evenodd;fill:#B0BEC5"/>
    <path d="M191 66.8C191 69.1 189.1 71 186.7 71H169.3C167 71 165 69.1 165 66.8V54.2C165 51.9 167 50 169.3 50H186.7C189.1 50 191 51.9 191 54.2V66.8Z" class="a"/>
    <path d="M224 33.8C224 36.1 222.1 38 219.7 38H202.3C200 38 198 36.1 198 33.8V21.2C198 18.9 200 17 202.3 17H219.7C222.1 17 224 18.9 224 21.2V33.8Z" class="a"/>
    <path d="M224 99.8C224 102.1 222.1 104 219.7 104H202.3C200 104 198 102.1 198 99.8V87.2C198 84.9 200 83 202.3 83H219.7C222.1 83 224 84.9 224 87.2V99.8Z" class="a"/>
    <path d="M257 66.8C257 69.1 255.1 71 252.7 71H235.3C233 71 231 69.1 231 66.8V54.2C231 51.9 233 50 235.3 50H252.7C255.1 50 257 51.9 257 54.2V66.8Z" class="a"/>
    <path d="M170 55H188V68H170V55Z" class="b"/>
    <path d="M203 20H221V33H203V20Z" class="b"/>
    <path d="M203 88H221V101H203V88Z" class="b"/>
    <path d="M234 55H252V68H234V55Z" class="b"/>
  </g>
  <path d="M39 35.9C40.7 36.9 42.3 37.4 43.1 37.2 45.1 36.7 45.3 29.5 43.8 26.6 42.2 23.8 34.4 22.5 34 28.2 33.8 30.1 34.7 31.9 35.9 33.3L33.7 43.5H40L39 35.9Z" class="c"/>
  <path d="M35.4 34.6C34.6 31.1 32.3 28.6 32.7 27.1 33 25.5 34.5 25.1 34.5 25.1 34.5 25.1 35.3 21.9 39.5 22.4 43.7 22.9 46.3 24.6 45.2 28.5 44.2 28.5 42.9 28.1 41.2 28.8 40.4 29.1 40.1 30.6 40.1 30.6H39.3C39.3 30.6 38.2 28.8 37.1 29.3 36 29.8 36.6 31.7 36.6 31.7L36.2 34.6H35.4Z" class="d"/>
  <path d="M64.8 85.5C64.3 90.9 64.8 102.5 65.1 105.8 65.3 107.9 68.1 107.4 68.4 105.7 68.4 105.4 68.6 104.4 68.9 102.9 70.2 95.6 73.7 76.5 73.7 71.8 73.7 69.7 69 68 67.1 70.5 65.6 69.4 63.4 69.1 62 71.4 61 73 58.5 77.8 55.9 83.4 53.6 88.2 50.1 100.1 50.1 100.1L53.1 101.5C53.1 101.5 60.6 89.4 65.3 80.9 65.1 82.3 65 83.9 64.8 85.5Z" class="c"/>
  <path d="M50.3 95.7L60.7 70.9C63.2 66.9 70.2 71.7 69.3 74.1 67.4 79.4 57.6 96.6 57 98.1L50.3 95.7Z" class="e"/>
  <path d="M74 73.7C74 80.8 70.9 97.3 70.9 98.8L63.5 98.6C63.5 98.6 65.5 77 65.2 76.9 64.7 76.7 46.4 79.4 40.9 79.6 33 79.9 29.8 75.1 29.5 65.8L44.8 65.8C44.8 65.8 64.4 68.2 70.6 69.1 73.3 69.5 74 71.8 74 73.7Z" class="f"/>
  <path d="M51.8 100C50.7 99.7 49.3 99.6 48.9 100.7 48.8 100.8 48.8 100.8 48.8 100.9 48.6 101.6 48.5 103 48.5 103 49.3 103.2 62.9 106.6 62.9 106.6 62.9 106.6 64 104.9 62.8 104.4 61.6 104 60.8 103.7 60.8 103.7L55.5 99.4C55 99.1 54.4 99.2 54.1 99.6L53.8 100C53.8 100 52.6 100.2 51.9 100 51.8 100 51.8 100 51.8 100Z" class="g"/>
  <path d="M67 102C65.8 102 64.4 102.2 64.3 103.4 64.3 103.5 64.3 103.6 64.3 103.6 64.3 104.3 64.5 105.7 64.5 105.7 65.3 105.7 79.3 105.7 79.3 105.7 79.3 105.7 79.9 103.8 78.7 103.6 77.4 103.5 76.6 103.4 76.6 103.4L70.4 100.6C69.9 100.3 69.3 100.6 69.1 101.1L68.9 101.5C68.9 101.5 67.8 102 67 102 67 102 67 102 67 102Z" class="g"/>
  <rect x="64.5" y="105.7" width="14" height="1.9" rx="0.9" fill="#2F3676"/>
  <path d="M26.1 77.3C26.1 71.8 30.5 67.3 36.1 67.3H49.5C55 67.3 59.5 71.8 59.5 77.3V83H30.1C27.9 83 26.1 81.2 26.1 79V77.3Z" fill="#FFC107"/>
  <path d="M56.9 67.3C58.5 67.3 59.9 68.5 60.1 70.1L65.8 104.9H63" style="clip-rule:evenodd;fill-rule:evenodd;fill:#FFC107"/>
  <path d="M64.5 110.2C67.1 110.2 69.3 108.1 69.3 105.4 69.3 102.8 67.1 100.7 64.5 100.7 61.9 100.7 59.8 102.8 59.8 105.4 59.8 108.1 61.9 110.2 64.5 110.2Z" class="d"/>
  <path d="M49.5 89.6C49.5 100.7 40.5 109.7 29.5 109.7 18.4 109.7 9.5 100.7 9.5 89.6 9.5 78.5 18.4 69.5 29.5 69.5 40.5 69.5 49.5 78.5 49.5 89.6ZM45.8 89.6C45.8 98.6 38.5 106 29.5 106 20.5 106 13.2 98.6 13.2 89.6 13.2 80.5 20.5 73.2 29.5 73.2 38.5 73.2 45.8 80.5 45.8 89.6Z" class="d"/>
  <rect x="28.4" y="72.1" width="2.1" height="34.9" class="h"/>
  <rect width="2.1" height="34.8" rx="1.1" transform="matrix(0.705359 0.708851 -0.705359 0.708851 41.0381 76.4703)" class="h"/>
  <rect x="46.9" y="88.5" width="2.1" height="34.8" rx="1.1" transform="rotate(90 46.874 88.5105)" class="h"/>
  <rect width="2.1" height="34.8" rx="1.1" transform="matrix(-0.705359 0.708851 -0.705359 -0.708851 42.5283 101.171)" class="h"/>
  <path d="M63.8 68.6L56.4 61.3 53.9 65.6 61.6 70.2C63.6 73.3 64.7 74.6 65.1 74.2 65.4 73.8 65.2 73.4 65.1 73.1 65 72.8 64.9 72.5 65 72.3 65.3 71.9 66.9 72.1 68.3 72.5 69.8 72.8 69.5 72.1 69.2 71.7 67.8 70.6 66 69.5 63.8 68.6ZM19.9 79.2C20.6 77.7 23.3 62.3 23.3 62.3L28.8 62.3C28.8 62.3 23.7 78.9 23.3 79.9 22.7 81.2 23.6 83.1 24.2 84.4 24.3 84.6 24.4 84.8 24.5 85 23.6 85.3 23.2 84.9 22.8 84.4 22.3 83.8 21.8 83.3 20.6 83.8 20.2 84 19.7 84.3 19.3 84.6 17.8 85.4 16.4 86.2 14.6 85.1 14.3 84.9 14 84.2 14.7 83.7 16.7 82.3 19.5 80 19.9 79.2Z" class="c"/>
  <path d="M38.9 39.1L41.2 38.7C45.1 48.6 51.9 57.5 61.7 65.5L54.3 74.6C44.6 63.1 38.5 51.3 38.9 39.1Z" class="d"/>
  <path d="M29 67.9H49.2C49.2 67.9 42.2 50.7 42.2 38.6L36.1 37.7C31.3 45.5 29.9 55 29 67.9Z" class="i"/>
  <path d="M19.8 76.6C22 51.5 35.9 37.7 35.9 37.7L36 37.7C36 37.7 36 37.7 36 37.7H36.4C37.1 37.7 38.5 37.8 38.5 37.8L40 42C40.2 49.8 42.8 73.3 42.8 73.3H29.5C29.5 74.4 29.6 75.5 29.6 76.6H19.8Z" style="clip-rule:evenodd;fill-rule:evenodd;fill:#2F3676"/>
  <path d="M29.5 73.4C29.4 68.7 29.8 64.3 30.5 60.3 30.8 65.1 31.6 70.8 33.2 73.4H29.5Z" style="clip-rule:evenodd;fill-opacity:0.1;fill-rule:evenodd;fill:black"/>
  <path d="M32.4 65.2L39 62.2V65.2H32.4Z" style="clip-rule:evenodd;fill-opacity:0.2;fill-rule:evenodd;fill:white"/>
  <path d="M113.5 7C116.8 7 119.5 9.7 119.5 13V17.7C119.5 20.7 117.3 23.1 114.4 23.6 114.4 23.6 114.4 23.6 114.4 23.6H106.8C105.5 22.4 106.9 13.9 107.9 11.1 108 10.6 108.2 10.2 108.4 10 109.4 8.2 111.3 7 113.5 7Z" class="d"/>
  <path d="M113.4 19.5C111.7 20.5 110 21 109.2 20.8 107.3 20.3 107.1 13.2 108.6 10.4 110.1 7.6 118 6.4 118.4 11.9 118.6 13.9 117.7 15.6 116.5 17L118.7 27H112.4L113.4 19.5Z" class="c"/>
  <path d="M119.3 12C119.1 11.8 118.9 11.6 118.7 11.5L118.7 11.3C118.7 11.3 116.7 7.3 113.7 7.3 110.6 7.3 109.6 8.7 108.8 9.9L108.8 9.9C109.3 11.3 110.5 11.9 112 12.6 112.6 12.8 113.3 13.1 114 13.5 114.2 13.3 114.5 13.2 114.9 13.2 115.7 13.2 116.3 13.8 116.3 14.6 116.3 15.4 115.7 16.1 114.9 16.1 114.8 16.1 114.8 16.1 114.8 16.1 114.5 19.1 114.6 22.7 115.5 23.5H123.2C123.4 19.7 122.4 18.7 121.4 17.6 120.4 16.6 119.5 15.5 119.5 12.2 119.4 12.1 119.3 12 119.3 12Z" class="d"/>
  <path d="M122.3 49L112.6 82.3 108.1 107.3H103.6L108.1 49H122.3Z" style="clip-rule:evenodd;fill-rule:evenodd;fill:#997659"/>
  <path d="M126.6 49C126 66.3 126.2 75.7 126.4 77.3 126.5 78.9 127.4 89.4 133.2 107.8H128.5C120.8 90.1 118.1 79.6 117.2 77.3 116.3 75 113.7 65.5 109.9 49H126.6Z" class="c"/>
  <path d="M122.5 49C120 60.4 115.7 78.7 109.5 103.8H102.8C102.3 78.1 104.4 61.1 108 49H122.5Z" class="e"/>
  <path d="M126.7 49C126 66.3 127.7 83.3 133 104.1H125.9C118.2 86.7 112.6 69.8 108.8 49H126.7Z" class="f"/>
  <path d="M133.9 111.2L133.7 108.2C133.7 107.6 133 107.2 132.4 107.2 130.3 107.3 127.9 106.5 127.9 106.5 125.3 108.3 121.9 109.3 119.8 109.8 118.8 110 118.2 111 118.5 112H127.9 133.4L133.9 111.2Z" class="d"/>
  <path d="M109.1 111.2L108.9 108.2C108.9 107.6 108.3 107.2 107.6 107.2 105.5 107.3 103.1 106.5 103.1 106.5 100.6 108.3 97.2 109.3 95.1 109.8 94.1 110 93.4 111 93.7 112H103.1 108.6L109.1 111.2Z" class="d"/>
  <path d="M87.4 42L97.4 44.8 94.9 49.1 87.1 44.6C83.5 44.5 81.8 44.2 82 43.7 82.1 43.2 82.5 43.2 82.9 43.1 83.2 43 83.4 43 83.6 42.8 83.8 42.3 82.8 41.1 81.8 40 80.8 38.9 81.6 38.8 82.1 38.9 83.7 39.5 85.5 40.6 87.4 42ZM130.6 42.4L135.7 40.6C140.7 49.6 143.6 54.5 144.4 55.3 145 55.9 148.4 57.2 150.7 57.8 151.6 58.1 151.5 58.8 151.3 59.1 149.9 60.8 148.4 60.5 146.7 60.1 146.2 60.1 145.7 60 145.2 59.9 143.9 59.8 143.6 60.5 143.3 61.1 143.1 61.7 142.8 62.3 141.9 62.2 141.9 62 141.9 61.8 142 61.6 142.1 60.2 142.4 58.1 141.4 57.1 141 56.5 137.3 51.6 130.6 42.4Z" class="c"/>
  <path d="M113.1 23.4L110.8 23.3C106.5 28.8 106.2 40.5 103.1 42.4 100.2 44.3 95.6 43.5 90.2 42.4L89.1 46.2C94.5 50.6 105.2 53.6 108.9 50.5 114.9 45.6 114.5 31.3 113.1 23.4Z" style="clip-rule:evenodd;fill-rule:evenodd;fill:#DB2721"/>
  <path d="M126.9 50.3C126.9 50.3 113.3 52.2 107 53.1 106 53.2 106 51.9 106.1 51.2 106.5 43.3 111.3 34.3 109.8 23.4L115.4 21.7C121.2 28.6 124.2 37.8 126.9 50.3Z" class="i"/>
  <path d="M115.7 21.6L115.8 21.6C129.8 27.7 139.3 38.9 144.3 55.2L140.3 56.7C137 53.8 132.9 49 127.8 42.3 129.7 46.5 131.2 50.9 132.1 55.1L114.1 57.7C109.4 49.4 113.5 21.9 113.5 21.9L114.7 21.7 115.7 21.6Z" style="clip-rule:evenodd;fill-rule:evenodd;fill:#FF4133"/>
</svg>
