<svg width="154" height="154" viewBox="0 0 154 154" fill="none" xmlns="http://www.w3.org/2000/svg">
<path fill-rule="evenodd" clip-rule="evenodd" d="M77 154C119.526 154 154 119.526 154 77C154 34.4741 119.526 0 77 0C34.4741 0 0 34.4741 0 77C0 119.526 34.4741 154 77 154Z" fill="#4A90E2" fill-opacity="0.496203"/>
<mask id="mask0" mask-type="alpha" maskUnits="userSpaceOnUse" x="0" y="0" width="154" height="154">
<path fill-rule="evenodd" clip-rule="evenodd" d="M77 154C119.526 154 154 119.526 154 77C154 34.4741 119.526 0 77 0C34.4741 0 0 34.4741 0 77C0 119.526 34.4741 154 77 154Z" fill="white"/>
</mask>
<g mask="url(#mask0)">
<path d="M60.3728 129.776L31.5524 45.0563C29.6522 39.3661 32.8193 33.3598 38.52 31.4631L79.692 17.5539C85.3928 15.6572 91.7269 18.8183 93.6272 24.1924L122.448 108.912C124.348 114.603 121.181 120.609 115.48 122.506L74.308 136.415C68.2905 138.312 62.2731 135.466 60.3728 129.776Z" fill="#4A90E2"/>
<path fill-rule="evenodd" clip-rule="evenodd" d="M124.063 92.8299C122.799 92.8299 121.536 91.886 121.22 90.6275L104.48 40.2872C103.848 38.7141 104.796 36.8264 106.375 36.1971C107.954 35.5678 109.849 36.5117 110.481 38.0849L127.222 88.4251C127.853 89.9982 126.906 91.886 125.326 92.5153C124.695 92.8299 124.379 92.8299 124.063 92.8299ZM44.4666 115.798C44.7824 117.056 46.0459 118 47.3093 118C47.6252 118 47.941 118 48.5727 117.685C50.152 117.056 51.0996 115.168 50.4679 113.595L31.5164 60.1087C30.8846 58.5356 28.9895 57.5917 27.4102 58.221C25.8309 58.8502 24.8833 60.738 25.515 62.3111L44.4666 115.798ZM30.5688 109.505C30.8846 110.764 32.1481 111.707 33.4115 111.707C33.7274 111.707 34.0432 111.707 34.6749 111.393C36.2542 110.764 37.2018 108.876 36.5701 107.303L25.1992 75.84C24.5675 74.2669 22.6723 73.323 21.093 73.9523C19.5137 74.5815 18.5662 76.4693 19.1979 78.0424L30.5688 109.505ZM128.801 78.0424C129.117 79.3009 130.38 80.2448 131.644 80.2448C131.959 80.2448 132.275 80.2448 132.907 79.9302C134.486 79.3009 135.434 77.4132 134.802 75.84L124.379 44.3774C123.747 42.8043 121.852 41.8604 120.273 42.4896C118.693 43.1189 117.746 45.0066 118.377 46.5798L128.801 78.0424Z" fill="#42A5F5"/>
<path d="M82.5948 25.0802L41.7701 38.9344C40.514 39.5641 39.5718 40.8235 40.1999 42.3979L65.9509 119.225C66.5789 120.485 67.8351 121.429 69.4052 120.8L110.23 106.945C111.486 106.316 112.428 105.056 111.8 103.482L86.0491 26.6546C85.7351 25.3951 84.1649 24.7654 82.5948 25.0802Z" fill="white"/>
<path d="M95.807 120.813C96.4415 122.999 95.4898 125.185 93.269 125.81C91.0482 126.435 88.8275 125.498 88.193 123.312C87.5585 121.125 88.5102 118.939 90.731 118.315C92.9518 117.378 95.1725 118.627 95.807 120.813Z" fill="#F8E71C"/>
<path d="M69.6591 78.9262L69.3336 77.9807L80.6798 74.0739L76.1218 60.8366C75.7637 59.7966 76.1852 57.642 78.0762 56.9908C79.9673 56.3397 81.4694 57.9377 81.795 58.8832C82.1205 59.8288 87.3296 74.957 87.3296 74.957C87.3296 74.957 91.4823 75.9597 93.3595 77.1113C94.9499 78.0443 95.6925 79.5866 94.9873 81.8389L93.6716 86.3109C91.8737 89.997 89.786 93.1484 85.8148 94.5158L79.2907 96.7622C74.4686 98.4226 69.068 95.9459 67.4076 91.1238C67.4076 91.1238 65.8449 86.5853 63.8915 80.9122L69.6591 78.9262Z" fill="#FFCC80"/>
<path d="M82.9906 80.7871C83.5116 82.2999 82.6111 83.9849 81.0982 84.5058C79.4909 85.0593 77.8384 84.2533 77.3175 82.7405L74.9734 75.9328C74.4525 74.4199 75.2585 72.7675 76.8659 72.2141C78.3787 71.6931 80.1256 72.4665 80.6466 73.9794L82.9906 80.7871Z" fill="#FFCC80"/>
<path d="M77.3168 82.7405C77.8377 84.2533 76.9372 85.9383 75.4244 86.4592C73.817 87.0127 72.1646 86.2067 71.6437 84.6939L69.2996 77.8862C68.7787 76.3733 69.5846 74.7209 71.192 74.1675C72.7049 73.6466 74.4518 74.4199 74.9727 75.9328L77.3168 82.7405Z" fill="#FFCC80"/>
<path d="M71.6436 84.6939C72.1645 86.2067 71.264 87.8917 69.7512 88.4126C68.1438 88.9661 66.4914 88.1601 65.9705 86.6473L63.952 80.7851C63.4311 79.2723 64.237 77.6199 65.8444 77.0664C67.3572 76.5455 69.1042 77.3189 69.6251 78.8317L71.6436 84.6939Z" fill="#FFCC80"/>
<path d="M80.9755 59.2708C80.5849 58.1362 79.4409 57.5782 78.4008 57.9363C77.3607 58.2945 76.8353 59.533 77.1935 60.5731C77.5841 61.7077 81.3662 60.4054 80.9755 59.2708Z" fill="#FFEBEE"/>
<path d="M90.2582 83.4667L87.3281 74.957C87.3281 74.957 89.072 75.4142 90.8484 75.9659L90.2582 83.4667Z" fill="#F2A25A"/>
<path fill-rule="evenodd" clip-rule="evenodd" d="M71.9129 67.0449C72.5315 68.8414 74.5652 69.8333 76.3617 69.2147C77.8746 68.6938 80.4382 65.6958 81.1884 64.803L82.2191 63.4962L80.6023 63.101C79.4615 62.8593 75.501 62.1077 74.0828 62.5961C72.2863 63.2147 71.2943 65.2484 71.9129 67.0449ZM73.804 66.3937C73.5435 65.6373 73.9775 64.7476 74.7339 64.4871C75.2066 64.3243 76.8528 64.4978 78.5316 64.7659C77.3737 66.0107 76.1834 67.1609 75.7106 67.3237C74.9542 67.5841 74.0644 67.1502 73.804 66.3937Z" fill="#FF3D00"/>
<path fill-rule="evenodd" clip-rule="evenodd" d="M80.2426 65.1285C81.3834 65.3703 85.3439 66.1218 86.7621 65.6335C88.5586 65.0149 89.5505 62.9811 88.932 61.1847C88.3134 59.3882 86.2797 58.3963 84.4832 59.0148C83.0649 59.5032 80.4067 62.5337 79.6565 63.4266L78.6258 64.7334L80.2426 65.1285ZM86.111 63.7424C85.6382 63.9052 83.9921 63.7317 82.3133 63.4636C83.4712 62.2189 84.6615 61.0687 85.1343 60.9059C85.8907 60.6454 86.7805 61.0794 87.0409 61.8358C87.3014 62.5922 86.8674 63.482 86.111 63.7424Z" fill="#FF3D00"/>
</g>
<g style="mix-blend-mode:multiply">
<path fill-rule="evenodd" clip-rule="evenodd" d="M76.9995 154C119.525 154 153.999 119.526 153.999 77C153.999 55.0451 144.811 35.2363 130.07 21.2094C116.257 8.0667 79.0206 21.2094 81.826 80.3133C83.5976 117.638 6.72338 112.992 17.8953 126.356C32.0199 143.252 53.2545 154 76.9995 154Z" fill="#4A90E2" fill-opacity="0.496203"/>
</g>
<g style="mix-blend-mode:color">
<path fill-rule="evenodd" clip-rule="evenodd" d="M77 154C119.526 154 154 119.526 154 77C154 34.4741 119.526 0 77 0C34.4741 0 0 34.4741 0 77C0 119.526 34.4741 154 77 154Z" fill="#2B85F5"/>
</g>
<mask id="mask1" mask-type="alpha" maskUnits="userSpaceOnUse" x="0" y="0" width="154" height="154">
<g style="mix-blend-mode:color">
<path fill-rule="evenodd" clip-rule="evenodd" d="M77 154C119.526 154 154 119.526 154 77C154 34.4741 119.526 0 77 0C34.4741 0 0 34.4741 0 77C0 119.526 34.4741 154 77 154Z" fill="white"/>
<path fill-rule="evenodd" clip-rule="evenodd" d="M77 154C119.526 154 154 119.526 154 77C154 34.4741 119.526 0 77 0C34.4741 0 0 34.4741 0 77C0 119.526 34.4741 154 77 154Z" stroke="white"/>
</g>
</mask>
<g mask="url(#mask1)">
</g>
</svg>
