<svg width="194" height="194" viewBox="0 0 194 194" fill="none" xmlns="http://www.w3.org/2000/svg">
<g filter="url(#filter0_d)">
<path fill-rule="evenodd" clip-rule="evenodd" d="M97 170C139.526 170 174 135.526 174 93C174 50.4741 139.526 16 97 16C54.4741 16 20 50.4741 20 93C20 135.526 54.4741 170 97 170Z" fill="#4A90E2" fill-opacity="0.496203"/>
<mask id="mask0" mask-type="alpha" maskUnits="userSpaceOnUse" x="20" y="16" width="154" height="154">
<path fill-rule="evenodd" clip-rule="evenodd" d="M97 170C139.526 170 174 135.526 174 93C174 50.4741 139.526 16 97 16C54.4741 16 20 50.4741 20 93C20 135.526 54.4741 170 97 170Z" fill="white"/>
</mask>
<g mask="url(#mask0)">
<path d="M80.3728 145.776L51.5524 61.0563C49.6522 55.3661 52.8193 49.3598 58.52 47.4631L99.692 33.5539C105.393 31.6572 111.727 34.8183 113.627 40.1924L142.448 124.912C144.348 130.603 141.181 136.609 135.48 138.506L94.308 152.415C88.2905 154.312 82.2731 151.466 80.3728 145.776Z" fill="#4A90E2"/>
<path fill-rule="evenodd" clip-rule="evenodd" d="M144.063 108.83C142.799 108.83 141.536 107.886 141.22 106.627L124.48 56.2872C123.848 54.7141 124.796 52.8264 126.375 52.1971C127.954 51.5678 129.849 52.5117 130.481 54.0849L147.222 104.425C147.853 105.998 146.906 107.886 145.326 108.515C144.695 108.83 144.379 108.83 144.063 108.83ZM64.4666 131.798C64.7824 133.056 66.0459 134 67.3093 134C67.6252 134 67.941 134 68.5727 133.685C70.152 133.056 71.0996 131.168 70.4679 129.595L51.5164 76.1087C50.8846 74.5356 48.9895 73.5917 47.4102 74.221C45.8309 74.8502 44.8833 76.738 45.515 78.3111L64.4666 131.798ZM50.5688 125.505C50.8846 126.764 52.1481 127.707 53.4115 127.707C53.7274 127.707 54.0432 127.707 54.6749 127.393C56.2542 126.764 57.2018 124.876 56.5701 123.303L45.1992 91.84C44.5675 90.2669 42.6723 89.323 41.093 89.9523C39.5137 90.5815 38.5662 92.4693 39.1979 94.0424L50.5688 125.505ZM148.801 94.0424C149.117 95.3009 150.38 96.2448 151.644 96.2448C151.959 96.2448 152.275 96.2448 152.907 95.9302C154.486 95.3009 155.434 93.4132 154.802 91.84L144.379 60.3774C143.747 58.8043 141.852 57.8604 140.273 58.4896C138.693 59.1189 137.746 61.0066 138.377 62.5798L148.801 94.0424Z" fill="#42A5F5"/>
<path d="M102.595 41.0802L61.7701 54.9344C60.514 55.5641 59.5718 56.8235 60.1999 58.3979L85.9509 135.225C86.5789 136.485 87.8351 137.429 89.4052 136.8L130.23 122.945C131.486 122.316 132.428 121.056 131.8 119.482L106.049 42.6546C105.735 41.3951 104.165 40.7654 102.595 41.0802Z" fill="white"/>
<path d="M115.807 136.813C116.442 138.999 115.49 141.185 113.269 141.81C111.048 142.435 108.827 141.498 108.193 139.312C107.558 137.125 108.51 134.939 110.731 134.315C112.952 133.378 115.173 134.627 115.807 136.813Z" fill="#F8E71C"/>
<path d="M89.6591 94.9262L89.3336 93.9807L100.68 90.0739L96.1218 76.8366C95.7637 75.7966 96.1852 73.642 98.0762 72.9908C99.9673 72.3397 101.469 73.9377 101.795 74.8832C102.121 75.8288 107.33 90.957 107.33 90.957C107.33 90.957 111.482 91.9597 113.359 93.1113C114.95 94.0443 115.692 95.5866 114.987 97.8389L113.672 102.311C111.874 105.997 109.786 109.148 105.815 110.516L99.2907 112.762C94.4686 114.423 89.068 111.946 87.4076 107.124C87.4076 107.124 85.8449 102.585 83.8915 96.9122L89.6591 94.9262Z" fill="#FFCC80"/>
<path d="M102.991 96.7871C103.512 98.2999 102.611 99.9849 101.098 100.506C99.4909 101.059 97.8384 100.253 97.3175 98.7405L94.9734 91.9328C94.4525 90.4199 95.2585 88.7675 96.8659 88.2141C98.3787 87.6931 100.126 88.4665 100.647 89.9794L102.991 96.7871Z" fill="#FFCC80"/>
<path d="M97.3168 98.7405C97.8377 100.253 96.9372 101.938 95.4244 102.459C93.817 103.013 92.1646 102.207 91.6437 100.694L89.2996 93.8862C88.7787 92.3733 89.5846 90.7209 91.192 90.1675C92.7049 89.6466 94.4518 90.4199 94.9727 91.9328L97.3168 98.7405Z" fill="#FFCC80"/>
<path d="M91.6436 100.694C92.1645 102.207 91.264 103.892 89.7512 104.413C88.1438 104.966 86.4914 104.16 85.9705 102.647L83.952 96.7851C83.4311 95.2723 84.237 93.6199 85.8444 93.0664C87.3572 92.5455 89.1042 93.3189 89.6251 94.8317L91.6436 100.694Z" fill="#FFCC80"/>
<path d="M100.976 75.2708C100.585 74.1362 99.4409 73.5782 98.4008 73.9363C97.3607 74.2945 96.8353 75.533 97.1935 76.5731C97.5841 77.7077 101.366 76.4054 100.976 75.2708Z" fill="#FFEBEE"/>
<path d="M110.258 99.4667L107.328 90.957C107.328 90.957 109.072 91.4142 110.848 91.9659L110.258 99.4667Z" fill="#F2A25A"/>
<path fill-rule="evenodd" clip-rule="evenodd" d="M91.9129 83.0449C92.5315 84.8414 94.5652 85.8333 96.3617 85.2147C97.8746 84.6938 100.438 81.6958 101.188 80.803L102.219 79.4962L100.602 79.101C99.4615 78.8593 95.501 78.1077 94.0828 78.5961C92.2863 79.2147 91.2943 81.2484 91.9129 83.0449ZM93.804 82.3937C93.5435 81.6373 93.9775 80.7476 94.7339 80.4871C95.2066 80.3243 96.8528 80.4978 98.5316 80.7659C97.3737 82.0107 96.1834 83.1609 95.7106 83.3237C94.9542 83.5841 94.0644 83.1502 93.804 82.3937Z" fill="#FF3D00"/>
<path fill-rule="evenodd" clip-rule="evenodd" d="M100.243 81.1285C101.383 81.3703 105.344 82.1218 106.762 81.6335C108.559 81.0149 109.551 78.9811 108.932 77.1847C108.313 75.3882 106.28 74.3963 104.483 75.0148C103.065 75.5032 100.407 78.5337 99.6565 79.4266L98.6258 80.7334L100.243 81.1285ZM106.111 79.7424C105.638 79.9052 103.992 79.7317 102.313 79.4636C103.471 78.2189 104.662 77.0687 105.134 76.9059C105.891 76.6454 106.78 77.0794 107.041 77.8358C107.301 78.5922 106.867 79.482 106.111 79.7424Z" fill="#FF3D00"/>
</g>
<g style="mix-blend-mode:multiply">
<path fill-rule="evenodd" clip-rule="evenodd" d="M96.9995 170C139.525 170 173.999 135.526 173.999 93C173.999 71.0451 164.811 51.2363 150.07 37.2094C136.257 24.0667 99.0206 37.2094 101.826 96.3133C103.598 133.638 26.7234 128.992 37.8953 142.356C52.0199 159.252 73.2545 170 96.9995 170Z" fill="#4A90E2" fill-opacity="0.496203"/>
</g>
<g style="mix-blend-mode:color">
<path fill-rule="evenodd" clip-rule="evenodd" d="M97 170C139.526 170 174 135.526 174 93C174 50.4741 139.526 16 97 16C54.4741 16 20 50.4741 20 93C20 135.526 54.4741 170 97 170Z" fill="#2B85F5"/>
</g>
<mask id="mask1" mask-type="alpha" maskUnits="userSpaceOnUse" x="20" y="16" width="154" height="154">
<g style="mix-blend-mode:color">
<path fill-rule="evenodd" clip-rule="evenodd" d="M97 170C139.526 170 174 135.526 174 93C174 50.4741 139.526 16 97 16C54.4741 16 20 50.4741 20 93C20 135.526 54.4741 170 97 170Z" fill="white"/>
<path fill-rule="evenodd" clip-rule="evenodd" d="M97 170C139.526 170 174 135.526 174 93C174 50.4741 139.526 16 97 16C54.4741 16 20 50.4741 20 93C20 135.526 54.4741 170 97 170Z" stroke="white"/>
</g>
</mask>
<g mask="url(#mask1)">
</g>
</g>
<defs>
<filter id="filter0_d" x="0" y="0" width="194" height="194" filterUnits="userSpaceOnUse" color-interpolation-filters="sRGB">
<feFlood flood-opacity="0" result="BackgroundImageFix"/>
<feColorMatrix in="SourceAlpha" type="matrix" values="0 0 0 0 0 0 0 0 0 0 0 0 0 0 0 0 0 0 127 0"/>
<feOffset dy="4"/>
<feGaussianBlur stdDeviation="10"/>
<feColorMatrix type="matrix" values="0 0 0 0 0 0 0 0 0 0 0 0 0 0 0 0 0 0 0.25 0"/>
<feBlend mode="normal" in2="BackgroundImageFix" result="effect1_dropShadow"/>
<feBlend mode="normal" in="SourceGraphic" in2="effect1_dropShadow" result="shape"/>
</filter>
</defs>
</svg>
