<svg width="154" height="158" viewBox="0 0 154 158" fill="none" xmlns="http://www.w3.org/2000/svg">
<path fill-rule="evenodd" clip-rule="evenodd" d="M77 154C119.526 154 154 119.526 154 77C154 34.4741 119.526 0 77 0C34.4741 0 0 34.4741 0 77C0 119.526 34.4741 154 77 154Z" fill="#4A90E2" fill-opacity="0.496203"/>
<path d="M90.3006 95.3169C88.3246 93.5414 85.4993 93.0695 83.0514 94.1136C82.1843 94.5206 81.3939 95.0691 80.7097 95.7415C79.7954 96.6558 78.9401 97.629 78.1616 98.6554C77.3358 97.6349 76.451 96.6676 75.5014 95.7592C74.8172 95.0868 74.0268 94.5323 73.1597 94.1254C70.7177 93.0872 67.8865 93.5591 65.9105 95.3345C65.2558 95.9185 64.7426 96.6381 64.4005 97.4461C63.8401 98.9738 63.9168 100.661 64.6128 102.13C65.1909 103.368 65.9577 104.518 66.8778 105.527C70.0748 109.426 73.4959 113.136 77.1294 116.628L78.1557 117.566L79.182 116.628H79.1879C82.8213 113.136 86.2425 109.426 89.4395 105.527C90.3537 104.513 91.1088 103.368 91.675 102.13C92.3651 100.649 92.4241 98.9444 91.8402 97.4167C91.4922 96.6086 90.9672 95.8949 90.3007 95.3169H90.3006ZM88.8968 100.962V100.968C88.4367 101.941 87.841 102.843 87.1154 103.64C84.2134 107.055 81.1521 110.6 78.1439 113.502C75.1239 110.6 72.1039 107.055 69.1724 103.64C68.4528 102.861 67.8512 101.982 67.3911 101.027C67.0371 100.289 66.9841 99.4339 67.2436 98.6553C67.397 98.2543 67.6388 97.8944 67.9514 97.5995C68.671 96.9625 69.6031 96.6086 70.5645 96.6027C71.0363 96.6027 71.5023 96.6971 71.9388 96.8917C72.4992 97.1689 73.0064 97.5346 73.4488 97.977C74.7052 99.2216 75.8259 100.596 76.7992 102.07L78.1145 104.383L79.4299 102.07C80.3795 100.596 81.4826 99.2216 82.7212 97.977C83.1577 97.5346 83.6709 97.1689 84.2312 96.8917C85.5879 96.3373 87.1451 96.6145 88.2303 97.5995C88.5606 97.8767 88.8202 98.2189 89.003 98.6141C89.2684 99.3809 89.2331 100.224 88.8968 100.968L88.8968 100.962Z" fill="white"/>
<path d="M105.913 79.6627L103.648 69.3523V69.3464C103.577 69.0338 103.406 68.7447 103.165 68.5324L100.145 65.8899C99.9794 65.7424 99.7847 65.6363 99.5724 65.5714L92.2937 63.4716L92.1109 60.4516L93.2139 56.83L96.5347 52.7836C96.6821 52.6067 96.7824 52.4002 96.8355 52.182L98.1508 46.8617C98.2629 46.3957 98.1449 45.9002 97.8323 45.5345L94.8123 42.0191C94.6059 41.7772 94.3345 41.6062 94.0278 41.5354L87.9878 40.0254L81.9949 38.7101L76.2145 36.3095L68.6645 32.2749H68.6586C68.4404 32.1569 68.1985 32.0979 67.9508 32.0979H62.4062C62.0228 32.0979 61.6453 32.2513 61.3681 32.5167L58.3481 35.4188C58.2419 35.5191 58.1476 35.637 58.0768 35.7668L56.3072 38.9047C56.1951 39.1112 56.1244 39.3353 56.1125 39.5713L55.8707 43.8772L53.7886 46.1716L50.8453 48.6195V48.6136C50.4973 48.9026 50.2967 49.3273 50.2967 49.7756V53.2969C50.2967 53.5859 50.3852 53.8691 50.5386 54.1109L52.8507 57.7384L50.391 63.5543V63.5484C50.2082 63.9495 50.2082 64.4036 50.391 64.8047L53.0926 70.2726V70.2667C53.2106 70.5144 53.3934 70.7209 53.6234 70.8742L57.2274 73.1392L63.9456 78.1234L68.5995 82.5L62.3472 89.1889L58.466 93.1173L54.3606 95.5298C54.1129 95.6714 53.9064 95.8837 53.7708 96.1373L50.4912 102.437L50.4971 102.431C50.385 102.649 50.3261 102.885 50.3261 103.127V108.878C50.3261 109.208 50.4322 109.527 50.6328 109.786L53.9123 114.104H53.9064C53.9772 114.193 54.0598 114.275 54.1483 114.346L61.4387 120.386L61.6983 120.569L68.2337 124.025H68.2396C68.4696 124.149 68.7292 124.214 68.9946 124.208L75.4888 124.013L75.4829 129.31C75.4829 129.841 75.766 130.337 76.2261 130.608L81.2515 133.628C81.8119 133.964 82.5256 133.905 83.0211 133.48L88.3061 128.95C88.5066 128.774 88.6541 128.549 88.7426 128.296L90.5239 123.27L92.0339 118.953L94.4169 115.614H94.4228C94.4758 115.537 94.5171 115.455 94.5584 115.372L98.7876 106.206L105.701 95.182C105.86 94.9401 105.942 94.657 105.942 94.368V79.9759C105.942 79.8697 105.931 79.7635 105.913 79.6633L105.913 79.6627ZM102.893 93.9487L96.0805 104.654L95.992 104.837L91.7805 113.897L89.3503 117.312V117.306C89.2618 117.424 89.197 117.56 89.1498 117.696L86.0707 126.927L81.9182 130.489L78.5207 128.449V122.515C78.5207 122.114 78.3615 121.73 78.0783 121.447C77.7952 121.164 77.4118 121.005 77.0107 121.005L69.3546 121.247L63.3146 118.061L56.26 112.157L53.3934 108.382V103.504L56.2955 97.9299L60.1884 95.6825C60.3064 95.6177 60.4126 95.5351 60.5069 95.4407L64.571 91.3353L71.8614 83.5257C72.4453 82.9359 72.4453 81.9863 71.8614 81.3963L66.081 75.8518L65.9276 75.7338L58.8907 70.6611L55.6466 68.5495L53.4287 64.0195L55.9356 58.1329L55.9297 58.127C56.1067 57.7083 56.0831 57.2305 55.8707 56.8294L53.3462 52.9364V50.4886L55.8707 48.4182L56.0241 48.2649L58.5487 45.5044H58.5428C58.7787 45.2449 58.9144 44.9146 58.938 44.5666L59.1149 40.2194L60.6249 37.5769L63.0433 35.2529H67.5733L74.9287 39.1635L80.9687 41.6881L81.24 41.7765L87.28 43.0152L92.854 44.4073L95.06 46.973L94.0632 51.1727L90.7541 55.1717V55.1658C90.6244 55.3251 90.5241 55.5021 90.4651 55.6967L89.0908 59.9259C89.0613 60.097 89.0613 60.268 89.0908 60.4391L89.3503 64.7095C89.3857 65.3465 89.8222 65.8951 90.4356 66.072L98.4222 68.3665L100.811 70.4192L102.94 80.0986L102.893 93.9487Z" fill="white"/>
<g style="mix-blend-mode:multiply">
<path fill-rule="evenodd" clip-rule="evenodd" d="M76.9995 154C119.525 154 153.999 119.526 153.999 77C153.999 55.0451 144.811 35.2363 130.07 21.2094C116.257 8.0667 79.0206 21.2094 81.826 80.3133C83.5976 117.638 6.72338 112.992 17.8953 126.356C32.0199 143.252 53.2545 154 76.9995 154Z" fill="#4A90E2" fill-opacity="0.496203"/>
</g>
<g style="mix-blend-mode:color">
<path fill-rule="evenodd" clip-rule="evenodd" d="M77 154C119.526 154 154 119.526 154 77C154 34.4741 119.526 0 77 0C34.4741 0 0 34.4741 0 77C0 119.526 34.4741 154 77 154Z" fill="#2B85F5"/>
</g>
<mask id="mask0" mask-type="alpha" maskUnits="userSpaceOnUse" x="0" y="0" width="154" height="154">
<g style="mix-blend-mode:color">
<path fill-rule="evenodd" clip-rule="evenodd" d="M77 154C119.526 154 154 119.526 154 77C154 34.4741 119.526 0 77 0C34.4741 0 0 34.4741 0 77C0 119.526 34.4741 154 77 154Z" fill="white"/>
<path fill-rule="evenodd" clip-rule="evenodd" d="M77 154C119.526 154 154 119.526 154 77C154 34.4741 119.526 0 77 0C34.4741 0 0 34.4741 0 77C0 119.526 34.4741 154 77 154Z" stroke="white"/>
</g>
</mask>
<g mask="url(#mask0)">
</g>
</svg>
