<svg width="194" height="198" viewBox="0 0 194 198" fill="none" xmlns="http://www.w3.org/2000/svg">
<g filter="url(#filter0_d)">
<path fill-rule="evenodd" clip-rule="evenodd" d="M97 170C139.526 170 174 135.526 174 93C174 50.4741 139.526 16 97 16C54.4741 16 20 50.4741 20 93C20 135.526 54.4741 170 97 170Z" fill="#4A90E2" fill-opacity="0.496203"/>
<path d="M110.301 111.317C108.325 109.541 105.499 109.07 103.051 110.114C102.184 110.521 101.394 111.069 100.71 111.742C99.7954 112.656 98.9401 113.629 98.1616 114.655C97.3358 113.635 96.451 112.668 95.5014 111.759C94.8172 111.087 94.0268 110.532 93.1597 110.125C90.7177 109.087 87.8865 109.559 85.9105 111.335C85.2558 111.918 84.7426 112.638 84.4005 113.446C83.8401 114.974 83.9168 116.661 84.6128 118.13C85.1909 119.368 85.9577 120.518 86.8778 121.527C90.0748 125.426 93.4959 129.136 97.1294 132.628L98.1557 133.566L99.182 132.628H99.1879C102.821 129.136 106.242 125.426 109.439 121.527C110.354 120.513 111.109 119.368 111.675 118.13C112.365 116.649 112.424 114.944 111.84 113.417C111.492 112.609 110.967 111.895 110.301 111.317H110.301ZM108.897 116.962V116.968C108.437 117.941 107.841 118.843 107.115 119.64C104.213 123.055 101.152 126.6 98.1439 129.502C95.1239 126.6 92.1039 123.055 89.1724 119.64C88.4528 118.861 87.8512 117.982 87.3911 117.027C87.0371 116.289 86.9841 115.434 87.2436 114.655C87.397 114.254 87.6388 113.894 87.9514 113.6C88.671 112.962 89.6031 112.609 90.5645 112.603C91.0363 112.603 91.5023 112.697 91.9388 112.892C92.4992 113.169 93.0064 113.535 93.4488 113.977C94.7052 115.222 95.8259 116.596 96.7992 118.07L98.1145 120.383L99.4299 118.07C100.38 116.596 101.483 115.222 102.721 113.977C103.158 113.535 103.671 113.169 104.231 112.892C105.588 112.337 107.145 112.614 108.23 113.6C108.561 113.877 108.82 114.219 109.003 114.614C109.268 115.381 109.233 116.224 108.897 116.968L108.897 116.962Z" fill="white"/>
<path d="M125.913 95.6627L123.648 85.3523V85.3464C123.577 85.0338 123.406 84.7447 123.165 84.5324L120.145 81.8899C119.979 81.7424 119.785 81.6363 119.572 81.5714L112.294 79.4716L112.111 76.4516L113.214 72.83L116.535 68.7836C116.682 68.6067 116.782 68.4002 116.835 68.182L118.151 62.8617C118.263 62.3957 118.145 61.9002 117.832 61.5345L114.812 58.0191C114.606 57.7772 114.335 57.6062 114.028 57.5354L107.988 56.0254L101.995 54.7101L96.2145 52.3095L88.6645 48.2749H88.6586C88.4404 48.1569 88.1985 48.0979 87.9508 48.0979H82.4062C82.0228 48.0979 81.6453 48.2513 81.3681 48.5167L78.3481 51.4188C78.2419 51.5191 78.1476 51.637 78.0768 51.7668L76.3072 54.9047C76.1951 55.1112 76.1244 55.3353 76.1125 55.5713L75.8707 59.8772L73.7886 62.1716L70.8453 64.6195V64.6136C70.4973 64.9026 70.2967 65.3273 70.2967 65.7756V69.2969C70.2967 69.5859 70.3852 69.8691 70.5386 70.1109L72.8507 73.7384L70.391 79.5543V79.5484C70.2082 79.9495 70.2082 80.4036 70.391 80.8047L73.0926 86.2726V86.2667C73.2106 86.5144 73.3934 86.7209 73.6234 86.8742L77.2274 89.1392L83.9456 94.1234L88.5995 98.5L82.3472 105.189L78.466 109.117L74.3606 111.53C74.1129 111.671 73.9064 111.884 73.7708 112.137L70.4912 118.437L70.4971 118.431C70.385 118.649 70.3261 118.885 70.3261 119.127V124.878C70.3261 125.208 70.4322 125.527 70.6328 125.786L73.9123 130.104H73.9064C73.9772 130.193 74.0598 130.275 74.1483 130.346L81.4387 136.386L81.6983 136.569L88.2337 140.025H88.2396C88.4696 140.149 88.7292 140.214 88.9946 140.208L95.4888 140.013L95.4829 145.31C95.4829 145.841 95.766 146.337 96.2261 146.608L101.252 149.628C101.812 149.964 102.526 149.905 103.021 149.48L108.306 144.95C108.507 144.774 108.654 144.549 108.743 144.296L110.524 139.27L112.034 134.953L114.417 131.614H114.423C114.476 131.537 114.517 131.455 114.558 131.372L118.788 122.206L125.701 111.182C125.86 110.94 125.942 110.657 125.942 110.368V95.9759C125.942 95.8697 125.931 95.7635 125.913 95.6633L125.913 95.6627ZM122.893 109.949L116.081 120.654L115.992 120.837L111.781 129.897L109.35 133.312V133.306C109.262 133.424 109.197 133.56 109.15 133.696L106.071 142.927L101.918 146.489L98.5207 144.449V138.515C98.5207 138.114 98.3615 137.73 98.0783 137.447C97.7952 137.164 97.4118 137.005 97.0107 137.005L89.3546 137.247L83.3146 134.061L76.26 128.157L73.3934 124.382V119.504L76.2955 113.93L80.1884 111.683C80.3064 111.618 80.4126 111.535 80.5069 111.441L84.571 107.335L91.8614 99.5257C92.4453 98.9359 92.4453 97.9863 91.8614 97.3963L86.081 91.8518L85.9276 91.7338L78.8907 86.6611L75.6466 84.5495L73.4287 80.0195L75.9356 74.1329L75.9297 74.127C76.1067 73.7083 76.0831 73.2305 75.8707 72.8294L73.3462 68.9364V66.4886L75.8707 64.4182L76.0241 64.2649L78.5487 61.5044H78.5428C78.7787 61.2449 78.9144 60.9146 78.938 60.5666L79.1149 56.2194L80.6249 53.5769L83.0433 51.2529H87.5733L94.9287 55.1635L100.969 57.6881L101.24 57.7765L107.28 59.0152L112.854 60.4073L115.06 62.973L114.063 67.1727L110.754 71.1717V71.1658C110.624 71.3251 110.524 71.5021 110.465 71.6967L109.091 75.9259C109.061 76.097 109.061 76.268 109.091 76.4391L109.35 80.7095C109.386 81.3465 109.822 81.8951 110.436 82.072L118.422 84.3665L120.811 86.4192L122.94 96.0986L122.893 109.949Z" fill="white"/>
<g style="mix-blend-mode:multiply">
<path fill-rule="evenodd" clip-rule="evenodd" d="M96.9995 170C139.525 170 173.999 135.526 173.999 93C173.999 71.0451 164.811 51.2363 150.07 37.2094C136.257 24.0667 99.0206 37.2094 101.826 96.3133C103.598 133.638 26.7234 128.992 37.8953 142.356C52.0199 159.252 73.2545 170 96.9995 170Z" fill="#4A90E2" fill-opacity="0.496203"/>
</g>
<g style="mix-blend-mode:color">
<path fill-rule="evenodd" clip-rule="evenodd" d="M97 170C139.526 170 174 135.526 174 93C174 50.4741 139.526 16 97 16C54.4741 16 20 50.4741 20 93C20 135.526 54.4741 170 97 170Z" fill="#2B85F5"/>
</g>
<mask id="mask0" mask-type="alpha" maskUnits="userSpaceOnUse" x="20" y="16" width="154" height="154">
<g style="mix-blend-mode:color">
<path fill-rule="evenodd" clip-rule="evenodd" d="M97 170C139.526 170 174 135.526 174 93C174 50.4741 139.526 16 97 16C54.4741 16 20 50.4741 20 93C20 135.526 54.4741 170 97 170Z" fill="white"/>
<path fill-rule="evenodd" clip-rule="evenodd" d="M97 170C139.526 170 174 135.526 174 93C174 50.4741 139.526 16 97 16C54.4741 16 20 50.4741 20 93C20 135.526 54.4741 170 97 170Z" stroke="white"/>
</g>
</mask>
<g mask="url(#mask0)">
</g>
</g>
<defs>
<filter id="filter0_d" x="0" y="0" width="194" height="198" filterUnits="userSpaceOnUse" color-interpolation-filters="sRGB">
<feFlood flood-opacity="0" result="BackgroundImageFix"/>
<feColorMatrix in="SourceAlpha" type="matrix" values="0 0 0 0 0 0 0 0 0 0 0 0 0 0 0 0 0 0 127 0"/>
<feOffset dy="4"/>
<feGaussianBlur stdDeviation="10"/>
<feColorMatrix type="matrix" values="0 0 0 0 0 0 0 0 0 0 0 0 0 0 0 0 0 0 0.25 0"/>
<feBlend mode="normal" in2="BackgroundImageFix" result="effect1_dropShadow"/>
<feBlend mode="normal" in="SourceGraphic" in2="effect1_dropShadow" result="shape"/>
</filter>
</defs>
</svg>
