<svg width="194" height="194" viewBox="0 0 194 194" fill="none" xmlns="http://www.w3.org/2000/svg">
<g filter="url(#filter0_d)">
<path fill-rule="evenodd" clip-rule="evenodd" d="M97 170C139.526 170 174 135.526 174 93C174 50.4741 139.526 16 97 16C54.4741 16 20 50.4741 20 93C20 135.526 54.4741 170 97 170Z" fill="#4A90E2" fill-opacity="0.496203"/>
<path d="M165 113.5L116 52.5L89 44.5H82.5L78.5 52.5L73.5 58.5L75.5 67V79L92 92L75.5 110.5V123L113.5 165L149.5 147.5L165 113.5Z" fill="url(#paint0_linear)"/>
<path d="M127.913 89.6627L125.648 79.3523V79.3464C125.577 79.0338 125.406 78.7447 125.165 78.5324L122.145 75.8899C121.979 75.7424 121.785 75.6363 121.572 75.5714L114.294 73.4716L114.111 70.4516L115.214 66.83L118.535 62.7836C118.682 62.6067 118.782 62.4002 118.835 62.182L120.151 56.8617C120.263 56.3957 120.145 55.9002 119.832 55.5345L116.812 52.0191C116.606 51.7772 116.335 51.6062 116.028 51.5354L109.988 50.0254L103.995 48.7101L98.2145 46.3095L90.6645 42.2749H90.6586C90.4404 42.1569 90.1985 42.0979 89.9508 42.0979H84.4062C84.0228 42.0979 83.6453 42.2513 83.3681 42.5167L80.3481 45.4188C80.2419 45.5191 80.1476 45.637 80.0768 45.7668L78.3072 48.9047C78.1951 49.1112 78.1244 49.3353 78.1125 49.5713L77.8707 53.8772L75.7886 56.1716L72.8453 58.6195V58.6136C72.4973 58.9026 72.2967 59.3273 72.2967 59.7756V63.2969C72.2967 63.5859 72.3852 63.8691 72.5386 64.1109L74.8507 67.7384L72.391 73.5543V73.5484C72.2082 73.9495 72.2082 74.4036 72.391 74.8047L75.0926 80.2726V80.2667C75.2106 80.5144 75.3934 80.7209 75.6234 80.8742L79.2274 83.1392L85.9456 88.1234L90.5995 92.5L84.3472 99.1889L80.466 103.117L76.3606 105.53C76.1129 105.671 75.9064 105.884 75.7708 106.137L72.4912 112.437L72.4971 112.431C72.385 112.649 72.3261 112.885 72.3261 113.127V118.878C72.3261 119.208 72.4322 119.527 72.6328 119.786L75.9123 124.104H75.9064C75.9772 124.193 76.0598 124.275 76.1483 124.346L83.4387 130.386L83.6983 130.569L90.2337 134.025H90.2396C90.4696 134.149 90.7292 134.214 90.9946 134.208L97.4888 134.013L97.4829 139.31C97.4829 139.841 97.766 140.337 98.2261 140.608L103.252 143.628C103.812 143.964 104.526 143.905 105.021 143.48L110.306 138.95C110.507 138.774 110.654 138.549 110.743 138.296L112.524 133.27L114.034 128.953L116.417 125.614H116.423C116.476 125.537 116.517 125.455 116.558 125.372L120.788 116.206L127.701 105.182C127.86 104.94 127.942 104.657 127.942 104.368V89.9759C127.942 89.8697 127.931 89.763 127.913 89.6627Z" fill="white"/>
<path d="M112.301 105.317C110.325 103.541 107.499 103.07 105.051 104.114C104.184 104.521 103.394 105.069 102.71 105.742C101.795 106.656 100.94 107.629 100.162 108.655C99.3358 107.635 98.451 106.668 97.5014 105.759C96.8172 105.087 96.0268 104.532 95.1597 104.125C92.7177 103.087 89.8865 103.559 87.9105 105.335C87.2558 105.918 86.7426 106.638 86.4005 107.446C85.8401 108.974 85.9168 110.661 86.6128 112.13C87.1909 113.368 87.9577 114.518 88.8778 115.527C92.0748 119.426 95.4959 123.136 99.1294 126.628L100.156 127.566L101.182 126.628H101.188C104.821 123.136 108.242 119.426 111.439 115.527C112.354 114.513 113.109 113.368 113.675 112.13C114.365 110.649 114.424 108.944 113.84 107.417C113.492 106.609 112.967 105.895 112.301 105.317ZM110.897 110.968C110.437 111.941 109.841 112.843 109.115 113.64C106.213 117.055 103.152 120.6 100.144 123.502C97.1239 120.6 94.1039 117.055 91.1724 113.64C90.4528 112.861 89.8512 111.982 89.3911 111.027C89.0371 110.289 88.9841 109.434 89.2436 108.655C89.397 108.254 89.6388 107.894 89.9514 107.6C90.671 106.962 91.6031 106.609 92.5645 106.603C93.0363 106.603 93.5023 106.697 93.9388 106.892C94.4992 107.169 95.0064 107.535 95.4488 107.977C96.7052 109.222 97.8259 110.596 98.7992 112.07L100.115 114.383L101.43 112.07C102.38 110.596 103.483 109.222 104.721 107.977C105.158 107.535 105.671 107.169 106.231 106.892C107.588 106.337 109.145 106.614 110.23 107.6C110.561 107.877 110.82 108.219 111.003 108.614C111.268 109.381 111.233 110.224 110.897 110.968Z" fill="#FF3838"/>
<g style="mix-blend-mode:multiply">
<path fill-rule="evenodd" clip-rule="evenodd" d="M96.9995 170C139.525 170 173.999 135.526 173.999 93C173.999 71.0451 164.811 51.2363 150.07 37.2094C136.257 24.0667 99.0206 37.2094 101.826 96.3133C103.598 133.638 26.7234 128.992 37.8953 142.356C52.0199 159.252 73.2545 170 96.9995 170Z" fill="#4A90E2" fill-opacity="0.496203"/>
</g>
<g style="mix-blend-mode:color">
<path fill-rule="evenodd" clip-rule="evenodd" d="M97 170C139.526 170 174 135.526 174 93C174 50.4741 139.526 16 97 16C54.4741 16 20 50.4741 20 93C20 135.526 54.4741 170 97 170Z" fill="#2B85F5"/>
</g>
<mask id="mask0" mask-type="alpha" maskUnits="userSpaceOnUse" x="20" y="16" width="154" height="154">
<g style="mix-blend-mode:color">
<path fill-rule="evenodd" clip-rule="evenodd" d="M97 170C139.526 170 174 135.526 174 93C174 50.4741 139.526 16 97 16C54.4741 16 20 50.4741 20 93C20 135.526 54.4741 170 97 170Z" fill="white"/>
<path fill-rule="evenodd" clip-rule="evenodd" d="M97 170C139.526 170 174 135.526 174 93C174 50.4741 139.526 16 97 16C54.4741 16 20 50.4741 20 93C20 135.526 54.4741 170 97 170Z" stroke="white"/>
</g>
</mask>
<g mask="url(#mask0)">
</g>
</g>
<defs>
<filter id="filter0_d" x="0" y="0" width="194" height="194" filterUnits="userSpaceOnUse" color-interpolation-filters="sRGB">
<feFlood flood-opacity="0" result="BackgroundImageFix"/>
<feColorMatrix in="SourceAlpha" type="matrix" values="0 0 0 0 0 0 0 0 0 0 0 0 0 0 0 0 0 0 127 0"/>
<feOffset dy="4"/>
<feGaussianBlur stdDeviation="10"/>
<feColorMatrix type="matrix" values="0 0 0 0 0 0 0 0 0 0 0 0 0 0 0 0 0 0 0.25 0"/>
<feBlend mode="normal" in2="BackgroundImageFix" result="effect1_dropShadow"/>
<feBlend mode="normal" in="SourceGraphic" in2="effect1_dropShadow" result="shape"/>
</filter>
<linearGradient id="paint0_linear" x1="94" y1="64" x2="165.5" y2="169" gradientUnits="userSpaceOnUse">
<stop stop-color="#C4C4C4"/>
<stop offset="0.619792" stop-color="#C4C4C4" stop-opacity="0"/>
</linearGradient>
</defs>
</svg>
