<svg width="194" height="194" viewBox="0 0 194 194" fill="none" xmlns="http://www.w3.org/2000/svg">
<g filter="url(#filter0_d)">
<path fill-rule="evenodd" clip-rule="evenodd" d="M97 170C139.526 170 174 135.526 174 93C174 50.4741 139.526 16 97 16C54.4741 16 20 50.4741 20 93C20 135.526 54.4741 170 97 170Z" fill="#4A90E2" fill-opacity="0.496203"/>
<g style="mix-blend-mode:multiply">
<path fill-rule="evenodd" clip-rule="evenodd" d="M96.9995 170C139.525 170 173.999 135.526 173.999 93C173.999 71.0451 164.811 51.2363 150.07 37.2094C136.257 24.0667 99.0206 37.2094 101.826 96.3133C103.598 133.638 26.7234 128.992 37.8953 142.356C52.0199 159.252 73.2545 170 96.9995 170Z" fill="#4A90E2" fill-opacity="0.496203"/>
</g>
<g style="mix-blend-mode:color">
<path fill-rule="evenodd" clip-rule="evenodd" d="M97 170C139.526 170 174 135.526 174 93C174 50.4741 139.526 16 97 16C54.4741 16 20 50.4741 20 93C20 135.526 54.4741 170 97 170Z" fill="#2B85F5"/>
</g>
<mask id="mask0" mask-type="alpha" maskUnits="userSpaceOnUse" x="20" y="16" width="154" height="154">
<g style="mix-blend-mode:color">
<path fill-rule="evenodd" clip-rule="evenodd" d="M97 170C139.526 170 174 135.526 174 93C174 50.4741 139.526 16 97 16C54.4741 16 20 50.4741 20 93C20 135.526 54.4741 170 97 170Z" fill="white"/>
<path fill-rule="evenodd" clip-rule="evenodd" d="M97 170C139.526 170 174 135.526 174 93C174 50.4741 139.526 16 97 16C54.4741 16 20 50.4741 20 93C20 135.526 54.4741 170 97 170Z" stroke="white"/>
</g>
</mask>
<g mask="url(#mask0)">
</g>
</g>
<defs>
<filter id="filter0_d" x="0" y="0" width="194" height="194" filterUnits="userSpaceOnUse" color-interpolation-filters="sRGB">
<feFlood flood-opacity="0" result="BackgroundImageFix"/>
<feColorMatrix in="SourceAlpha" type="matrix" values="0 0 0 0 0 0 0 0 0 0 0 0 0 0 0 0 0 0 127 0"/>
<feOffset dy="4"/>
<feGaussianBlur stdDeviation="10"/>
<feColorMatrix type="matrix" values="0 0 0 0 0 0 0 0 0 0 0 0 0 0 0 0 0 0 0.25 0"/>
<feBlend mode="normal" in2="BackgroundImageFix" result="effect1_dropShadow"/>
<feBlend mode="normal" in="SourceGraphic" in2="effect1_dropShadow" result="shape"/>
</filter>
</defs>
</svg>
