<svg width="154" height="154" viewBox="0 0 154 154" fill="none" 
  xmlns="http://www.w3.org/2000/svg">
  <g clip-path="url(#clip0)">
    <rect width="1440" height="6779" transform="translate(-216 -5792)" fill="white"/>
    <rect width="1445" height="6779" transform="translate(-221 -5792)" fill="white"/>
    <path fill-rule="evenodd" clip-rule="evenodd" d="M-221 -49.9784C-221 -49.9784 116.114 -327.076 499 -245.681C881.886 -164.286 1262 -365 1262 -365L1257 615C1257 615 803.226 392.79 463.849 307.972C124.471 223.154 -216 307.972 -216 307.972L-221 -49.9784Z" fill="url(#paint0_linear)"/>
    <path fill-rule="evenodd" clip-rule="evenodd" d="M77 154C119.526 154 154 119.526 154 77C154 34.4741 119.526 0 77 0C34.4741 0 0 34.4741 0 77C0 119.526 34.4741 154 77 154Z" fill="#4A90E2" fill-opacity="0.496203"/>
    <mask id="mask0" mask-type="alpha" maskUnits="userSpaceOnUse" x="0" y="0" width="154" height="154">
      <path fill-rule="evenodd" clip-rule="evenodd" d="M77 154C119.526 154 154 119.526 154 77C154 34.4741 119.526 0 77 0C34.4741 0 0 34.4741 0 77C0 119.526 34.4741 154 77 154Z" fill="white"/>
    </mask>
    <g mask="url(#mask0)">
      <path d="M60.3728 129.776L31.5524 45.0563C29.6522 39.3661 32.8193 33.3598 38.52 31.4631L79.692 17.5539C85.3928 15.6572 91.7269 18.8183 93.6272 24.1924L122.448 108.912C124.348 114.603 121.181 120.609 115.48 122.506L74.308 136.415C68.2905 138.312 62.2731 135.466 60.3728 129.776" fill="#4A90E2"/>
      <path fill-rule="evenodd" clip-rule="evenodd" d="M124.063 92.8299C122.799 92.8299 121.536 91.886 121.22 90.6275L104.48 40.2872C103.848 38.7141 104.796 36.8264 106.375 36.1971C107.954 35.5678 109.849 36.5117 110.481 38.0849L127.222 88.4251C127.853 89.9982 126.906 91.886 125.326 92.5153C124.695 92.8299 124.379 92.8299 124.063 92.8299ZM44.4666 115.798C44.7824 117.056 46.0459 118 47.3093 118C47.6252 118 47.941 118 48.5727 117.685C50.152 117.056 51.0996 115.168 50.4679 113.595L31.5164 60.1087C30.8846 58.5356 28.9895 57.5917 27.4102 58.221C25.8309 58.8502 24.8833 60.738 25.515 62.3111L44.4666 115.798ZM30.5688 109.505C30.8846 110.764 32.1481 111.707 33.4115 111.707C33.7274 111.707 34.0432 111.707 34.6749 111.393C36.2542 110.764 37.2018 108.876 36.5701 107.303L25.1992 75.84C24.5675 74.2669 22.6723 73.323 21.093 73.9523C19.5137 74.5815 18.5662 76.4693 19.1979 78.0424L30.5688 109.505ZM128.801 78.0424C129.117 79.3009 130.38 80.2448 131.644 80.2448C131.959 80.2448 132.275 80.2448 132.907 79.9302C134.486 79.3009 135.434 77.4132 134.802 75.84L124.379 44.3774C123.747 42.8043 121.852 41.8604 120.273 42.4896C118.693 43.1189 117.746 45.0066 118.377 46.5798L128.801 78.0424Z" fill="#42A5F5"/>
      <path d="M82.5948 25.0802L41.7701 38.9344C40.514 39.5641 39.5718 40.8235 40.1999 42.3979L65.9509 119.225C66.5789 120.485 67.8351 121.429 69.4052 120.8L110.23 106.945C111.486 106.316 112.428 105.056 111.8 103.482L86.0491 26.6546C85.7351 25.3951 84.1649 24.7654 82.5948 25.0802" fill="white"/>
      <path d="M95.807 120.813C96.4415 122.999 95.4898 125.185 93.269 125.81C91.0482 126.435 88.8275 125.498 88.193 123.312C87.5585 121.125 88.5102 118.939 90.731 118.315C92.9518 117.378 95.1725 118.627 95.807 120.813" fill="#F8E71C"/>
      <path d="M69.6596 78.9262L69.3341 77.9807L80.6803 74.0739L76.1223 60.8366C75.7642 59.7965 76.1857 57.6419 78.0767 56.9908C79.9678 56.3396 81.4699 57.9377 81.7954 58.8832C82.121 59.8287 87.3301 74.957 87.3301 74.957C87.3301 74.957 91.4828 75.9596 93.36 77.1112C94.9504 78.0443 95.693 79.5865 94.9878 81.8388L93.6721 86.3108C91.8742 89.997 89.7865 93.1484 85.8153 94.5158L79.2912 96.7622C74.4691 98.4226 69.0685 95.9459 67.4081 91.1238C67.4081 91.1238 65.8454 86.5853 63.892 80.9122L69.6596 78.9262Z" fill="#FFCC80"/>
      <path d="M82.9919 80.787C83.5128 82.2998 82.6123 83.9848 81.0995 84.5057C79.4921 85.0592 77.8397 84.2532 77.3188 82.7404L74.9747 75.9327C74.4538 74.4198 75.2597 72.7674 76.8671 72.214C78.3799 71.6931 80.1269 72.4664 80.6478 73.9793L82.9919 80.787Z" fill="#FFCC80"/>
      <path d="M77.3188 82.7404C77.8397 84.2532 76.9392 85.9382 75.4264 86.4591C73.819 87.0125 72.1666 86.2066 71.6457 84.6938L69.3016 77.886C68.7807 76.3732 69.5866 74.7208 71.194 74.1673C72.7068 73.6464 74.4538 74.4198 74.9747 75.9326L77.3188 82.7404Z" fill="#FFCC80"/>
      <path d="M71.6455 84.6938C72.1665 86.2066 71.266 87.8916 69.7531 88.4125C68.1458 88.966 66.4933 88.16 65.9724 86.6472L63.9539 80.785C63.433 79.2721 64.2389 77.6197 65.8463 77.0663C67.3592 76.5454 69.1061 77.3187 69.627 78.8316L71.6455 84.6938Z" fill="#FFCC80"/>
      <path d="M80.977 59.2707C80.5863 58.1361 79.4423 57.5781 78.4023 57.9363C77.3622 58.2944 76.8368 59.5329 77.1949 60.573C77.5856 61.7076 81.3677 60.4053 80.977 59.2707" fill="#FFEBEE"/>
      <path d="M90.2602 83.4667L87.3301 74.957C87.3301 74.957 89.0739 75.4142 90.8503 75.9659L90.2602 83.4667Z" fill="#F2A25A"/>
      <path fill-rule="evenodd" clip-rule="evenodd" d="M71.9144 67.0449C72.533 68.8414 74.5667 69.8333 76.3632 69.2147C77.876 68.6938 80.4397 65.6959 81.1898 64.803L82.2205 63.4962L80.6038 63.101C79.4629 62.8593 75.5025 62.1078 74.0842 62.5961C72.2877 63.2147 71.2958 65.2484 71.9144 67.0449ZM73.8054 66.3938C73.545 65.6374 73.9789 64.7476 74.7354 64.4871C75.2081 64.3244 76.8543 64.4979 78.533 64.7659C77.3752 66.0107 76.1848 67.1609 75.7121 67.3237C74.9556 67.5842 74.0659 67.1502 73.8054 66.3938Z" fill="#FF3D00"/>
      <path fill-rule="evenodd" clip-rule="evenodd" d="M80.2443 65.1286C81.3851 65.3703 85.3456 66.1218 86.7639 65.6335C88.5603 65.0149 89.5523 62.9812 88.9337 61.1847C88.3151 59.3882 86.2814 58.3963 84.4849 59.0149C83.0666 59.5032 80.4084 62.5337 79.6582 63.4266L78.6275 64.7334L80.2443 65.1286ZM86.1127 63.7425C85.64 63.9052 83.9938 63.7317 82.315 63.4637C83.4729 62.2189 84.6633 61.0687 85.136 60.9059C85.8924 60.6455 86.7822 61.0794 87.0426 61.8358C87.3031 62.5922 86.8691 63.482 86.1127 63.7425Z" fill="#FF3D00"/>
    </g>
    <g style="mix-blend-mode:multiply">
      <path fill-rule="evenodd" clip-rule="evenodd" d="M76.9999 154C119.526 154 154 119.526 154 76.9999C154 55.045 144.811 35.2362 130.07 21.2093C116.258 8.06664 79.0211 21.2093 81.8265 80.3133C83.5981 117.638 6.72387 112.991 17.8958 126.356C32.0204 143.252 53.255 154 76.9999 154Z" fill="#4A90E2" fill-opacity="0.496203"/>
    </g>
    <g style="mix-blend-mode:color">
      <path fill-rule="evenodd" clip-rule="evenodd" d="M77 154C119.526 154 154 119.526 154 77C154 34.4741 119.526 0 77 0C34.4741 0 0 34.4741 0 77C0 119.526 34.4741 154 77 154Z" fill="#2B85F5"/>
    </g>
    <mask id="mask1" mask-type="alpha" maskUnits="userSpaceOnUse" x="0" y="0" width="154" height="154">
      <g style="mix-blend-mode:color">
        <path fill-rule="evenodd" clip-rule="evenodd" d="M77 154C119.526 154 154 119.526 154 77C154 34.4741 119.526 0 77 0C34.4741 0 0 34.4741 0 77C0 119.526 34.4741 154 77 154Z" fill="white"/>
        <path fill-rule="evenodd" clip-rule="evenodd" d="M77 154C119.526 154 154 119.526 154 77C154 34.4741 119.526 0 77 0C34.4741 0 0 34.4741 0 77C0 119.526 34.4741 154 77 154Z" stroke="white"/>
      </g>
    </mask>
    <g mask="url(#mask1)">
    </g>
  </g>
  <defs>
    <linearGradient id="paint0_linear" x1="-106.244" y1="943.744" x2="1195.53" y2="1015.62" gradientUnits="userSpaceOnUse">
      <stop stop-color="#ECF0FF"/>
      <stop offset="1" stop-color="#FEFEFE"/>
    </linearGradient>
    <clipPath id="clip0">
      <rect width="1440" height="6779" fill="white" transform="translate(-216 -5792)"/>
    </clipPath>
  </defs>
</svg>
