<?xml version="1.0" standalone="no"?>
<!DOCTYPE svg PUBLIC "-//W3C//DTD SVG 20010904//EN"
 "http://www.w3.org/TR/2001/REC-SVG-20010904/DTD/svg10.dtd">
<svg version="1.0" xmlns="http://www.w3.org/2000/svg"
 width="834.000000pt" height="834.000000pt" viewBox="0 0 834.000000 834.000000"
 preserveAspectRatio="xMidYMid meet">
<metadata>
Created by potrace 1.11, written by Peter Selinger 2001-2013
</metadata>
<g transform="translate(0.000000,834.000000) scale(0.100000,-0.100000)"
fill="#000000" stroke="none">
<path d="M250 5175 l0 -3165 33 -1 c28 0 1404 0 1580 1 l67 0 0 1595 c0 877 3
1595 8 1595 9 0 62 -74 81 -112 7 -16 17 -28 22 -28 5 0 9 -8 9 -18 0 -10 9
-24 20 -32 11 -8 20 -21 20 -30 1 -21 25 -51 34 -42 4 4 7 2 6 -3 -5 -23 1
-42 19 -61 10 -11 21 -29 25 -40 3 -10 17 -31 31 -46 14 -15 25 -32 25 -38 0
-5 5 -10 10 -10 6 0 10 -6 10 -14 0 -16 60 -119 73 -124 4 -2 7 -10 7 -18 0
-9 5 -12 13 -8 6 4 9 4 5 -1 -7 -7 17 -64 31 -75 4 -3 27 -39 51 -80 25 -41
48 -76 52 -78 5 -2 8 -8 8 -14 0 -6 17 -36 38 -67 20 -31 44 -68 51 -83 8 -16
18 -28 23 -28 4 0 8 -7 8 -15 0 -8 5 -15 12 -15 6 0 9 -3 5 -6 -3 -3 -2 -11 4
-18 23 -28 79 -116 79 -125 0 -5 3 -11 8 -13 9 -4 41 -57 49 -80 3 -10 9 -18
14 -18 5 0 9 -7 9 -16 0 -9 5 -12 12 -8 6 4 8 3 4 -4 -3 -5 5 -24 19 -40 14
-16 25 -35 25 -41 0 -6 5 -11 11 -11 5 0 8 -4 5 -9 -3 -5 1 -11 9 -15 8 -3 15
-13 15 -22 0 -9 8 -28 18 -42 9 -15 22 -36 29 -47 69 -115 90 -145 100 -145 7
0 12 -3 11 -7 -4 -12 26 -73 34 -73 5 0 8 -7 8 -16 0 -9 5 -12 12 -8 7 5 8 3
4 -5 -5 -8 13 -45 46 -94 29 -45 60 -94 67 -109 8 -15 19 -25 24 -21 6 3 7 2
4 -4 -3 -5 3 -22 14 -39 11 -16 45 -71 75 -121 31 -51 60 -90 65 -87 5 3 9 2
8 -3 -4 -21 2 -41 19 -59 9 -10 23 -31 31 -46 8 -16 18 -28 23 -28 4 0 8 -5 8
-11 0 -17 44 -75 58 -74 14 0 101 94 102 110 0 6 9 26 19 46 11 19 21 46 23
60 1 13 9 30 16 37 7 8 9 18 6 24 -4 7 -2 8 4 4 12 -7 16 5 13 32 -1 6 2 12 7
12 5 0 12 13 15 29 4 16 31 55 66 90 33 34 63 71 67 83 7 22 17 33 98 106 20
18 34 37 31 41 -9 15 155 52 177 40 8 -4 26 -9 41 -11 14 -2 29 -7 33 -11 10
-10 64 -9 64 2 0 8 20 17 58 26 7 2 25 17 41 34 20 21 38 31 59 31 28 0 58 21
46 32 -3 4 14 5 38 5 l43 -2 -2 35 c-1 22 -9 41 -24 52 -12 10 -19 21 -16 24
3 3 1 21 -4 40 -12 42 11 87 53 105 24 10 31 19 30 39 0 3 24 6 55 7 57 2 62
5 120 80 14 18 55 46 96 66 83 40 127 77 130 105 0 12 5 18 9 16 4 -3 8 0 8 5
0 6 9 11 20 11 11 0 20 4 20 8 0 13 72 32 122 32 37 0 49 5 76 33 18 18 30 36
27 40 -3 4 -2 5 1 3 7 -5 39 26 53 52 7 13 18 18 34 15 13 -3 45 2 71 11 26 9
62 16 81 16 26 0 35 4 35 17 0 9 3 13 7 10 10 -11 35 32 38 65 2 17 -3 32 -11
35 -7 2 -10 11 -7 19 6 16 -15 46 -27 39 -9 -5 -28 16 -45 49 -7 11 -17 20
-24 18 -7 -1 -10 2 -7 6 7 12 -22 45 -53 62 -30 15 -38 22 -101 82 -28 26 -50
54 -50 62 0 9 -4 16 -10 16 -5 0 -10 7 -10 15 0 8 -4 15 -10 15 -5 0 -10 13
-10 28 0 23 -8 32 -40 50 -23 12 -38 16 -34 10 4 -6 -8 0 -26 13 -17 13 -39
41 -47 62 -8 20 -18 37 -22 37 -8 0 -40 71 -61 135 -19 59 -46 93 -72 91 -13
-1 -22 -6 -21 -12 1 -5 -15 -10 -35 -10 -30 0 -44 7 -75 40 -48 51 -54 65 -56
141 -7 225 -7 230 -27 264 -11 19 -28 39 -38 45 -11 6 -31 23 -45 37 -40 40
-76 42 -112 8 -17 -16 -37 -29 -44 -29 -23 0 -45 12 -39 21 3 5 -2 9 -10 9
-21 0 -27 29 -17 83 6 35 5 49 -4 55 -7 4 -15 30 -18 57 -2 28 -7 65 -11 84
-4 26 -1 38 14 51 22 19 26 46 10 52 -14 4 -21 86 -9 94 19 12 30 59 24 102
-3 23 -11 40 -16 37 -15 -10 47 78 73 101 13 12 36 22 53 22 60 0 70 2 96 25
29 25 50 92 38 122 -13 35 -10 51 16 65 13 7 23 16 20 19 -2 4 10 8 27 9 28 2
58 22 58 37 0 4 -15 25 -32 48 -18 23 -37 49 -43 58 -35 57 -81 119 -88 119
-4 0 -6 4 -3 9 3 5 -1 11 -9 15 -8 3 -15 12 -15 21 0 9 -9 33 -20 55 -26 51
-25 64 6 95 14 14 22 30 18 38 -4 6 -3 9 1 4 5 -4 21 4 35 18 20 20 38 26 70
27 40 0 48 6 135 92 83 84 93 97 99 140 6 36 13 50 32 58 22 10 29 21 25 41
-1 5 3 6 7 3 5 -3 17 3 27 14 10 11 15 20 12 20 -3 0 5 11 19 25 14 14 22 30
18 37 -4 6 -3 8 3 5 9 -6 26 16 21 26 0 1 9 13 21 27 19 21 41 59 98 165 6 11
29 58 52 105 22 47 50 96 61 108 12 12 18 22 14 22 -4 0 19 25 52 56 32 30 58
60 56 65 -1 6 2 8 6 5 5 -3 22 6 38 19 16 14 35 25 42 25 6 0 12 9 12 20 0 20
-7 20 -880 20 l-880 0 0 -1619 c0 -985 -4 -1622 -9 -1626 -5 -3 -20 13 -32 34
-12 22 -27 37 -32 34 -6 -3 -7 -2 -4 3 5 9 -19 72 -33 84 -3 3 -20 36 -38 73
-18 37 -36 66 -40 63 -4 -2 -9 7 -10 22 -1 14 -5 28 -10 31 -9 8 -30 43 -64
114 -16 31 -33 57 -39 57 -6 0 -8 4 -5 8 3 5 -1 19 -8 33 -7 13 -28 51 -45 84
-18 33 -47 87 -64 120 -17 33 -34 62 -37 65 -3 3 -21 35 -40 73 -18 37 -37 67
-42 67 -4 0 -7 3 -6 8 5 13 -24 72 -35 72 -6 0 -8 3 -4 6 6 6 -50 114 -64 124
-4 3 -14 22 -23 43 -10 25 -20 36 -27 31 -8 -5 -10 -2 -7 8 8 18 -21 80 -33
72 -5 -3 -9 -2 -8 3 4 21 -2 41 -18 59 -10 11 -19 26 -21 34 -3 16 -53 114
-84 165 -9 17 -27 49 -39 73 -12 23 -25 45 -30 48 -5 3 -9 13 -9 23 0 9 -9 27
-20 39 -11 12 -20 27 -20 34 -1 20 -26 49 -35 40 -5 -4 -5 -2 -2 4 9 16 -63
155 -76 147 -6 -4 -8 0 -4 10 3 9 0 23 -8 31 -8 8 -15 19 -15 25 0 6 -5 11
-11 11 -6 0 -9 7 -5 15 3 8 -1 20 -8 27 -7 7 -19 28 -27 46 -8 18 -22 35 -32
38 -9 3 -15 10 -11 15 7 12 -63 159 -76 159 -6 0 -9 3 -8 8 3 9 -25 72 -33 72
-3 0 -11 16 -19 35 -8 19 -17 35 -22 35 -4 0 -8 9 -8 20 0 11 -8 28 -17 38
-10 9 -23 31 -29 47 -6 17 -16 29 -23 27 -7 -1 -10 2 -6 8 3 6 0 23 -8 38 -15
29 -54 102 -129 242 -25 47 -56 105 -69 130 -13 25 -27 47 -31 48 -5 2 -8 12
-8 23 0 10 -3 19 -8 19 -4 0 -13 15 -21 33 -8 17 -19 35 -25 39 -6 4 -419 8
-918 8 l-908 0 0 -3165z"/>
<path d="M5822 8326 c3 -13 225 -159 393 -258 28 -16 73 -44 100 -62 162 -106
212 -136 382 -227 104 -56 235 -127 293 -159 188 -103 233 -127 360 -193 69
-36 154 -82 190 -101 36 -20 100 -54 143 -76 43 -23 80 -47 84 -56 13 -35 -18
-238 -53 -342 -40 -119 -55 -152 -124 -267 -26 -44 -51 -98 -55 -120 -4 -21
-13 -52 -21 -67 -18 -35 -18 -66 1 -102 23 -43 19 -54 -31 -89 -25 -17 -55
-40 -67 -49 -11 -10 -23 -18 -26 -18 -4 0 -18 -21 -31 -46 -28 -51 -75 -80
-115 -70 -34 9 -33 48 4 95 55 71 59 91 16 91 -27 0 -86 -66 -116 -129 -11
-24 -45 -66 -75 -93 -47 -44 -54 -55 -54 -88 0 -22 -4 -42 -10 -45 -5 -3 -10
-24 -10 -45 0 -47 -8 -70 -24 -70 -27 0 -57 -47 -63 -100 -7 -64 -47 -142 -68
-133 -8 3 -17 -1 -20 -9 -8 -21 9 -59 44 -97 17 -18 31 -37 31 -43 0 -5 8 -7
19 -3 20 6 71 -13 71 -27 0 -16 45 -8 57 11 10 15 20 19 45 15 20 -4 45 1 62
10 32 16 56 9 86 -24 15 -16 97 -44 113 -38 5 2 13 -5 18 -15 13 -22 53 -42
104 -52 22 -4 45 -11 52 -17 7 -5 17 -7 23 -3 19 11 10 53 -17 86 -31 36 -37
57 -22 76 6 7 8 26 4 43 -5 25 -4 29 9 24 27 -10 74 -90 90 -154 30 -118 21
-136 -77 -144 -62 -5 -71 -9 -103 -42 -39 -43 -40 -44 -16 -44 10 0 29 11 42
24 31 34 83 46 129 30 11 -3 9 -10 -8 -28 -25 -27 -16 -40 22 -31 24 6 24 5
20 -47 -3 -29 -9 -65 -15 -81 -6 -16 -8 -55 -4 -95 7 -65 5 -72 -29 -134 -27
-51 -35 -77 -35 -118 0 -64 -12 -87 -50 -95 -32 -7 -32 -25 1 -25 22 0 26 -38
9 -71 -6 -11 -14 -54 -18 -97 -6 -66 -10 -78 -29 -87 -18 -8 -22 -17 -21 -51
2 -27 -3 -47 -15 -58 -9 -10 -17 -21 -17 -26 0 -25 -46 -50 -91 -50 -51 0 -59
-8 -59 -64 0 -18 -7 -41 -15 -52 -26 -34 -19 -69 20 -95 45 -31 50 -49 30
-103 -18 -47 -48 -64 -83 -48 -15 7 -26 7 -55 3 -4 0 -3 -10 3 -21 8 -15 21
-20 50 -20 35 0 70 -19 70 -39 0 -4 -13 -27 -30 -49 -16 -23 -30 -48 -30 -56
0 -8 -5 -18 -11 -21 -7 -5 -5 -15 6 -31 19 -30 14 -52 -31 -119 -19 -27 -34
-56 -34 -63 0 -7 -8 -27 -17 -45 -9 -18 -20 -50 -25 -72 -18 -82 -14 -102 22
-123 26 -15 30 -23 30 -58 0 -34 -8 -51 -40 -90 -22 -27 -47 -69 -55 -94 -21
-60 -44 -86 -85 -94 -28 -5 -39 -14 -54 -48 -25 -54 -50 -78 -81 -78 -14 0
-25 -5 -25 -10 0 -6 -18 -30 -40 -54 -41 -45 -51 -80 -25 -90 17 -6 20 -52 4
-62 -6 -3 -47 -7 -90 -9 -86 -2 -91 -5 -125 -74 -15 -30 -15 -36 0 -75 23 -59
20 -98 -8 -125 -19 -18 -30 -21 -63 -15 l-41 6 -41 -70 c-24 -41 -41 -83 -41
-101 0 -47 -39 -101 -72 -101 -19 0 -28 -5 -28 -15 0 -9 -20 -37 -45 -64 -24
-26 -52 -64 -60 -84 -8 -21 -22 -37 -30 -37 -8 0 -15 -4 -15 -10 0 -5 -18 -10
-39 -10 -22 0 -43 -5 -46 -11 -4 -5 -17 -14 -30 -19 -20 -8 -21 -13 -15 -55 6
-41 4 -51 -26 -98 -19 -29 -34 -56 -34 -62 0 -5 -40 -48 -88 -96 -88 -85 -89
-87 -95 -144 -7 -65 -41 -126 -84 -149 -39 -20 -103 -82 -103 -99 0 -8 7 -20
15 -27 20 -17 19 -46 -5 -97 -34 -76 3 -57 72 37 14 19 37 48 52 65 15 17 31
53 37 85 7 30 31 96 54 145 24 50 50 106 58 125 8 19 33 55 55 79 23 25 39 48
36 52 -2 4 3 9 11 12 18 8 60 74 81 129 21 52 66 103 95 105 21 2 122 98 154
146 10 15 30 28 51 31 52 10 104 67 104 114 0 64 9 82 40 82 16 0 36 -8 45
-17 16 -15 19 -15 43 0 15 8 32 24 37 34 6 10 18 29 28 42 11 15 17 42 17 73
0 27 5 59 12 71 18 33 19 54 3 67 -33 28 0 60 61 60 42 0 44 1 45 30 2 51 4
55 19 56 8 0 25 -3 37 -8 29 -10 53 14 53 53 0 22 5 29 20 29 27 0 39 27 27
60 -9 25 -7 33 19 63 16 19 42 41 57 47 51 23 77 50 77 80 0 41 17 80 35 80 9
0 23 17 32 38 8 20 22 45 31 55 8 9 15 34 15 55 0 26 8 46 28 70 36 41 62 90
54 102 -3 6 -19 10 -36 10 -22 0 -29 5 -29 20 0 16 7 20 30 20 39 0 48 23 26
60 -16 28 -16 29 18 57 33 27 35 34 65 185 33 169 37 212 21 253 -8 22 -5 34
16 71 l27 45 -32 44 c-17 24 -31 51 -31 59 0 9 22 38 49 64 36 35 56 67 80
127 18 44 35 82 37 85 10 10 -8 -126 -32 -245 -14 -66 -31 -187 -40 -270 -35
-350 -95 -603 -194 -810 -26 -55 -67 -143 -91 -195 -24 -52 -49 -102 -56 -111
-7 -8 -13 -19 -13 -23 0 -7 -119 -167 -168 -224 -21 -25 -38 -35 -71 -39 -23
-3 -45 -12 -48 -19 -3 -7 3 -36 12 -64 l17 -52 -24 -26 c-14 -15 -35 -55 -47
-89 -13 -33 -31 -69 -40 -80 -37 -37 -87 -78 -115 -93 -16 -8 -40 -32 -53 -53
-13 -21 -45 -51 -70 -65 -52 -32 -174 -119 -188 -137 -5 -7 -13 -12 -18 -12
-55 -4 -74 -15 -92 -56 -10 -23 -42 -67 -70 -97 -29 -30 -69 -77 -90 -105 -21
-27 -45 -55 -55 -62 -10 -7 -28 -38 -41 -70 -28 -72 -75 -161 -98 -188 -10
-11 -26 -40 -36 -65 -46 -112 -60 -139 -100 -195 -24 -33 -57 -73 -74 -89 -17
-17 -31 -40 -31 -53 0 -36 -140 -161 -265 -236 -82 -49 -144 -65 -182 -48
l-28 13 45 19 c25 11 53 22 63 25 9 4 17 12 17 18 0 15 -55 47 -94 55 -76 16
-53 167 48 309 18 26 41 72 51 102 10 30 24 64 31 75 8 11 14 31 14 45 0 30
-50 139 -72 158 -29 23 -113 42 -192 42 -82 0 -105 11 -106 52 0 25 -34 40
-62 29 -13 -5 -49 -14 -81 -21 -47 -9 -60 -17 -72 -40 -20 -39 -35 -41 -100
-18 -49 19 -56 24 -50 42 24 75 23 97 -3 128 -14 16 -50 42 -81 57 -46 22 -60
35 -86 81 -25 46 -36 56 -61 58 -19 2 -36 -3 -44 -12 -7 -9 -21 -16 -31 -16
-23 0 -89 95 -89 130 0 14 -7 34 -15 45 -15 19 -16 19 -46 1 l-31 -18 -34 33
c-20 19 -49 55 -66 81 -19 31 -37 48 -50 48 -34 0 -57 19 -69 59 -8 26 -35 63
-82 110 -56 57 -78 72 -109 77 -61 10 -100 74 -63 104 8 7 15 29 15 49 1 47
23 136 46 183 15 33 16 41 4 63 -8 14 -28 35 -46 45 -30 19 -51 20 -468 20
l-436 0 0 -164 c0 -293 35 -517 120 -769 131 -387 351 -715 660 -987 35 -30
68 -59 74 -65 89 -78 284 -200 441 -276 213 -103 402 -162 640 -201 119 -20
177 -22 690 -26 815 -5 962 13 1380 171 156 60 432 226 586 355 111 92 248
234 341 354 221 284 360 578 434 918 56 257 54 127 54 3463 l0 3077 -1136 0
c-987 0 -1135 -2 -1132 -14z"/>
<path d="M6742 5524 c2 -10 15 -18 30 -20 27 -3 34 13 13 28 -19 14 -47 9 -43
-8z"/>
<path d="M7521 4999 c-19 -25 -20 -30 -6 -35 19 -8 45 13 45 37 0 30 -16 30
-39 -2z"/>
<path d="M5404 568 c-88 -48 -92 -52 -107 -99 -33 -99 18 -109 66 -13 9 18 27
34 41 38 14 3 28 15 31 26 4 11 24 34 45 52 22 17 37 35 34 39 -8 13 -11 12
-110 -43z"/>
</g>
</svg>
